<?xml version="1.0" encoding="utf-8" ?>
<svg baseProfile="full" height="200mm" version="1.1" viewBox="0,0,200,200" width="200mm" xmlns="http://www.w3.org/2000/svg" xmlns:ev="http://www.w3.org/2001/xml-events" xmlns:xlink="http://www.w3.org/1999/xlink"><defs /><rect fill="#1a1a1a" height="200" width="200" x="0" y="0" /><text alignment-baseline="middle" fill="#e1ed5e" style="dominant-baseline: central; font-size:9.0px; font-family:Arial;" text-anchor="middle" x="100.0" y="100.0">2016</text><line stroke="#e1ed5e" stroke-width="0.3" x1="100.0" x2="100.0" y1="15.0" y2="10.0" /><path d="M 100.0 14.0 a86.0,86.0 0 0,1 42.35913384403234,11.155469271406648" fill="none" id="id37" stroke="none" /><text fill="#e1ed5e" style="font-size:6.75px; font-family:Arial;" text-anchor="middle"><textPath startOffset="22.145653131862478" xlink:href="#id37">January</textPath></text><line stroke="#e1ed5e" stroke-width="0.3" x1="143.13028292997686" x2="145.6673583964461" y1="26.7553504044142" y2="22.446841604673864" /><path d="M 143.63769802327073 25.89364864446614 a86.0,86.0 0 0,1 29.32050498858742,28.57503671076993" fill="none" id="id38" stroke="none" /><text fill="#e1ed5e" style="font-size:6.75px; font-family:Arial;" text-anchor="middle"><textPath startOffset="20.669276256404974" xlink:href="#id38">February</textPath></text><path d="M 117.42321728460499 88.27688183743584 l 32.93650647304231 -22.16115146464398 a60.6979860054342,60.6979860054342 0 0,0 0.5742479250481743,0.8694845492728014 l -33.31207883701121 21.592487037032118" fill="#7bff26" stroke="none" /><path d="M 117.81537515405839 88.88188828441811 l 36.3361417300429 -22.67643984896969 a63.831485148774675,63.831485148774675 0 0,0 0.5721490657804101,0.9345625002807104 l -36.72005876027871 22.049340232564425" fill="#4fff2b" stroke="none" /><line stroke="#e1ed5e" stroke-width="0.3" x1="172.87174338648825" x2="177.1583165268699" y1="56.24261187166439" y2="53.66864786411523" /><path d="M 173.72905801456457 55.72781907015455 a86.0,86.0 0 0,1 12.242430191666344,42.057860355516425" fill="none" id="id39" stroke="none" /><text fill="#e1ed5e" style="font-size:6.75px; font-family:Arial;" text-anchor="middle"><textPath startOffset="22.145653131862474" xlink:href="#id39">March</textPath></text><path d="M 120.93736805541906 98.37931529534042 l 43.323381822828345 -3.353503749302998 a64.45297918397728,64.45297918397728 0 0,0 0.07591959029152615,1.103854180779107 l -43.374565374284934 2.6093061443695573" fill="#47ff2c" stroke="none" /><path d="M 120.99303781780057 99.45929381324524 l 46.557542899625524 -1.199157154120023 a67.57298335656358,67.57298335656358 0 0,0 0.019913334742109323,1.1598519165735377 l -46.571267665966296 0.39975832157741875" fill="#32ff45" stroke="none" /><line stroke="#e1ed5e" stroke-width="0.3" x1="184.99686870605535" x2="189.99668451229388" y1="99.2704041080226" y2="99.22748670261217" /><path d="M 185.99683186730306 99.26182062694052 a86.0,86.0 0 0,1 -10.086455211305974,41.156179273409016" fill="none" id="id40" stroke="none" /><text fill="#e1ed5e" style="font-size:6.75px; font-family:Arial;" text-anchor="middle"><textPath startOffset="21.40746469413373" xlink:href="#id40">April</textPath></text><line stroke="#e1ed5e" stroke-width="0.3" x1="174.33088141563837" x2="178.70328620479359" y1="141.23008692659167" y2="143.65538615756765" /><path d="M 175.20536237346943 141.71514677278685 a86.0,86.0 0 0,1 -30.301960400862466,31.631185727798858" fill="none" id="id41" stroke="none" /><text fill="#e1ed5e" style="font-size:6.75px; font-family:Arial;" text-anchor="middle"><textPath startOffset="22.145653131862474" xlink:href="#id41">May</textPath></text><path d="M 116.79662413953412 112.60449989151573 l 26.548441616158698 19.922445527799116 a54.19222180051691,54.19222180051691 0 0,0 -0.5647552658961944,0.7392827719457098 l -26.2025343729082 -20.375249212985704" fill="#ddff1b" stroke="none" /><path d="M 116.57777611688842 112.89097897827486 l 26.903345844489113 20.920204452107313 a55.07997904849943,55.07997904849943 0 0,0 -0.5868209672718466,0.7414291222194243 l -26.540258446575706 -21.37895351824142" fill="#cfff1d" stroke="none" /><path d="M 116.35404254752997 113.17365903436017 l 40.60273460414363 32.7066888803216 a73.13741031973754,73.13741031973754 0 0,0 -0.7959898933916971,0.9709782437916156 l -40.0352978915133 -33.39886940581171" fill="#3bff9a" stroke="none" /><path d="M 114.91283532996324 114.78537596483092 l 33.57707815159459 33.290096302100025 a68.28266795561969,68.28266795561969 0 0,0 -0.8324245100819703,0.825309813431194 l -33.000661721382656 -33.86158612575988" fill="#33ff50" stroke="none" /><path d="M 114.65682725009322 115.03919595460226 l 43.97048175027964 45.117587863806776 a84.0,84.0 0 0,0 -1.0413100565387516,0.9975514787776794 l -43.18949920787558 -45.86575147289004" fill="#4dd2ff" stroke="none" /><path d="M 113.03279911837588 116.46651593811092 l 25.915162892407604 32.74296173297799 a62.757600634941674,62.757600634941674 0 0,0 -0.8504851923456255,0.6613424296816588 l -25.349267755426748 -33.18300521428044" fill="#5eff2a" stroke="none" /><line stroke="#e1ed5e" stroke-width="0.3" x1="143.1302829299769" x2="145.66735839644613" y1="173.24464959558577" y2="177.55315839532614" /><path d="M 143.63769802327073 174.10635135553383 a86.0,86.0 0 0,1 -40.68552437913181,11.842963189579606" fill="none" id="id42" stroke="none" /><text fill="#e1ed5e" style="font-size:6.75px; font-family:Arial;" text-anchor="middle"><textPath startOffset="21.407464694133747" xlink:href="#id42">June</textPath></text><path d="M 101.44090949804482 120.95050786540614 l 1.5711609586699908 22.84433551662999 a43.89830150806848,43.89830150806848 0 0,0 -0.7522405585462079,0.045252924024049256 l -1.1787760479913179 -22.867940418478728" fill="#ff720a" stroke="none" /><line stroke="#e1ed5e" stroke-width="0.3" x1="101.45913802915013" x2="101.54496967792366" y1="184.9874750549273" y2="189.98673829345242" /><path d="M 101.47630435890484 185.9873277026323 a86.0,86.0 0 0,1 -42.54439059252881,-10.42667462771756" fill="none" id="id43" stroke="none" /><text fill="#e1ed5e" style="font-size:6.75px; font-family:Arial;" text-anchor="middle"><textPath startOffset="22.145653131862474" xlink:href="#id43">July</textPath></text><path d="M 98.19965949673042 120.92268563240118 l -4.31766293314551 50.17778806443236 a71.36320708854183,71.36320708854183 0 0,0 -1.2196326753487254,-0.11550048240283654 l 5.1783951718792505 -50.09627582652435" fill="#38ff80" stroke="none" /><path d="M 97.84075906011543 120.88869738790638 l -5.874358823104937 56.82909282480383 a78.1318989958566,78.1318989958566 0 0,0 -1.3329454452365705,-0.1493593173968967 l 6.849040169942307 -56.71987774689996" fill="#43ffe1" stroke="none" /><path d="M 96.05791012581884 120.62667999033965 l -6.965885240442988 36.44845508092146 a58.10813165559499,58.10813165559499 0 0,0 -0.9781632742610769,-0.19566004991242855 l 7.590545000235023 -36.32350563434617" fill="#a1ff22" stroke="none" /><path d="M 95.35216902796893 120.47920084513623 l -9.991923556610582 44.026258824050004 a66.14587469972633,66.14587469972633 0 0,0 -1.1051647902325819,-0.2608158812871798 l 10.746220500583052 -43.8482467991166" fill="#31ff2f" stroke="none" /><path d="M 92.25597844496254 119.51999308798841 l -17.172111209083994 43.284937900184644 a67.5668041892504,67.5668041892504 0 0,0 -1.074458706219962,-0.436973001957711 l 17.912624376494396 -42.98377764164764" fill="#32ff45" stroke="none" /><line stroke="#e1ed5e" stroke-width="0.3" x1="58.13341422392154" x2="55.67067388415222" y1="173.97424548756322" y2="178.32567169271397" /><path d="M 57.64086615596768 174.84453072859336 a86.0,86.0 0 0,1 -31.369924170532247,-30.572349798747897" fill="none" id="id44" stroke="none" /><text fill="#e1ed5e" style="font-size:6.75px; font-family:Arial;" text-anchor="middle"><textPath startOffset="22.145653131862474" xlink:href="#id44">August</textPath></text><path d="M 86.40962598614128 116.0094264158162 l -22.509745508140387 26.516423608639393 a55.78231395169181,55.78231395169181 0 0,0 -0.7246933291586614,-0.6259728374957694 l 22.961618317061912 -26.126106638678902" fill="#c4ff1e" stroke="none" /><path d="M 82.576782715395 111.72311816256416 l -14.024643510244445 9.436406053645888 a37.90373878166385,37.90373878166385 0 0,0 -0.3585974556880608,-0.5429622529383128 l 14.184565404853233 -9.194263922368513" fill="#ff0000" stroke="none" /><line stroke="#e1ed5e" stroke-width="0.3" x1="26.387840678322732" x2="22.057713659400548" y1="142.50000000000003" y2="145.00000000000006" /><path d="M 25.521815274538298 143.00000000000003 a86.0,86.0 0 0,1 -11.493303480769221,-40.785679425670985" fill="none" id="id45" stroke="none" /><text fill="#e1ed5e" style="font-size:6.75px; font-family:Arial;" text-anchor="middle"><textPath startOffset="21.40746469413373" xlink:href="#id45">September</textPath></text><path d="M 81.81346652052679 110.50000000000001 l -45.17152544200432 26.079792373647255 a73.15958474729446,73.15958474729446 0 0,0 -0.6186048228576368,-1.0930154484201526 l 45.61256362988333 -25.30052015512798" fill="#3bff9b" stroke="none" /><path d="M 81.29705330413844 109.54985784667822 l -54.16560158898949 27.657342116529485 a81.81809737609272,81.81809737609272 0 0,0 -0.6279737159966275,-1.2563680949086642 l 54.63239521819786 -26.72344216545707" fill="#49edff" stroke="none" /><path d="M 81.1358732173502 109.22738970284198 l -31.61412518189101 15.464052830478348 a56.19360511456734,56.19360511456734 0 0,0 -0.41642335837317407,-0.8701646593879853 l 31.874927798224093 -14.919075669025258" fill="#beff1f" stroke="none" /><line stroke="#e1ed5e" stroke-width="0.3" x1="15.003131293944662" x2="10.003315487706104" y1="100.72959589197737" y2="100.7725132973878" /><path d="M 14.003168132696942 100.73817937305945 a86.0,86.0 0 0,1 10.791469493833604,-42.45332614584628" fill="none" id="id46" stroke="none" /><text fill="#e1ed5e" style="font-size:6.75px; font-family:Arial;" text-anchor="middle"><textPath startOffset="22.145653131862435" xlink:href="#id46">October</textPath></text><line stroke="#e1ed5e" stroke-width="0.3" x1="26.387840678322718" x2="22.05771365940052" y1="57.49999999999999" y2="54.99999999999999" /><path d="M 25.521815274538284 56.99999999999999 a86.0,86.0 0 0,1 29.574782752854787,-30.34633250058573" fill="none" id="id47" stroke="none" /><text fill="#e1ed5e" style="font-size:6.75px; font-family:Arial;" text-anchor="middle"><textPath startOffset="21.40746469413373" xlink:href="#id47">November</textPath></text><line stroke="#e1ed5e" stroke-width="0.3" x1="56.869717070023135" x2="54.33264160355391" y1="26.7553504044142" y2="22.446841604673864" /><path d="M 56.362301976729285 25.89364864446614 a86.0,86.0 0 0,1 42.16139366436587,-11.88097634709845" fill="none" id="id48" stroke="none" /><text fill="#e1ed5e" style="font-size:6.75px; font-family:Arial;" text-anchor="middle"><textPath startOffset="22.145653131862474" xlink:href="#id48">December</textPath></text><path d="M 90.28995756902619 81.37971332152246 l -20.034062840907712 -38.41795708764205 a64.32785594396918,64.32785594396918 0 0,0 0.9835201632923158,-0.5021924032356749 l 19.371615455901814 38.75620744255056" fill="#49ff2c" stroke="none" /><path d="M 90.61103034731259 81.2157712731953 l -20.343387418805914 -40.70040233258962 a66.50138637125573,66.50138637125573 0 0,0 1.0255139231521597,-0.5016302489717549 l 19.641713246391703 41.04362633165859" fill="#30ff34" stroke="none" /><path d="M 90.93487009805054 81.0573650232925 l -15.872906109040814 -33.168268926675886 a57.77068413748537,57.77068413748537 0 0,0 0.8982276370596372,-0.4204158883161131 l 15.301189758109656 33.43586104656254" fill="#a6ff21" stroke="none" /><path d="M 91.26138138417902 80.90454125486306 l -21.847965831526714 -47.741748271947564 a73.50341073718513,73.50341073718513 0 0,0 1.151856538952668,-0.5152107788498396 l 21.02519588971843 48.10976280170725" fill="#3bffa0" stroke="none" /><path d="M 91.5904679813234 80.7573450057729 l -20.75424042263468 -47.48976366735438 a72.82678987455904,72.82678987455904 0 0,0 1.1498480528731891,-0.49080175957990213 l 19.93595729459106 47.83904007659369" fill="#3aff96" stroke="none" /><path d="M 91.92203290615298 80.6158196554323 l -23.46803092206645 -56.31473097627872 a82.00899442123033,82.00899442123033 0 0,0 1.304120849010852,-0.5303745960724231 l 22.497855611865155 56.70929282893044" fill="#4aebff" stroke="none" /><path d="M 92.25597844496254 80.48000691201159 l -19.670328938014396 -49.58207853369561 a74.3413943598332,74.3413943598332 0 0,0 1.190268515651572,-0.4604214317339974 l 18.816288159869295 49.91243985356765" fill="#3dffac" stroke="none" /><path d="M 93.61358852112211 79.99465700312896 l -6.890794683467095 -21.585316201391343 a43.65852878903981,43.65852878903981 0 0,0 0.7159153973119083,-0.22179242012174857 l 6.519238653283571 21.700425209319732" fill="#ff6d0a" stroke="none" /></svg>