<?xml version="1.0" encoding="utf-8" ?>
<svg baseProfile="full" height="200mm" version="1.1" viewBox="0,0,200,200" width="200mm" xmlns="http://www.w3.org/2000/svg" xmlns:ev="http://www.w3.org/2001/xml-events" xmlns:xlink="http://www.w3.org/1999/xlink"><defs /><rect fill="#1a1a1a" height="200" width="200" x="0" y="0" /><rect fill="#1a1a1a" height="200" width="180" x="10" y="0" /><text alignment-baseline="middle" fill="#e1ed5e" style="dominant-baseline: central; font-size:9.0px; font-family:Arial;" text-anchor="middle" x="100.0" y="100.0">2014</text><line stroke="#e1ed5e" stroke-width="0.3" x1="100.0" x2="100.0" y1="15.0" y2="10.0" /><path d="M 100.0 14.0 a86.0,86.0 0 0,1 42.46469731375804,11.215312516191453" fill="none" id="id13" stroke="none" /><text fill="#e1ed5e" style="font-size:6.75px; font-family:Arial;" text-anchor="middle"><textPath startOffset="22.20632615414155" xlink:href="#id13">January</textPath></text><line stroke="#e1ed5e" stroke-width="0.3" x1="143.23703022742887" x2="145.7803849466894" y1="26.81831364943548" y2="22.513508569990506" /><path d="M 143.74570117128098 25.957352633546492 a86.0,86.0 0 0,1 28.547481713284135,27.462654790039103" fill="none" id="id14" stroke="none" /><text fill="#e1ed5e" style="font-size:6.75px; font-family:Arial;" text-anchor="middle"><textPath startOffset="19.985693538727396" xlink:href="#id14">February</textPath></text><path d="M 117.04232023915458 87.72973835380427 l 14.134551904628124 -10.176704092383899 a38.416970566908866,38.416970566908866 0 0,0 0.38176842584188336,0.5399843642326183 l -14.30763295027389 9.931893227819488" fill="red" stroke="none" /><line stroke="#e1ed5e" stroke-width="0.3" x1="172.23445277983987" x2="176.4835382374775" y1="55.19839476539836" y2="52.563006222186495" /><path d="M 173.08426987136738 54.67131705675599 a86.0,86.0 0 0,1 12.851231095245387,41.99856678651699" fill="none" id="id15" stroke="none" /><text fill="#e1ed5e" style="font-size:6.75px; font-family:Arial;" text-anchor="middle"><textPath startOffset="22.20632615414155" xlink:href="#id15">March</textPath></text><path d="M 120.94382443527127 98.46500227214037 l 11.75223692201233 -0.8613353797111012 a32.78375879367241,32.78375879367241 0 0,0 0.03640466093915412,0.563163991644389 l -11.765322173955898 0.6589123238136769" fill="red" stroke="none" /><line stroke="#e1ed5e" stroke-width="0.3" x1="184.98032266829074" x2="189.97916517819016" y1="98.17113171792111" y2="98.06355123074" /><path d="M 185.9800911702706 98.14961562048488 a86.0,86.0 0 0,1 -9.607161424134198,41.387399972396054" fill="none" id="id16" stroke="none" /><text fill="#e1ed5e" style="font-size:6.75px; font-family:Arial;" text-anchor="middle"><textPath startOffset="21.466115282336823" xlink:href="#id16">April</textPath></text><path d="M 120.99513854157772 99.54816195383933 l 9.597230035583804 -0.2065427508013383 a30.59945228978302,30.59945228978302 0 0,0 0.006800353620867615,0.5266948821888244 l -9.599363396322387 0.04131161055205115" fill="red" stroke="none" /><path d="M 120.9764740272857 100.99374915477107 l 34.50783209903422 1.6347899526293435 a55.546534042713375,55.546534042713375 0 0,0 -0.05346657850253889,0.9546816759786914 l -34.47457916964415 -2.228543344943458" fill="red" stroke="none" /><path d="M 120.76222939487914 103.15116336523771 l 22.789200094412994 3.4588044999781133 a44.050183719707356,44.050183719707356 0 0,0 -0.12023234527983617,0.7486869288282758 l -22.72628599477187 -3.850570658499594" fill="red" stroke="none" /><path d="M 120.41448212921028 104.9243191809786 l 56.0466923805054 13.519412374650646 a78.65419531786789,78.65419531786789 0 0,0 -0.3288070681969143,1.3134207910750455 l -55.805673998013425 -14.482161005123087" fill="red" stroke="none" /><line stroke="#e1ed5e" stroke-width="0.3" x1="174.80103733775053" x2="179.2010983576182" y1="140.37084112569926" y2="142.7455964860345" /><path d="M 175.68104954172406 140.8457921977663 a86.0,86.0 0 0,1 -30.038265399797805,32.042727171017184" fill="none" id="id17" stroke="none" /><text fill="#e1ed5e" style="font-size:6.75px; font-family:Arial;" text-anchor="middle"><textPath startOffset="22.206326154141568" xlink:href="#id17">May</textPath></text><path d="M 113.48314897796784 116.09983520530334 l 11.145741650143247 13.308805242856378 a38.359488872775586,38.359488872775586 0 0,0 -0.5098704380071047,0.41958865867715733 l -10.915001083591452 -13.498689020390714" fill="red" stroke="none" /><path d="M 112.92097659922987 116.55440617244103 l 17.78992192618588 22.79251812588598 a49.91332226947692,49.91332226947692 0 0,0 -0.6818427725980409,0.5228079627607934 l -17.394950425094343 -23.095365430474146" fill="red" stroke="none" /><path d="M 111.1453310114006 117.79835938074945 l 13.911325335159452 22.215470094555563 a47.21167839156321,47.21167839156321 0 0,0 -0.6924847119384682,0.42538066914634315 l -13.526861423288674 -22.451639230530283" fill="red" stroke="none" /><line stroke="#e1ed5e" stroke-width="0.3" x1="143.8653032363475" x2="146.44561519142675" y1="172.8068346515853" y2="177.08958963109032" /><path d="M 144.38136562736335 173.6633856474863 a86.0,86.0 0 0,1 -40.68145358897372,12.25698825130547" fill="none" id="id18" stroke="none" /><text fill="#e1ed5e" style="font-size:6.75px; font-family:Arial;" text-anchor="middle"><textPath startOffset="21.466115282336833" xlink:href="#id18">June</textPath></text><path d="M 106.91757812671514 119.82793768551818 l 7.668665864585932 21.980789534830183 a44.28011049624047,44.28011049624047 0 0,0 -0.7218296215117666,0.24488379870735422 l -7.289166510136938 -22.109536320435662" fill="red" stroke="none" /><path d="M 106.57524785965236 119.94407469862006 l 4.481487365839517 13.593269895372565 a35.31295620962425,35.31295620962425 0 0,0 -0.5789284316529505,0.18535460185796757 l -4.246837589095626 -13.668397343890238" fill="red" stroke="none" /><path d="M 103.7750983002368 120.6578951692458 l 3.4926549151895534 19.112323272697534 a40.42883267817945,40.42883267817945 0 0,0 -0.6856557305008575,0.11921003753186991 l -3.163150213216646 -19.16961188875041" fill="red" stroke="none" /><path d="M 101.62511606390274 120.93702456842531 l 2.5488818552955896 32.83827119287608 a53.93704379037575,53.93704379037575 0 0,0 -0.9262717411574786,0.06388112242686983 l -1.9832473533591806 -32.877280659819235" fill="red" stroke="none" /><path d="M 101.26447882468166 120.96189622390904 l 3.7934364740449884 62.885688671727095 a84.0,84.0 0 0,0 -1.4440477263460816,0.07464077295119242 l -2.7104006792854274 -62.94166925144049" fill="red" stroke="none" /><path d="M 100.90346689309514 120.98055641714683 l 0.7641549109935869 17.745415293100756 a38.76186073170854,38.76186073170854 0 0,0 -0.6668510196946555,0.02296769745068234 l -0.4585835396242791 -17.755939788977532" fill="red" stroke="none" /><line stroke="#e1ed5e" stroke-width="0.3" x1="102.19456741930631" x2="102.32365962044197" y1="184.97166512339345" y2="189.96999836594603" /><path d="M 102.22038585953345 185.97133177190398 a86.0,86.0 0 0,1 -42.740103519485714,-10.115201625700543" fill="none" id="id19" stroke="none" /><text fill="#e1ed5e" style="font-size:6.75px; font-family:Arial;" text-anchor="middle"><textPath startOffset="22.20632615414155" xlink:href="#id19">July</textPath></text><path d="M 98.37488393609728 120.93702456842531 l -2.2375002133772925 28.826616129087483 a49.91332226947692,49.91332226947692 0 0,0 -0.8560269826547505,-0.07386161003714459 l 2.7333715137735846 -28.783830266771677" fill="red" stroke="none" /><path d="M 98.01472825383883 120.90594882070398 l -1.5976365962212618 16.823948146781202 a37.89963531970936,37.89963531970936 0 0,0 -0.6489273076906114,-0.06726396874580591 l 1.8869965005174665 -16.793954809579635" fill="red" stroke="none" /><path d="M 91.40352486487194 119.15986991738527 l -3.717818706511974 8.286294286144052 a30.082116985101763,30.082116985101763 0 0,0 -0.470616104032116,-0.21603677109887137 l 3.8599028063115095 -8.221070444711106" fill="red" stroke="none" /><line stroke="#e1ed5e" stroke-width="0.3" x1="58.666819895761336" x2="56.23545636021788" y1="174.27360380694188" y2="178.64263932499728" /><path d="M 58.180547188652646 175.14741091055294 a86.0,86.0 0 0,1 -31.652253787137756,-30.449443065178592" fill="none" id="id20" stroke="none" /><text fill="#e1ed5e" style="font-size:6.75px; font-family:Arial;" text-anchor="middle"><textPath startOffset="22.20632615414155" xlink:href="#id20">August</textPath></text><line stroke="#e1ed5e" stroke-width="0.3" x1="26.63291911575756" x2="22.317208475507996" y1="142.92168965132927" y2="145.44649492493687" /><path d="M 25.769776987707644 143.4266507060508 a86.0,86.0 0 0,1 -11.730757126820373,-40.83630448921669" fill="none" id="id21" stroke="none" /><text fill="#e1ed5e" style="font-size:6.75px; font-family:Arial;" text-anchor="middle"><textPath startOffset="21.46611528233685" xlink:href="#id21">September</textPath></text><line stroke="#e1ed5e" stroke-width="0.3" x1="15.007084014347285" x2="10.007500721073583" y1="101.09737516637583" y2="101.16192664675087" /><path d="M 14.007167355692545 101.11028546245083 a86.0,86.0 0 0,1 10.666146001902534,-42.60595125391555" fill="none" id="id22" stroke="none" /><text fill="#e1ed5e" style="font-size:6.75px; font-family:Arial;" text-anchor="middle"><textPath startOffset="22.20632615414155" xlink:href="#id22">October</textPath></text><path d="M 79.00486145842228 99.54816195383935 l -19.30939684563739 -0.41555906506620044 a40.31386796783259,40.31386796783259 0 0,0 0.020902367243264025,-0.6936478080735805 l 19.29938278393848 0.7478770205647753" fill="red" stroke="none" /><line stroke="#e1ed5e" stroke-width="0.3" x1="26.266209847984243" x2="21.928928074336255" y1="57.711370442889674" y2="55.22380399835377" /><path d="M 25.398753493254645 57.213857153982495 a86.0,86.0 0 0,1 29.58750427330803,-30.492523968695096" fill="none" id="id23" stroke="none" /><text fill="#e1ed5e" style="font-size:6.75px; font-family:Arial;" text-anchor="middle"><textPath startOffset="21.46611528233685" xlink:href="#id23">November</textPath></text><path d="M 83.84228863543731 86.58626213691792 l -13.268193590359163 -11.014930686782979 a38.244525484509026,38.244525484509026 0 0,0 0.42485913751224547,-0.502899211344208 l 13.076623839359792 11.241688847756302" fill="red" stroke="none" /><line stroke="#e1ed5e" stroke-width="0.3" x1="56.762969772571076" x2="54.21961505331055" y1="26.818313649435495" y2="22.513508569990535" /><path d="M 56.25429882871897 25.957352633546506 a86.0,86.0 0 0,1 42.265352541879196,-11.944610805530505" fill="none" id="id24" stroke="none" /><text fill="#e1ed5e" style="font-size:6.75px; font-family:Arial;" text-anchor="middle"><textPath startOffset="22.20632615414155" xlink:href="#id24">December</textPath></text></svg>