<?xml version="1.0" encoding="utf-8" ?>
<svg baseProfile="full" height="200mm" version="1.1" viewBox="0,0,200,200" width="200mm" xmlns="http://www.w3.org/2000/svg" xmlns:ev="http://www.w3.org/2001/xml-events" xmlns:xlink="http://www.w3.org/1999/xlink"><defs /><rect fill="#1a1a1a" height="200" width="200" x="0" y="0" /><text alignment-baseline="middle" fill="#e1ed5e" style="dominant-baseline: central; font-size:9.0px; font-family:Arial;" text-anchor="middle" x="100.0" y="100.0">2017</text><line stroke="#e1ed5e" stroke-width="0.3" x1="100.0" x2="100.0" y1="15.0" y2="10.0" /><path d="M 100.0 14.0 a86.0,86.0 0 0,1 42.46469731375804,11.215312516191453" fill="none" id="id49" stroke="none" /><text fill="#e1ed5e" style="font-size:6.75px; font-family:Arial;" text-anchor="middle"><textPath startOffset="22.20632615414155" xlink:href="#id49">January</textPath></text><line stroke="#e1ed5e" stroke-width="0.3" x1="143.23703022742887" x2="145.7803849466894" y1="26.81831364943548" y2="22.513508569990506" /><path d="M 143.74570117128098 25.957352633546492 a86.0,86.0 0 0,1 28.547481713284135,27.462654790039103" fill="none" id="id50" stroke="none" /><text fill="#e1ed5e" style="font-size:6.75px; font-family:Arial;" text-anchor="middle"><textPath startOffset="19.985693538727396" xlink:href="#id50">February</textPath></text><path d="M 111.60114157652 82.49532879139004 l 13.13989972365483 -19.826464737074488 a44.78540873557069,44.78540873557069 0 0,0 0.6389284864886301,0.43140736619243 l -13.479232904550003 19.59734545858339" fill="#ff8e0d" stroke="none" /><path d="M 117.2510076193507 88.02491185347247 l 22.51633140765582 -15.63010458824743 a48.409584993190634,48.409584993190634 0 0,0 0.46928605389255473,0.6886193772297702 l -22.782041927217108 15.240207187747254" fill="#ffcc13" stroke="none" /><path d="M 117.45458315368197 88.32363383020206 l 33.76870145797074 -22.589810356982426 a61.62788119163964,61.62788119163964 0 0,0 0.5822466182944457,0.8868015453068361 l -34.152544711623115 22.005190747697917" fill="#68ff28" stroke="none" /><path d="M 117.65298651832404 88.62581576622439 l 20.000999628183703 -12.887057631551238 a44.793197358184706,44.793197358184706 0 0,0 0.41203855264332606,0.6517460390092925 l -20.219865777072986 12.54086394482774" fill="#ff8e0d" stroke="none" /><line stroke="#e1ed5e" stroke-width="0.3" x1="172.23445277983987" x2="176.4835382374775" y1="55.19839476539836" y2="52.563006222186495" /><path d="M 173.08426987136738 54.67131705675599 a86.0,86.0 0 0,1 12.851231095245387,41.99856678651699" fill="none" id="id51" stroke="none" /><text fill="#e1ed5e" style="font-size:6.75px; font-family:Arial;" text-anchor="middle"><textPath startOffset="22.20632615414155" xlink:href="#id51">March</textPath></text><path d="M 118.73160827565052 90.50648371742162 l 24.39951341433292 -12.36611264111624 a48.35428662401904,48.35428662401904 0 0,0 0.36988723699664805,0.7456700989600976 l -24.608760664282975 11.944282953657194" fill="#ffcb12" stroke="none" /><path d="M 119.04729006885535 91.15688171328212 l 36.61445000129586 -16.999053996348092 a61.36812833991876,61.36812833991876 0 0,0 0.43658362791808697,0.9619541527646159 l -36.901635946177294 16.366277834741414" fill="#6cff28" stroke="none" /><line stroke="#e1ed5e" stroke-width="0.3" x1="184.98032266829074" x2="189.97916517819016" y1="98.17113171792111" y2="98.06355123074" /><path d="M 185.9800911702706 98.14961562048488 a86.0,86.0 0 0,1 -9.607161424134198,41.387399972396054" fill="none" id="id52" stroke="none" /><text fill="#e1ed5e" style="font-size:6.75px; font-family:Arial;" text-anchor="middle"><textPath startOffset="21.466115282336823" xlink:href="#id52">April</textPath></text><path d="M 120.64145759157962 103.86396538481128 l 39.01198110347199 7.302824614392546 a60.68961976343731,60.68961976343731 0 0,0 -0.20105623402970443,1.0251814057402542 l -38.88049493646662 -7.973269747200745" fill="#75ff27" stroke="none" /><path d="M 120.5718875245553 104.21870165774334 l 23.013194353151583 4.719343378274129 a44.492111787959544,44.492111787959544 0 0,0 -0.16031135274359506,0.7489212696206982 l -22.928548961683546 -5.1147784673109955" fill="#ff890c" stroke="none" /><path d="M 120.49622156327973 104.57218783832717 l 45.741626126036024 10.20379810166847 a67.8659135871016,67.8659135871016 0 0,0 -0.2641581604388424,1.1379864415091598 l -45.55920739966663 -10.989653200526195" fill="#33ff4e" stroke="none" /><path d="M 120.32669344350535 105.2749913415812 l 45.2649911111187 11.746742619577038 a67.76436017375029,67.76436017375029 0 0,0 -0.302719284922294,1.1265310735340004 l -45.05608374985463 -12.524164626286586" fill="#32ff4c" stroke="none" /><path d="M 119.9155931802556 106.66101706037122 l 53.71444143930147 17.965460911815335 a77.63920024956312,77.63920024956312 0 0,0 -0.43481342036110604,1.2637713312198418 l -53.39723718799713 -18.887404946124477" fill="#43ffdc" stroke="none" /><path d="M 119.67450827220406 107.3425965602758 l 59.02352481661219 22.027789680827375 a84.0,84.0 0 0,0 -0.517222881625973,1.3503057326674246 l -58.635607655392704 -23.040518980327946" fill="#4dd2ff" stroke="none" /><line stroke="#e1ed5e" stroke-width="0.3" x1="174.80103733775053" x2="179.2010983576182" y1="140.37084112569926" y2="142.7455964860345" /><path d="M 175.68104954172406 140.8457921977663 a86.0,86.0 0 0,1 -30.038265399797805,32.042727171017184" fill="none" id="id53" stroke="none" /><text fill="#e1ed5e" style="font-size:6.75px; font-family:Arial;" text-anchor="middle"><textPath startOffset="22.206326154141568" xlink:href="#id53">May</textPath></text><path d="M 117.14729908036423 112.12312394758627 l 18.46550653956522 13.055095352623828 a43.61438582913156,43.61438582913156 0 0,0 -0.4386780776304635,0.6092854819597905 l -18.238048669559152 -13.37101444003475" fill="#ff790b" stroke="none" /><line stroke="#e1ed5e" stroke-width="0.3" x1="143.8653032363475" x2="146.44561519142675" y1="172.8068346515853" y2="177.08958963109032" /><path d="M 144.38136562736335 173.6633856474863 a86.0,86.0 0 0,1 -40.68145358897372,12.25698825130547" fill="none" id="id54" stroke="none" /><text fill="#e1ed5e" style="font-size:6.75px; font-family:Arial;" text-anchor="middle"><textPath startOffset="21.466115282336833" xlink:href="#id54">June</textPath></text><path d="M 105.18746579009965 120.34920634021253 l 7.688182493607205 30.158928901701195 a52.12345004257844,52.12345004257844 0 0,0 -0.8713221869189759,0.21414979438119952 l -7.167907021945018 -30.28679995439642" fill="#f5ff19" stroke="none" /><line stroke="#e1ed5e" stroke-width="0.3" x1="102.19456741930631" x2="102.32365962044197" y1="184.97166512339345" y2="189.96999836594603" /><path d="M 102.22038585953345 185.97133177190398 a86.0,86.0 0 0,1 -42.740103519485714,-10.115201625700543" fill="none" id="id55" stroke="none" /><text fill="#e1ed5e" style="font-size:6.75px; font-family:Arial;" text-anchor="middle"><textPath startOffset="22.20632615414155" xlink:href="#id55">July</textPath></text><line stroke="#e1ed5e" stroke-width="0.3" x1="58.666819895761336" x2="56.23545636021788" y1="174.27360380694188" y2="178.64263932499728" /><path d="M 58.180547188652646 175.14741091055294 a86.0,86.0 0 0,1 -31.652253787137756,-30.449443065178592" fill="none" id="id56" stroke="none" /><text fill="#e1ed5e" style="font-size:6.75px; font-family:Arial;" text-anchor="middle"><textPath startOffset="22.20632615414155" xlink:href="#id56">August</textPath></text><line stroke="#e1ed5e" stroke-width="0.3" x1="26.63291911575756" x2="22.317208475507996" y1="142.92168965132927" y2="145.44649492493687" /><path d="M 25.769776987707644 143.4266507060508 a86.0,86.0 0 0,1 -11.730757126820373,-40.83630448921669" fill="none" id="id57" stroke="none" /><text fill="#e1ed5e" style="font-size:6.75px; font-family:Arial;" text-anchor="middle"><textPath startOffset="21.46611528233685" xlink:href="#id57">September</textPath></text><line stroke="#e1ed5e" stroke-width="0.3" x1="15.007084014347285" x2="10.007500721073583" y1="101.09737516637583" y2="101.16192664675087" /><path d="M 14.007167355692545 101.11028546245083 a86.0,86.0 0 0,1 10.666146001902534,-42.60595125391555" fill="none" id="id58" stroke="none" /><text fill="#e1ed5e" style="font-size:6.75px; font-family:Arial;" text-anchor="middle"><textPath startOffset="22.20632615414155" xlink:href="#id58">October</textPath></text><path d="M 79.16333360222342 97.38593545837743 l -15.966796766999424 -2.003114916518543 a37.09195663576814,37.09195663576814 0 0,0 0.08492998465814576,-0.6328270342632747 l 15.929950783283445 2.277660292846477" fill="#ff0000" stroke="none" /><line stroke="#e1ed5e" stroke-width="0.3" x1="26.266209847984243" x2="21.928928074336255" y1="57.711370442889674" y2="55.22380399835377" /><path d="M 25.398753493254645 57.213857153982495 a86.0,86.0 0 0,1 29.58750427330803,-30.492523968695096" fill="none" id="id59" stroke="none" /><text fill="#e1ed5e" style="font-size:6.75px; font-family:Arial;" text-anchor="middle"><textPath startOffset="21.46611528233685" xlink:href="#id59">November</textPath></text><line stroke="#e1ed5e" stroke-width="0.3" x1="56.762969772571076" x2="54.21961505331055" y1="26.818313649435495" y2="22.513508569990535" /><path d="M 56.25429882871897 25.957352633546506 a86.0,86.0 0 0,1 42.265352541879196,-11.944610805530505" fill="none" id="id60" stroke="none" /><text fill="#e1ed5e" style="font-size:6.75px; font-family:Arial;" text-anchor="middle"><textPath startOffset="22.20632615414155" xlink:href="#id60">December</textPath></text></svg>