<?xml version="1.0" encoding="utf-8" ?>
<svg baseProfile="full" height="200mm" version="1.1" viewBox="0,0,200,200" width="200mm" xmlns="http://www.w3.org/2000/svg" xmlns:ev="http://www.w3.org/2001/xml-events" xmlns:xlink="http://www.w3.org/1999/xlink"><defs /><rect fill="#1a1a1a" height="200" width="200" x="0" y="0" /><rect fill="#1a1a1a" height="200" width="180" x="10" y="0" /><text alignment-baseline="middle" fill="#e1ed5e" style="dominant-baseline: central; font-size:9.0px; font-family:Arial;" text-anchor="middle" x="100.0" y="100.0">2023</text><line stroke="#e1ed5e" stroke-width="0.3" x1="100.0" x2="100.0" y1="15.0" y2="10.0" /><path d="M 100.0 14.0 a86.0,86.0 0 0,1 42.46469731375804,11.215312516191453" fill="none" id="id121" stroke="none" /><text fill="#e1ed5e" style="font-size:6.75px; font-family:Arial;" text-anchor="middle"><textPath startOffset="22.20632615414155" xlink:href="#id121">January</textPath></text><path d="M 103.2404852339499 79.25152402106235 l 0.05285220445285188 -0.3384069407368425 a21.34250928900454,21.34250928900454 0 0,0 0.36248808243322284,0.059813639519223395 l -0.0586694930249499 0.3374470382779945" fill="#ff0200" stroke="none" /><path d="M 109.08828744355905 81.06846463323043 l 0.11351711056358836 -0.23646404305699154 a21.262300167841282,21.262300167841282 0 0,0 0.32858225399587687,0.16123388501871525 l -0.11757063156989704 0.2344749979034443" fill="#ff0100" stroke="none" /><path d="M 110.36928655335952 81.73862282372117 l 0.26673189504941863 -0.46974222530892884 a21.54018854307995,21.54018854307995 0 0,0 0.32084958855182416,0.18585679109717015 l -0.2747782160665711 0.46508127682170913" fill="#ff0500" stroke="none" /><line stroke="#e1ed5e" stroke-width="0.3" x1="143.23703022742887" x2="145.7803849466894" y1="26.81831364943548" y2="22.513508569990506" /><path d="M 143.74570117128098 25.957352633546492 a86.0,86.0 0 0,1 28.547481713284135,27.462654790039103" fill="none" id="id122" stroke="none" /><text fill="#e1ed5e" style="font-size:6.75px; font-family:Arial;" text-anchor="middle"><textPath startOffset="19.985693538727396" xlink:href="#id122">February</textPath></text><path d="M 110.68208982089419 81.91981866633111 l 0.30933793138460813 -0.5235760030659955 a21.608129745021465,21.608129745021465 0 0,0 0.3186046022452216,0.19195570796151984 l -0.3183045998474673 0.5181736856458611" fill="#ff0500" stroke="none" /><path d="M 111.60114157652 82.49532879139004 l 1.7622180508864045 -2.6589665659349007 a24.18990840897188,24.18990840897188 0 0,0 0.3451039524792235,0.233015729224821 l -1.8077266977721698 2.6282389244114097" fill="#ff2a04" stroke="none" /><path d="M 111.90073688211348 82.69761687909136 l 0.14834561439778496 -0.2156784642869296 a21.26177016878977,21.26177016878977 0 0,0 0.2997594316337101,0.21000063822269494 l -0.15203618561514604 0.21309298330029905" fill="#ff0100" stroke="none" /><line stroke="#e1ed5e" stroke-width="0.3" x1="172.23445277983987" x2="176.4835382374775" y1="55.19839476539836" y2="52.563006222186495" /><path d="M 173.08426987136738 54.67131705675599 a86.0,86.0 0 0,1 12.851231095245387,41.99856678651699" fill="none" id="id123" stroke="none" /><text fill="#e1ed5e" style="font-size:6.75px; font-family:Arial;" text-anchor="middle"><textPath startOffset="22.20632615414155" xlink:href="#id123">March</textPath></text><path d="M 118.3937258080291 89.86733742301442 l 8.159464535812548 -4.494853398009187 a30.315608867957984,30.315608867957984 0 0,0 0.24785450047091762,0.4592367467977423 l -8.23562713550193 4.353735667878986" fill="#ff7e0b" stroke="none" /><path d="M 119.47837535516314 92.15188598940014 l 0.25755544901680516 -0.10377274752533876 a21.277675336404236,21.277675336404236 0 0,0 0.13395456776169998,0.34089976383036336 l -0.2593035666602056 0.099323978799191" fill="#ff0100" stroke="none" /><path d="M 119.61058180528143 92.48833698450437 l 0.8618163741483865 -0.3301112760507454 a21.922876436651258,21.922876436651258 0 0,0 0.1319500470685028,0.3535605247075522 l -0.8673710097185146 0.3152276143138599" fill="#ff0a01" stroke="none" /><line stroke="#e1ed5e" stroke-width="0.3" x1="184.98032266829074" x2="189.97916517819016" y1="98.17113171792111" y2="98.06355123074" /><path d="M 185.9800911702706 98.14961562048488 a86.0,86.0 0 0,1 -9.607161424134198,41.387399972396054" fill="none" id="id124" stroke="none" /><text fill="#e1ed5e" style="font-size:6.75px; font-family:Arial;" text-anchor="middle"><textPath startOffset="21.466115282336823" xlink:href="#id124">April</textPath></text><path d="M 120.89721153311464 102.0752229133903 l 4.707124668458208 0.4674467190366456 a25.7302779072213,25.7302779072213 0 0,0 -0.04756143667126963,0.440359834227706 l -4.698380930285887 -0.5484028751491431" fill="#ff4006" stroke="none" /><path d="M 120.8583938346157 102.4346265915055 l 0.8078923495773221 0.09429854536980707 a21.813377073788306,21.813377073788306 0 0,0 -0.04674138316904182,0.37257481311439256 l -0.8061494571614322 -0.10819111277159454" fill="#ff0801" stroke="none" /><path d="M 120.81339534386255 102.79330883721812 l 3.2979426644921594 0.4426078608111908 a24.327510711737755,24.327510711737755 0 0,0 -0.05927334152237421,0.4145576125543072 l -3.289835271953184 -0.4993109453459073" fill="#ff2c04" stroke="none" /><path d="M 120.49622156327973 104.57218783832717 l 0.6995691895899501 0.15605616531985514 a21.71676396237386,21.71676396237386 0 0,0 -0.08452933314781926,0.36415015486261937 l -0.6967792905115779 -0.16807497753103945" fill="#ff0701" stroke="none" /><path d="M 120.41448212921028 104.9243191809786 l 2.32096273212282 0.5598555588032949 a23.387531413536998,23.387531413536998 0 0,0 -0.09776955450844717,0.3905407700926806 l -2.3109818633193115 -0.5997241682933715" fill="#ff1f03" stroke="none" /><path d="M 120.32669344350535 105.2749913415812 l 4.805883960178545 1.2471775770636129 a25.965075281144454,25.965075281144454 0 0,0 -0.11599207905022528,0.4316496762584276 l -4.783703804786542 -1.3297181864975887" fill="#ff4306" stroke="none" /><path d="M 118.64920377521936 109.65438752849418 l 55.94761132565807 28.96316258548255 a84.0,84.0 0 0,0 -0.6757899671004277,1.2783399396554627 l -55.44076885033275 -29.921917540224147" fill="#4dd2ff" stroke="none" /><line stroke="#e1ed5e" stroke-width="0.3" x1="174.80103733775053" x2="179.2010983576182" y1="140.37084112569926" y2="142.7455964860345" /><path d="M 175.68104954172406 140.8457921977663 a86.0,86.0 0 0,1 -30.038265399797805,32.042727171017184" fill="none" id="id125" stroke="none" /><text fill="#e1ed5e" style="font-size:6.75px; font-family:Arial;" text-anchor="middle"><textPath startOffset="22.206326154141568" xlink:href="#id125">May</textPath></text><path d="M 118.12598468904814 110.60418214915192 l 0.3704946755595634 0.21674921899820232 a21.42923947692904,21.42923947692904 0 0,0 -0.18900499858903697,0.3167832491824328 l -0.36670880127229916 -0.22309456206673925" fill="#ff0300" stroke="none" /><line stroke="#e1ed5e" stroke-width="0.3" x1="143.8653032363475" x2="146.44561519142675" y1="172.8068346515853" y2="177.08958963109032" /><path d="M 144.38136562736335 173.6633856474863 a86.0,86.0 0 0,1 -40.68145358897372,12.25698825130547" fill="none" id="id126" stroke="none" /><text fill="#e1ed5e" style="font-size:6.75px; font-family:Arial;" text-anchor="middle"><textPath startOffset="21.466115282336833" xlink:href="#id126">June</textPath></text><path d="M 103.7750983002368 120.6578951692458 l 0.14406403188831524 0.7883396488565646 a21.801394938368848,21.801394938368848 0 0,0 -0.36974234431638614,0.06428444594327333 l -0.13047271609987915 -0.7907026733208441" fill="#ff0801" stroke="none" /><path d="M 101.98527174616119 120.90594882070398 l 0.0542532275284078 0.5713148339818316 a21.57388505140397,21.57388505140397 0 0,0 -0.3699979661739977,0.03192498139174021 l -0.04441094361286841 -0.5721640676522353" fill="#ff0500" stroke="none" /><line stroke="#e1ed5e" stroke-width="0.3" x1="102.19456741930631" x2="102.32365962044197" y1="184.97166512339345" y2="189.96999836594603" /><path d="M 102.22038585953345 185.97133177190398 a86.0,86.0 0 0,1 -42.740103519485714,-10.115201625700543" fill="none" id="id127" stroke="none" /><text fill="#e1ed5e" style="font-size:6.75px; font-family:Arial;" text-anchor="middle"><textPath startOffset="22.20632615414155" xlink:href="#id127">July</textPath></text><path d="M 99.09653310690486 120.98055641714683 l -0.03501822342347062 0.813202805525506 a21.813956435496575,21.813956435496575 0 0,0 -0.3750046927772677,-0.01938345916034646 l 0.04901098461422728 -0.8124795396029576" fill="#ff0801" stroke="none" /><path d="M 98.37488393609728 120.93702456842531 l -0.065029103973783 0.8377961290297611 a21.84031609420556,21.84031609420556 0 0,0 -0.3745673306499519,-0.032319245385608535 l 0.07944075236527662 -0.8365526313654891" fill="#ff0901" stroke="none" /><path d="M 98.01472825383883 120.90594882070398 l -0.0884742787423967 0.931680384266688 a21.935871805551546,21.935871805551546 0 0,0 -0.3755916412530831,-0.038931609317446575 l 0.10449851660107311 -0.9300194064934807" fill="#ff0a01" stroke="none" /><path d="M 97.65516085044442 120.86867818915974 l -0.11131775532192498 0.9907094962113561 a21.996943804099946,21.996943804099946 0 0,0 -0.3759095194271963,-0.04551740774597059 l 0.12835469780051062 -0.9886465597400369" fill="#ff0b01" stroke="none" /><path d="M 97.2962882734958 120.8252237178851 l -0.1677843056550603 1.2923514246596302 a22.303197520732727,22.303197520732727 0 0,0 -0.3802922551089116,-0.05270504132717231 l 0.190005151950803 -1.289271817839853" fill="#ff0f01" stroke="none" /><path d="M 96.93821686468263 120.77559828337769 l -0.19146463503517075 1.2991750777776494 a22.31320774791642,22.31320774791642 0 0,0 -0.3794989321623006,-0.059269928414021525 l 0.21379943080598846 -1.2956868420165222" fill="#ff1001" stroke="none" /><path d="M 96.58105272829116 120.7198165907248 l -0.21224371681264245 1.286258761953257 a22.303652176781817,22.303652176781817 0 0,0 -0.3782604125090713,-0.06576542128378024 l 0.23435310079376367 -1.2824147621484705" fill="#ff0f01" stroke="none" /><path d="M 96.22490169976321 120.6578951692458 l -0.23732394098426216 1.2986716382187045 a22.320178274657614,22.320178274657614 0 0,0 -0.37735172076365336,-0.07232035538901709 l 0.2596432763196106 -1.2943940844812192" fill="#ff1001" stroke="none" /><path d="M 95.86986931433489 120.58985236759428 l -0.044637213740182355 0.22252894907200768 a21.226961701671403,21.226961701671403 0 0,0 -0.3576323951410827,-0.07494534559646175 l 0.04846107031065181 -0.22172762274900476" fill="#ff0000" stroke="none" /><path d="M 95.16358092515715 120.4354850818985 l -0.3028370880271416 1.2795877898205752 a22.31493544090296,22.31493544090296 0 0,0 -0.3730278470331572,-0.09168116907832213 l 0.32481821980350933 -1.2741853624282231" fill="#ff1001" stroke="none" /><path d="M 94.46302465271185 120.25689768951611 l -0.4132814784704443 1.5119808381390047 a22.56744621449868,22.56744621449868 0 0,0 -0.37383386445236233,-0.10564918421978016 l 0.4392465110274205 -1.5046428605807032" fill="#ff1302" stroke="none" /><path d="M 93.08242187328487 119.8279376855182 l -0.8156033173420816 2.3377736335071946 a23.47596331410238,23.47596331410238 0 0,0 -0.3804005291030084,-0.13639809573377967 l 0.8557234070748166 -2.3233879967334574" fill="#ff2003" stroke="none" /><path d="M 92.7421414339146 119.70592522655815 l -0.6009245061365234 1.6315795185190134 a22.73872424131205,22.73872424131205 0 0,0 -0.3661257051384593,-0.13843741355211736 l 0.6289204320352656 -1.620993854860263" fill="#ff1602" stroke="none" /><path d="M 91.7346041902142 119.30500536409082 l -0.532530414969965 1.2438003882845041 a22.353007039436516,22.353007039436516 0 0,0 -0.3524104042851122,-0.15448636485147013 l 0.5538614939128205 -1.2344494701385818" fill="#ff1001" stroke="none" /><path d="M 91.40352486487194 119.15986991738527 l -0.553938067419844 1.234620137581996 a22.353194097925282,22.353194097925282 0 0,0 -0.3497018884757754,-0.1605309852047233 l 0.5751079516630389 -1.2249020820431984" fill="#ff1001" stroke="none" /><path d="M 90.7491055286396 118.85261126421891 l -0.7816544410891749 1.5929516185084618 a22.774395255906406,22.774395255906406 0 0,0 -0.3504503253254492,-0.17572306834759344 l 0.8089586740973845 -1.5792607092515663" fill="#ff1602" stroke="none" /><path d="M 90.42595943632237 118.69057910512821 l -0.6169184022467901 1.2043569401980636 a22.35316811757962,22.35316811757962 0 0,0 -0.3409487193054972,-0.17836825570901182 l 0.6375580240787829 -1.193559265544335" fill="#ff1001" stroke="none" /><path d="M 90.10565033884886 118.52300852407294 l -0.6381370180278024 1.194643188209327 a22.354396987929448,22.354396987929448 0 0,0 -0.3378464599238657,-0.18422082728735828 l 0.6586062898203087 -1.1834817091622027" fill="#ff1001" stroke="none" /><line stroke="#e1ed5e" stroke-width="0.3" x1="58.666819895761336" x2="56.23545636021788" y1="174.27360380694188" y2="178.64263932499728" /><path d="M 58.180547188652646 175.14741091055294 a86.0,86.0 0 0,1 -31.652253787137756,-30.449443065178592" fill="none" id="id128" stroke="none" /><text fill="#e1ed5e" style="font-size:6.75px; font-family:Arial;" text-anchor="middle"><textPath startOffset="22.20632615414155" xlink:href="#id128">August</textPath></text><path d="M 89.4739219176387 118.17145234162733 l -0.67807431359324 1.170577966183693 a22.352788804532953,22.352788804532953 0 0,0 -0.3312812403851303,-0.19572679612351482 l 0.6981234250067524 -1.1587325977664287" fill="#ff1001" stroke="none" /><path d="M 88.8546689885994 117.79835938074946 l -1.1307231570545717 1.805690390783991 a23.130505255865167,23.130505255865167 0 0,0 -0.33563266091959043,-0.214216644108616 l 1.1616376200210856 -1.7859593178515707" fill="#ff1b02" stroke="none" /><path d="M 88.24862548938628 117.40417183066458 l -1.1049241380994568 1.6364289591794834 a22.974527054612338,22.974527054612338 0 0,0 -0.3258478434410205,-0.22412111795800055 l 1.1329288661633676 -1.6171670518563817" fill="#ff1902" stroke="none" /><path d="M 87.95078237400918 117.19931262002967 l -0.8364698443395977 1.1939950623010902 a22.457842930253083,22.457842930253083 0 0,0 -0.31470140237312183,-0.2245310947527556 l 0.8568985745616065 -1.1794197057041154" fill="#ff1202" stroke="none" /><path d="M 87.07902340077011 116.55440617244103 l -0.4447815646200617 0.5698558945748099 a21.722887529846467,21.722887529846467 0 0,0 -0.2927857405650752,-0.23260669977825385 l 0.45452479790249506 -0.5621152807914254" fill="#ff0701" stroke="none" /><path d="M 85.70375840098266 115.38237550388516 l -0.5383150371748053 0.5792126541691857 a21.790740398612733,21.790740398612733 0 0,0 -0.27255460213371097,-0.257717388317932 l 0.5482054736993333 -0.5698606291053229" fill="#ff0801" stroke="none" /><path d="M 85.44109423537348 115.13401014063109 l -0.1927160334552061 0.20032868209502477 a21.27797670841392,21.27797670841392 0 0,0 -0.2617698236174037,-0.25619686765421046 l 0.196135809448404 -0.19698171151824465" fill="#ff0100" stroke="none" /><path d="M 84.67929136418377 114.36230785411682 l -0.4176017874552432 0.39147833004541216 a21.57240417170122,21.57240417170122 0 0,0 -0.2516303757155302,-0.27309507523642945 l 0.4242785711665024 -0.3842320000076386" fill="#ff0500" stroke="none" /><path d="M 84.19399662182784 113.82643327865904 l -0.30255964287636256 0.26466657098289814 a21.401983496294708,21.401983496294708 0 0,0 -0.2401684629021153,-0.27937018093815996 l 0.30707061534925656 -0.25941929088320786" fill="#ff0300" stroke="none" /><path d="M 83.72743513129214 113.27417163493432 l -1.0475921212250887 0.8545621254389858 a22.35193405116066,22.35193405116066 0 0,0 -0.24063675809040252,-0.30023135531079786 l 1.0621467913703522 -0.8364029365499284" fill="#ff1001" stroke="none" /><path d="M 83.50135304334701 112.99209946851258 l -1.0626489131585433 0.8367983396538693 a22.352573167663955,22.352573167663955 0 0,0 -0.23543984772959964,-0.3043377408013697 l 1.0768955781062115 -0.818382604739247" fill="#ff1001" stroke="none" /><path d="M 83.28015986056508 112.70617746262583 l -0.49868067274602906 0.3789704370526854 a21.62633936929618,21.62633936929618 0 0,0 -0.2226882014875628,-0.2983272370783761 l 0.5051301409286769 -0.37033032046500125" fill="#ff0600" stroke="none" /><path d="M 82.44556493220864 111.52570212397912 l -0.6662861186546792 0.4374629717960063 a21.79706401474694,21.79706401474694 0 0,0 -0.2032266250831742,-0.3154122352005273 l 0.6737176071148991 -0.4259291366740307" fill="#ff0801" stroke="none" /><line stroke="#e1ed5e" stroke-width="0.3" x1="26.63291911575756" x2="22.317208475507996" y1="142.92168965132927" y2="145.44649492493687" /><path d="M 25.769776987707644 143.4266507060508 a86.0,86.0 0 0,1 -11.730757126820373,-40.83630448921669" fill="none" id="id129" stroke="none" /><text fill="#e1ed5e" style="font-size:6.75px; font-family:Arial;" text-anchor="middle"><textPath startOffset="21.46611528233685" xlink:href="#id129">September</textPath></text><path d="M 81.69416730710424 110.29060199501025 l -3.0067959224935525 1.6902667383499521 a24.449322160410077,24.449322160410077 0 0,0 -0.20307326465215855,-0.36863696196072726 l 3.0354455965972273 -1.6382592579914022" fill="#ff2e04" stroke="none" /><path d="M 81.51974371655577 109.97397251340807 l -0.4709508020480086 0.25417668904312823 a21.53516394422886,21.53516394422886 0 0,0 -0.1732529492068255,-0.32772928782067523 l 0.47525625947972017 -0.24603238613632683" fill="#ff0400" stroke="none" /><path d="M 81.18737489456691 109.33194174019688 l -0.7101125742452343 0.3522490420501687 a21.79267853239914,21.79267853239914 0 0,0 -0.16380492076102524,-0.3374866541825929 l 0.7160707516209786 -0.3399734319022911" fill="#ff0801" stroke="none" /><path d="M 80.58989483394504 108.01547362559985 l -0.41662275373806096 0.1720458836179988 a21.45074860510287,21.45074860510287 0 0,0 -0.13799714565578014,-0.3424975984540978 l 0.41952251365122895 -0.16484891732109566" fill="#ff0300" stroke="none" /><path d="M 80.45479744820244 107.68017299344265 l -1.078768378162819 0.4238957228603411 a22.159063759067347,22.159063759067347 0 0,0 -0.1364425572809318,-0.35620846219536156 l 1.08590521503726 -0.4052636938318217" fill="#ff0d01" stroke="none" /><path d="M 80.20201598880116 107.00284435728193 l -0.502413104939457 0.17771106264959166 a21.532916644329067,21.532916644329067 0 0,0 -0.12059373494801272,-0.35050184243497584 l 0.5053976708306982 -0.16903651712531892" fill="#ff0400" stroke="none" /><path d="M 79.67330655649465 105.27499134158121 l -0.8345528023261349 0.21657525453404616 a21.862196741322357,21.862196741322357 0 0,0 -0.09139302469254972,-0.3650697031808957 l 0.8381571413137432 -0.2021777119557586" fill="#ff0901" stroke="none" /><path d="M 79.50377843672027 104.57218783832718 l -0.7702850462968075 0.17183108163863886 a21.78921795035692,21.78921795035692 0 0,0 -0.07850962484078225,-0.36677083005621103 l 0.7731287098620305 -0.15854643216626402" fill="#ff0801" stroke="none" /><path d="M 79.10278846688536 102.07522291339032 l -0.688609789314807 0.0683832295474675 a21.69199689885398,21.69199689885398 0 0,0 -0.03370048363721623,-0.37188202872067705 l 0.6896848692290986 -0.05651981227822427" fill="#ff0701" stroke="none" /><line stroke="#e1ed5e" stroke-width="0.3" x1="15.007084014347285" x2="10.007500721073583" y1="101.09737516637583" y2="101.16192664675087" /><path d="M 14.007167355692545 101.11028546245083 a86.0,86.0 0 0,1 10.666146001902534,-42.60595125391555" fill="none" id="id130" stroke="none" /><text fill="#e1ed5e" style="font-size:6.75px; font-family:Arial;" text-anchor="middle"><textPath startOffset="22.20632615414155" xlink:href="#id130">October</textPath></text><path d="M 79.81627453868168 94.20196356495316 l -0.5155306247046627 -0.14809284594900862 a21.536379824405856,21.536379824405856 0 0,0 0.10541965921482543,-0.35542268395256177 l 0.5129050683781303 0.1569449166481096" fill="#ff0400" stroke="none" /><path d="M 81.10775173730289 90.83032412892265 l -0.5937886505851416 -0.2882054790980618 a21.6600358776202,21.6600358776202 0 0,0 0.16568894680045348,-0.3340188062731325 l 0.5887396908312753 0.2983838738701558" fill="#ff0601" stroke="none" /><line stroke="#e1ed5e" stroke-width="0.3" x1="26.266209847984243" x2="21.928928074336255" y1="57.711370442889674" y2="55.22380399835377" /><path d="M 25.398753493254645 57.213857153982495 a86.0,86.0 0 0,1 29.58750427330803,-30.492523968695096" fill="none" id="id131" stroke="none" /><text fill="#e1ed5e" style="font-size:6.75px; font-family:Arial;" text-anchor="middle"><textPath startOffset="21.46611528233685" xlink:href="#id131">November</textPath></text><line stroke="#e1ed5e" stroke-width="0.3" x1="56.762969772571076" x2="54.21961505331055" y1="26.818313649435495" y2="22.513508569990535" /><path d="M 56.25429882871897 25.957352633546506 a86.0,86.0 0 0,1 42.265352541879196,-11.944610805530505" fill="none" id="id132" stroke="none" /><text fill="#e1ed5e" style="font-size:6.75px; font-family:Arial;" text-anchor="middle"><textPath startOffset="22.20632615414155" xlink:href="#id132">December</textPath></text><path d="M 99.27714615592234 79.0124445844662 l -0.022612899820629702 -0.656549718839693 a21.65693902041725,21.65693902041725 0 0,0 0.372678139294643,-0.009625176830371255 l 0.011308125331107694 0.6568416878124239" fill="#ff0601" stroke="none" /><path d="M 99.63851952072746 79.00311137660856 l -0.025380136092249612 -1.4742259162871574 a22.4744443711313,22.4744443711313 0 0,0 0.386860615364785,-0.003329831452699784 l 3.611347159253553e-16 1.4744443711312982" fill="#ff1202" stroke="none" /></svg>