<?xml version="1.0" encoding="utf-8" ?>
<svg baseProfile="full" height="200mm" version="1.1" viewBox="0,0,200,200" width="200mm" xmlns="http://www.w3.org/2000/svg" xmlns:ev="http://www.w3.org/2001/xml-events" xmlns:xlink="http://www.w3.org/1999/xlink"><defs /><rect fill="#1a1a1a" height="200" width="200" x="0" y="0" /><rect fill="#1a1a1a" height="200" width="180" x="10" y="0" /><text alignment-baseline="middle" fill="#e1ed5e" style="dominant-baseline: central; font-size:9.0px; font-family:Arial;" text-anchor="middle" x="100.0" y="100.0">2017</text><line stroke="#e1ed5e" stroke-width="0.3" x1="100.0" x2="100.0" y1="15.0" y2="10.0" /><path d="M 100.0 14.0 a86.0,86.0 0 0,1 42.46469731375804,11.215312516191453" fill="none" id="id49" stroke="none" /><text fill="#e1ed5e" style="font-size:6.75px; font-family:Arial;" text-anchor="middle"><textPath startOffset="22.20632615414155" xlink:href="#id49">January</textPath></text><line stroke="#e1ed5e" stroke-width="0.3" x1="143.23703022742887" x2="145.7803849466894" y1="26.81831364943548" y2="22.513508569990506" /><path d="M 143.74570117128098 25.957352633546492 a86.0,86.0 0 0,1 28.547481713284135,27.462654790039103" fill="none" id="id50" stroke="none" /><text fill="#e1ed5e" style="font-size:6.75px; font-family:Arial;" text-anchor="middle"><textPath startOffset="19.985693538727396" xlink:href="#id50">February</textPath></text><path d="M 111.60114157652 82.49532879139004 l 3.9383031771273735 -5.942406769258496 a28.1289852101334,28.1289852101334 0 0,0 0.4013005676220848,0.27095993462556556 l -4.040008439156001 5.87373492233426" fill="#ff2403" stroke="none" /><path d="M 117.2510076193507 88.02491185347247 l 6.74861615270826 -4.684669735181688 a29.215226746981614,29.215226746981614 0 0,0 0.2832145426488521,0.41558239449817336 l -6.828255161025846 4.567809317413108" fill="#ff3404" stroke="none" /><path d="M 117.45458315368197 88.32363383020206 l 10.121187150308081 -6.770639332920512 a33.17702698970696,33.17702698970696 0 0,0 0.3134492277894665,0.47740467843879103 l -10.236233013455474 6.595416590504047" fill="#ff6f0a" stroke="none" /><path d="M 117.65298651832404 88.62581576622439 l 5.994718531953122 -3.8625211060625175 a28.131319623472265,28.131319623472265 0 0,0 0.2587711729733074,0.4093138516121649 l -6.060317301172385 3.7587596067361466" fill="#ff2403" stroke="none" /><line stroke="#e1ed5e" stroke-width="0.3" x1="172.23445277983987" x2="176.4835382374775" y1="55.19839476539836" y2="52.563006222186495" /><path d="M 173.08426987136738 54.67131705675599 a86.0,86.0 0 0,1 12.851231095245387,41.99856678651699" fill="none" id="id51" stroke="none" /><text fill="#e1ed5e" style="font-size:6.75px; font-family:Arial;" text-anchor="middle"><textPath startOffset="22.20632615414155" xlink:href="#id51">March</textPath></text><path d="M 118.21658344932153 89.55222093294921 l 54.17681814194239 -31.072095822879717 a83.4548057623376,83.4548057623376 0 0,0 0.7039705303915399,1.2522850224238742 l -54.703646313626365 30.13492729052105" fill="#4cd7ff" stroke="none" /><path d="M 118.56541770881063 90.18545643968196 l 53.22710092599209 -28.13832195004575 a81.20705469585914,81.20705469585914 0 0,0 0.6426593548239175,1.2414133191555687 l -53.70356971397612 27.217935908629837" fill="#49edff" stroke="none" /><path d="M 118.73160827565052 90.50648371742162 l 7.313045245470212 -3.70638298065161 a29.198652667454475,29.198652667454475 0 0,0 0.22335577077513438,0.4502716045287949 l -7.375761029198754 3.5799517876238656" fill="#ff3404" stroke="none" /><path d="M 119.04729006885535 91.15688171328212 l 10.974117596139948 -5.094972546971328 a33.09917361923119,33.09917361923119 0 0,0 0.23547332614957373,0.5188342609983958 l -11.060193239252868 4.905316277130869" fill="#ff6d0a" stroke="none" /><line stroke="#e1ed5e" stroke-width="0.3" x1="184.98032266829074" x2="189.97916517819016" y1="98.17113171792111" y2="98.06355123074" /><path d="M 185.9800911702706 98.14961562048488 a86.0,86.0 0 0,1 -9.607161424134198,41.387399972396054" fill="none" id="id52" stroke="none" /><text fill="#e1ed5e" style="font-size:6.75px; font-family:Arial;" text-anchor="middle"><textPath startOffset="21.466115282336823" xlink:href="#id52">April</textPath></text><path d="M 120.99980553446 99.90962569577887 l 62.99941660337998 -0.27112291266339017 a84.0,84.0 0 0,0 -0.006222810841987947,1.4459620871852612 l -62.994749495248485 -0.8133486527255557" fill="#4dd2ff" stroke="none" /><path d="M 120.9904718944345 100.63252640178507 l 58.02056639584211 1.748390425735233 a79.04690339695242,79.04690339695242 0 0,0 -0.052689907251157846,1.3596923838126218 l -57.981874355739755 -2.746860056561861" fill="#46fffb" stroke="none" /><path d="M 120.64145759157962 103.86396538481128 l 11.69270788644207 2.1888095027917327 a32.895810386735995,32.895810386735995 0 0,0 -0.10897922540119369,0.555682722460491 l -11.653298728065213 -2.3897559523201686" fill="#ff6a09" stroke="none" /><path d="M 120.5718875245553 104.21870165774334 l 6.897536384825419 1.4144860624128368 a28.041077971500577,28.041077971500577 0 0,0 -0.1010359580912588,0.47200635959995896 l -6.872166388009718 -1.5330062414289647" fill="#ff2203" stroke="none" /><path d="M 120.49622156327973 104.57218783832717 l 13.709723459672906 3.05829202107409 a35.04669596121704,35.04669596121704 0 0,0 -0.1364141473273267,0.5876685763961897 l -13.655048746415028 -3.2938292548188444" fill="#ff890c" stroke="none" /><path d="M 120.32669344350535 105.2749913415812 l 13.566865962046817 3.5207448117960256 a35.01625827608542,35.01625827608542 0 0,0 -0.15642583562822557,0.5821187262118175 l -13.504252050076813 -3.7537544711833912" fill="#ff890c" stroke="none" /><path d="M 119.9155931802556 106.66101706037122 l 16.09934320862404 5.384624942014405 a37.975954686415506,37.975954686415506 0 0,0 -0.21268192737175468,0.6181532351457442 l -16.004270450309054 -5.66095088024945" fill="#ffb210" stroke="none" /><path d="M 119.67450827220406 107.3425965602758 l 17.690586701514352 6.602189964122967 a39.88241960571162,39.88241960571162 0 0,0 -0.24557261898431385,0.6411126169790486 l -17.574319802936532 -6.90572614793516" fill="#ffcc13" stroke="none" /><line stroke="#e1ed5e" stroke-width="0.3" x1="174.80103733775053" x2="179.2010983576182" y1="140.37084112569926" y2="142.7455964860345" /><path d="M 175.68104954172406 140.8457921977663 a86.0,86.0 0 0,1 -30.038265399797805,32.042727171017184" fill="none" id="id53" stroke="none" /><text fill="#e1ed5e" style="font-size:6.75px; font-family:Arial;" text-anchor="middle"><textPath startOffset="22.206326154141568" xlink:href="#id53">May</textPath></text><path d="M 117.14729908036423 112.12312394758627 l 5.534499090667973 3.9128855308066472 a27.778005116684454,27.778005116684454 0 0,0 -0.27939409562560275,0.38805396232579753 l -5.466325202666768 -4.007573098583576" fill="#ff1e03" stroke="none" /><line stroke="#e1ed5e" stroke-width="0.3" x1="143.8653032363475" x2="146.44561519142675" y1="172.8068346515853" y2="177.08958963109032" /><path d="M 144.38136562736335 173.6633856474863 a86.0,86.0 0 0,1 -40.68145358897372,12.25698825130547" fill="none" id="id54" stroke="none" /><text fill="#e1ed5e" style="font-size:6.75px; font-family:Arial;" text-anchor="middle"><textPath startOffset="21.466115282336833" xlink:href="#id54">June</textPath></text><path d="M 105.18746579009965 120.34920634021253 l 2.304309330945675 9.039262704456275 a30.328349893355067,30.328349893355067 0 0,0 -0.506984171867661,0.12460437458145235 l -2.148371874334803 -9.077588337351758" fill="#ff4506" stroke="none" /><line stroke="#e1ed5e" stroke-width="0.3" x1="102.19456741930631" x2="102.32365962044197" y1="184.97166512339345" y2="189.96999836594603" /><path d="M 102.22038585953345 185.97133177190398 a86.0,86.0 0 0,1 -42.740103519485714,-10.115201625700543" fill="none" id="id55" stroke="none" /><text fill="#e1ed5e" style="font-size:6.75px; font-family:Arial;" text-anchor="middle"><textPath startOffset="22.20632615414155" xlink:href="#id55">July</textPath></text><path d="M 94.81253420990036 120.34920634021253 l -9.614911561146805 37.717033175251686 a59.92327216295812,59.92327216295812 0 0,0 -0.9973217294743859,-0.2634017332703291 l 10.26272373343268 -37.545940092677775" fill="#41ff2d" stroke="none" /><path d="M 94.46302465271185 120.25689768951611 l -6.039641597917197 22.095890672562774 a43.90645444509338,43.90645444509338 0 0,0 -0.7273184295467913,-0.20554745317735107 l 6.419091195568602 -21.9886544260469" fill="#fcff18" stroke="none" /><path d="M 94.11515582081647 120.15858648285463 l -5.907837667036395 20.23735088158993 a42.082052001753596,42.082052001753596 0 0,0 -0.6936024440339936,-0.20897672667983502 l 6.2553150855106345 -20.13265878580437" fill="#ffea16" stroke="none" /><path d="M 93.76903079525671 120.05430185196036 l -14.21480798169409 45.750194017255325 a68.9076300663364,68.9076300663364 0 0,0 -1.1296869615337795,-0.3616900907446798 l 15.00021628831881 -45.49873107985094" fill="#39ff8a" stroke="none" /><path d="M 93.42475214034765 119.94407469862007 l -14.810269678341633 44.922584072316724 a68.30097935222452,68.30097935222452 0 0,0 -1.1134044048712401,-0.3777272254238251 l 15.5813438161501 -44.660993859994775" fill="#38ff83" stroke="none" /><line stroke="#e1ed5e" stroke-width="0.3" x1="58.666819895761336" x2="56.23545636021788" y1="174.27360380694188" y2="178.64263932499728" /><path d="M 58.180547188652646 175.14741091055294 a86.0,86.0 0 0,1 -31.652253787137756,-30.449443065178592" fill="none" id="id56" stroke="none" /><text fill="#e1ed5e" style="font-size:6.75px; font-family:Arial;" text-anchor="middle"><textPath startOffset="22.20632615414155" xlink:href="#id56">August</textPath></text><line stroke="#e1ed5e" stroke-width="0.3" x1="26.63291911575756" x2="22.317208475507996" y1="142.92168965132927" y2="145.44649492493687" /><path d="M 25.769776987707644 143.4266507060508 a86.0,86.0 0 0,1 -11.730757126820373,-40.83630448921669" fill="none" id="id57" stroke="none" /><text fill="#e1ed5e" style="font-size:6.75px; font-family:Arial;" text-anchor="middle"><textPath startOffset="21.46611528233685" xlink:href="#id57">September</textPath></text><path d="M 79.76711848015287 105.62410040840567 l -15.569034728349399 4.327698676449007 a37.15932604432153,37.15932604432153 0 0,0 -0.16599942181242797,-0.6177456018647135 l 15.641222226503602 -4.059062141408754" fill="#ffa70f" stroke="none" /><path d="M 79.50377843672027 104.57218783832718 l -13.842803664569315 3.0879788437145956 a35.18304715620175,35.18304715620175 0 0,0 -0.12676948017511128,-0.5922248076450837 l 13.893907183468867 -2.849240216653348" fill="#ff8b0c" stroke="none" /><line stroke="#e1ed5e" stroke-width="0.3" x1="15.007084014347285" x2="10.007500721073583" y1="101.09737516637583" y2="101.16192664675087" /><path d="M 14.007167355692545 101.11028546245083 a86.0,86.0 0 0,1 10.666146001902534,-42.60595125391555" fill="none" id="id58" stroke="none" /><text fill="#e1ed5e" style="font-size:6.75px; font-family:Arial;" text-anchor="middle"><textPath startOffset="22.20632615414155" xlink:href="#id58">October</textPath></text><path d="M 79.16333360222342 97.38593545837743 l -4.785583433549251 -0.6003754979708433 a25.823096467833167,25.823096467833167 0 0,0 0.05912751404233034,-0.4405686578818812 l 4.774539920449087 0.6826624979173839" fill="#ff0000" stroke="none" /><path d="M 80.95270993114464 91.15688171328213 l -17.901430015913753 -8.311127859126492 a40.73666747212929,40.73666747212929 0 0,0 0.3007565000831855,-0.6334698916454023 l 17.755715321988816 8.618040166412426" fill="#ffd814" stroke="none" /><path d="M 81.6062741919709 89.86733742301443 l -8.386305461482449 -4.619814625682846 a30.574591712912017,30.574591712912017 0 0,0 0.2579073948831494,-0.45878847741665985 l 8.305540425306868 4.76348661303429" fill="#ff4806" stroke="none" /><line stroke="#e1ed5e" stroke-width="0.3" x1="26.266209847984243" x2="21.928928074336255" y1="57.711370442889674" y2="55.22380399835377" /><path d="M 25.398753493254645 57.213857153982495 a86.0,86.0 0 0,1 29.58750427330803,-30.492523968695096" fill="none" id="id59" stroke="none" /><text fill="#e1ed5e" style="font-size:6.75px; font-family:Arial;" text-anchor="middle"><textPath startOffset="21.46611528233685" xlink:href="#id59">November</textPath></text><line stroke="#e1ed5e" stroke-width="0.3" x1="56.762969772571076" x2="54.21961505331055" y1="26.818313649435495" y2="22.513508569990535" /><path d="M 56.25429882871897 25.957352633546506 a86.0,86.0 0 0,1 42.265352541879196,-11.944610805530505" fill="none" id="id60" stroke="none" /><text fill="#e1ed5e" style="font-size:6.75px; font-family:Arial;" text-anchor="middle"><textPath startOffset="22.20632615414155" xlink:href="#id60">December</textPath></text><path d="M 92.57280143429618 80.3572730644239 l -2.653316396742615 -7.01723119340934 a28.50210780534246,28.50210780534246 0 0,0 0.4604008914432269,-0.16956953380149523 l 2.5321331795268187 7.061863995017157" fill="#ff2904" stroke="none" /><path d="M 92.91201910852362 80.23233633223022 l -7.918383217563331 -22.08357198388283 a44.46028440465979,44.46028440465979 0 0,0 0.7226235796083261,-0.2521091778394187 l 7.5370776338917205 22.21660201489446" fill="#f5ff19" stroke="none" /></svg>