<?xml version="1.0" encoding="utf-8" ?>
<svg baseProfile="full" height="200mm" version="1.1" viewBox="0,0,200,200" width="200mm" xmlns="http://www.w3.org/2000/svg" xmlns:ev="http://www.w3.org/2001/xml-events" xmlns:xlink="http://www.w3.org/1999/xlink"><defs /><rect fill="#1a1a1a" height="200" width="200" x="0" y="0" /><text alignment-baseline="middle" fill="#e1ed5e" style="dominant-baseline: central; font-size:9.0px; font-family:Arial;" text-anchor="middle" x="100.0" y="100.0">2014</text><line stroke="#e1ed5e" stroke-width="0.3" x1="100.0" x2="100.0" y1="15.0" y2="10.0" /><path d="M 100.0 14.0 a86.0,86.0 0 0,1 42.46469731375804,11.215312516191453" fill="none" id="id13" stroke="none" /><text fill="#e1ed5e" style="font-size:6.75px; font-family:Arial;" text-anchor="middle"><textPath startOffset="22.20632615414155" xlink:href="#id13">January</textPath></text><line stroke="#e1ed5e" stroke-width="0.3" x1="143.23703022742887" x2="145.7803849466894" y1="26.81831364943548" y2="22.513508569990506" /><path d="M 143.74570117128098 25.957352633546492 a86.0,86.0 0 0,1 28.547481713284135,27.462654790039103" fill="none" id="id14" stroke="none" /><text fill="#e1ed5e" style="font-size:6.75px; font-family:Arial;" text-anchor="middle"><textPath startOffset="19.985693538727396" xlink:href="#id14">February</textPath></text><path d="M 117.04232023915458 87.72973835380427 l 15.445133959151793 -11.120307104893183 a40.03190461102834,40.03190461102834 0 0,0 0.39781682369220783,0.5626836848771933 l -15.634263402647884 10.852796919684195" fill="#ff940d" stroke="none" /><line stroke="#e1ed5e" stroke-width="0.3" x1="172.23445277983987" x2="176.4835382374775" y1="55.19839476539836" y2="52.563006222186495" /><path d="M 173.08426987136738 54.67131705675599 a86.0,86.0 0 0,1 12.851231095245387,41.99856678651699" fill="none" id="id15" stroke="none" /><text fill="#e1ed5e" style="font-size:6.75px; font-family:Arial;" text-anchor="middle"><textPath startOffset="22.20632615414155" xlink:href="#id15">March</textPath></text><line stroke="#e1ed5e" stroke-width="0.3" x1="184.98032266829074" x2="189.97916517819016" y1="98.17113171792111" y2="98.06355123074" /><path d="M 185.9800911702706 98.14961562048488 a86.0,86.0 0 0,1 -9.607161424134198,41.387399972396054" fill="none" id="id16" stroke="none" /><text fill="#e1ed5e" style="font-size:6.75px; font-family:Arial;" text-anchor="middle"><textPath startOffset="21.466115282336823" xlink:href="#id16">April</textPath></text><path d="M 120.9764740272857 100.99374915477107 l 37.707462748429045 1.7863707306609473 a58.749753208617484,58.749753208617484 0 0,0 -0.056549852228725876,1.0097355995858937 l -37.67112654531279 -2.4351780465822643" fill="#68ff28" stroke="none" /><path d="M 120.76222939487914 103.15116336523771 l 24.90225729510907 3.779511313916288 a46.18743980963198,46.18743980963198 0 0,0 -0.12606585811579485,0.7850122188263133 l -24.833509682631984 -4.207602762435806" fill="#fff016" stroke="none" /><path d="M 120.41448212921028 104.9243191809786 l 61.24344638763086 14.772957542935806 a84.0,84.0 0 0,0 -0.35115474281975656,1.4026886424104164 l -60.980080330516046 -15.82497402474362" fill="#4dd2ff" stroke="none" /><line stroke="#e1ed5e" stroke-width="0.3" x1="174.80103733775053" x2="179.2010983576182" y1="140.37084112569926" y2="142.7455964860345" /><path d="M 175.68104954172406 140.8457921977663 a86.0,86.0 0 0,1 -30.038265399797805,32.042727171017184" fill="none" id="id17" stroke="none" /><text fill="#e1ed5e" style="font-size:6.75px; font-family:Arial;" text-anchor="middle"><textPath startOffset="22.206326154141568" xlink:href="#id17">May</textPath></text><path d="M 113.48314897796784 116.09983520530334 l 12.17919563507303 14.542822524488557 a39.96909310684498,39.96909310684498 0 0,0 -0.5312651343380433,0.4371950372140094 l -11.927060372190297 -14.750312680559745" fill="#ff930d" stroke="none" /><path d="M 112.92097659922987 116.55440617244103 l 19.439436716973287 24.905882980657978 a52.59421951749145,52.59421951749145 0 0,0 -0.7184652679464325,0.550888530530625 l -19.00784272053336 -25.236810853015974" fill="#b6ff1f" stroke="none" /><line stroke="#e1ed5e" stroke-width="0.3" x1="143.8653032363475" x2="146.44561519142675" y1="172.8068346515853" y2="177.08958963109032" /><path d="M 144.38136562736335 173.6633856474863 a86.0,86.0 0 0,1 -40.68145358897372,12.25698825130547" fill="none" id="id18" stroke="none" /><text fill="#e1ed5e" style="font-size:6.75px; font-family:Arial;" text-anchor="middle"><textPath startOffset="21.466115282336833" xlink:href="#id18">June</textPath></text><path d="M 106.91757812671514 119.82793768551818 l 8.37971888784971 24.01888939841183 a46.43868582636543,46.43868582636543 0 0,0 -0.7570175105230423,0.2568214411547881 l -7.96503164438944 -24.15957382646474" fill="#fff417" stroke="none" /><path d="M 106.57524785965236 119.94407469862006 l 4.897019245369474 14.853663270937513 a36.64008024454853,36.64008024454853 0 0,0 -0.6006855972549131,0.19232055921507174 l -4.64061230302362 -14.935756676812293" fill="#ff5f08" stroke="none" /><path d="M 103.7750983002368 120.6578951692458 l 3.816500402855315 20.884453586446693 a42.23031033521274,42.23031033521274 0 0,0 -0.7162080219495494,0.12452194502168652 l -3.4564434094337155 -20.947054109989388" fill="#ffb610" stroke="none" /><path d="M 100.90346689309514 120.98055641714683 l 0.8350087817057108 19.39080334573457 a40.4087736361285,40.4087736361285 0 0,0 -0.6951841680247184,0.023943548367080673 l -0.5011042620063401 -19.40230369252775" fill="#ff9a0e" stroke="none" /><line stroke="#e1ed5e" stroke-width="0.3" x1="102.19456741930631" x2="102.32365962044197" y1="184.97166512339345" y2="189.96999836594603" /><path d="M 102.22038585953345 185.97133177190398 a86.0,86.0 0 0,1 -42.740103519485714,-10.115201625700543" fill="none" id="id19" stroke="none" /><text fill="#e1ed5e" style="font-size:6.75px; font-family:Arial;" text-anchor="middle"><textPath startOffset="22.20632615414155" xlink:href="#id19">July</textPath></text><path d="M 98.37488393609728 120.93702456842531 l -2.4449654125878166 31.499473821806724 a52.59421951749145,52.59421951749145 0 0,0 -0.9020050958653932,-0.0778287951107696 l 2.9868148261947516 -31.45272077441729" fill="#b6ff1f" stroke="none" /><path d="M 98.01472825383883 120.90594882070398 l -1.7457724456479617 18.38389604439999 a39.4666010733781,39.4666010733781 0 0,0 -0.6757572985122603,-0.07004500699568347 l 2.0619623407658154 -18.351121668948544" fill="#ff8b0c" stroke="none" /><path d="M 91.40352486487194 119.15986991738527 l -4.062541801492549 9.054614970322696 a30.924227836444818,30.924227836444818 0 0,0 -0.48379040716438926,-0.2220844475081339 l 4.217800204424358 -8.983343452480486" fill="#ff0000" stroke="none" /><line stroke="#e1ed5e" stroke-width="0.3" x1="58.666819895761336" x2="56.23545636021788" y1="174.27360380694188" y2="178.64263932499728" /><path d="M 58.180547188652646 175.14741091055294 a86.0,86.0 0 0,1 -31.652253787137756,-30.449443065178592" fill="none" id="id20" stroke="none" /><text fill="#e1ed5e" style="font-size:6.75px; font-family:Arial;" text-anchor="middle"><textPath startOffset="22.20632615414155" xlink:href="#id20">August</textPath></text><line stroke="#e1ed5e" stroke-width="0.3" x1="26.63291911575756" x2="22.317208475507996" y1="142.92168965132927" y2="145.44649492493687" /><path d="M 25.769776987707644 143.4266507060508 a86.0,86.0 0 0,1 -11.730757126820373,-40.83630448921669" fill="none" id="id21" stroke="none" /><text fill="#e1ed5e" style="font-size:6.75px; font-family:Arial;" text-anchor="middle"><textPath startOffset="21.46611528233685" xlink:href="#id21">September</textPath></text><line stroke="#e1ed5e" stroke-width="0.3" x1="15.007084014347285" x2="10.007500721073583" y1="101.09737516637583" y2="101.16192664675087" /><path d="M 14.007167355692545 101.11028546245083 a86.0,86.0 0 0,1 10.666146001902534,-42.60595125391555" fill="none" id="id22" stroke="none" /><text fill="#e1ed5e" style="font-size:6.75px; font-family:Arial;" text-anchor="middle"><textPath startOffset="22.20632615414155" xlink:href="#id22">October</textPath></text><path d="M 79.00486145842228 99.54816195383935 l -21.099800189183227 -0.4540904778018295 a42.10468588217998,42.10468588217998 0 0,0 0.021830889749250633,-0.7244609496440482 l 21.088857604978333 0.817221574870872" fill="#ffb410" stroke="none" /><line stroke="#e1ed5e" stroke-width="0.3" x1="26.266209847984243" x2="21.928928074336255" y1="57.711370442889674" y2="55.22380399835377" /><path d="M 25.398753493254645 57.213857153982495 a86.0,86.0 0 0,1 29.58750427330803,-30.492523968695096" fill="none" id="id23" stroke="none" /><text fill="#e1ed5e" style="font-size:6.75px; font-family:Arial;" text-anchor="middle"><textPath startOffset="21.46611528233685" xlink:href="#id23">November</textPath></text><path d="M 83.84228863543731 86.58626213691792 l -14.498445283713307 -12.036255634848231 a39.843470098478264,39.843470098478264 0 0,0 0.44262184265800497,-0.5239246515911762 l 14.289112827568179 12.284039236068523" fill="#ff910d" stroke="none" /><line stroke="#e1ed5e" stroke-width="0.3" x1="56.762969772571076" x2="54.21961505331055" y1="26.818313649435495" y2="22.513508569990535" /><path d="M 56.25429882871897 25.957352633546506 a86.0,86.0 0 0,1 42.265352541879196,-11.944610805530505" fill="none" id="id24" stroke="none" /><text fill="#e1ed5e" style="font-size:6.75px; font-family:Arial;" text-anchor="middle"><textPath startOffset="22.20632615414155" xlink:href="#id24">December</textPath></text></svg>