<?xml version="1.0" encoding="utf-8" ?>
<svg baseProfile="full" height="200mm" version="1.1" viewBox="0,0,200,200" width="200mm" xmlns="http://www.w3.org/2000/svg" xmlns:ev="http://www.w3.org/2001/xml-events" xmlns:xlink="http://www.w3.org/1999/xlink"><defs /><rect fill="#1a1a1a" height="200" width="200" x="0" y="0" /><rect fill="#1a1a1a" height="200" width="180" x="10" y="0" /><text alignment-baseline="middle" fill="#e1ed5e" style="dominant-baseline: central; font-size:9.0px; font-family:Arial;" text-anchor="middle" x="100.0" y="100.0">2022</text><line stroke="#e1ed5e" stroke-width="0.3" x1="100.0" x2="100.0" y1="15.0" y2="10.0" /><path d="M 100.0 14.0 a86.0,86.0 0 0,1 42.46469731375804,11.215312516191453" fill="none" id="id1" stroke="none" /><text fill="#e1ed5e" style="font-size:6.75px; font-family:Arial;" text-anchor="middle"><textPath startOffset="22.20632615414155" xlink:href="#id1">January</textPath></text><line stroke="#e1ed5e" stroke-width="0.3" x1="143.23703022742887" x2="145.7803849466894" y1="26.81831364943548" y2="22.513508569990506" /><path d="M 143.74570117128098 25.957352633546492 a86.0,86.0 0 0,1 28.547481713284135,27.462654790039103" fill="none" id="id2" stroke="none" /><text fill="#e1ed5e" style="font-size:6.75px; font-family:Arial;" text-anchor="middle"><textPath startOffset="19.985693538727396" xlink:href="#id2">February</textPath></text><path d="M 115.9244219780498 86.31012108654704 l 29.633093574106056 -25.474925458500937 a60.0780253069152,60.0780253069152 0 0,0 0.6674078888931283,0.7900004291647943 l -30.0672120764863 24.961066079707038" fill="red" stroke="none" /><path d="M 117.2510076193507 88.02491185347247 l 22.615365126134723 -15.698850573086775 a48.53014073891555,48.53014073891555 0 0,0 0.47045473009982397,0.6903342653568681 l -22.88224432190328 15.3072382844595" fill="red" stroke="none" /><line stroke="#e1ed5e" stroke-width="0.3" x1="172.23445277983987" x2="176.4835382374775" y1="55.19839476539836" y2="52.563006222186495" /><path d="M 173.08426987136738 54.67131705675599 a86.0,86.0 0 0,1 12.851231095245387,41.99856678651699" fill="none" id="id3" stroke="none" /><text fill="#e1ed5e" style="font-size:6.75px; font-family:Arial;" text-anchor="middle"><textPath startOffset="22.20632615414155" xlink:href="#id3">March</textPath></text><path d="M 120.45610955862082 95.25157060432595 l 26.79319544312029 -6.219442483995484 a48.50557737741511,48.50557737741511 0 0,0 0.1817933905385502,0.814944123682641 l -26.896283220660877 5.757320190762878" fill="red" stroke="none" /><line stroke="#e1ed5e" stroke-width="0.3" x1="184.98032266829074" x2="189.97916517819016" y1="98.17113171792111" y2="98.06355123074" /><path d="M 185.9800911702706 98.14961562048488 a86.0,86.0 0 0,1 -9.607161424134198,41.387399972396054" fill="none" id="id4" stroke="none" /><text fill="#e1ed5e" style="font-size:6.75px; font-family:Arial;" text-anchor="middle"><textPath startOffset="21.466115282336823" xlink:href="#id4">April</textPath></text><line stroke="#e1ed5e" stroke-width="0.3" x1="174.80103733775053" x2="179.2010983576182" y1="140.37084112569926" y2="142.7455964860345" /><path d="M 175.68104954172406 140.8457921977663 a86.0,86.0 0 0,1 -30.038265399797805,32.042727171017184" fill="none" id="id5" stroke="none" /><text fill="#e1ed5e" style="font-size:6.75px; font-family:Arial;" text-anchor="middle"><textPath startOffset="22.206326154141568" xlink:href="#id5">May</textPath></text><path d="M 118.48025628344425 109.97397251340804 l 24.450091830407505 13.19595032268335 a48.78380995173424,48.78380995173424 0 0,0 -0.40519272821031743,0.7355424978856006 l -24.219322692745678 -13.614863338966755" fill="red" stroke="none" /><line stroke="#e1ed5e" stroke-width="0.3" x1="143.8653032363475" x2="146.44561519142675" y1="172.8068346515853" y2="177.08958963109032" /><path d="M 144.38136562736335 173.6633856474863 a86.0,86.0 0 0,1 -40.68145358897372,12.25698825130547" fill="none" id="id6" stroke="none" /><text fill="#e1ed5e" style="font-size:6.75px; font-family:Arial;" text-anchor="middle"><textPath startOffset="21.466115282336833" xlink:href="#id6">June</textPath></text><path d="M 100.90346689309514 120.98055641714683 l 1.5817853264952142 36.73265344417333 a57.76669517197397,57.76669517197397 0 0,0 -0.9938062531737294,0.03422869677539367 l -0.9492587216468324 -36.754438939374815" fill="red" stroke="none" /><line stroke="#e1ed5e" stroke-width="0.3" x1="102.19456741930631" x2="102.32365962044197" y1="184.97166512339345" y2="189.96999836594603" /><path d="M 102.22038585953345 185.97133177190398 a86.0,86.0 0 0,1 -42.740103519485714,-10.115201625700543" fill="none" id="id7" stroke="none" /><text fill="#e1ed5e" style="font-size:6.75px; font-family:Arial;" text-anchor="middle"><textPath startOffset="22.20632615414155" xlink:href="#id7">July</textPath></text><path d="M 100.18074693466247 120.99922214144158 l 0.13479352045782172 15.66034347750737 a36.66092357195657,36.66092357195657 0 0,0 -0.6310809102405436,0.0 l 0.13479352045781093 -15.66034347750737" fill="red" stroke="none" /><path d="M 95.16358092515715 120.4354850818985 l -2.290024418347641 9.676117622178369 a30.9434130998797,30.9434130998797 0 0,0 -0.5172658822641275,-0.12713136884413248 l 2.456243585354979 -9.635264995020206" fill="red" stroke="none" /><path d="M 91.7346041902142 119.30500536409082 l -5.086285914788585 11.879742861441732 a33.92279361674373,33.92279361674373 0 0,0 -0.5348159821121965,-0.23444760976505746 l 5.290022571558524 -11.790430698382222" fill="red" stroke="none" /><line stroke="#e1ed5e" stroke-width="0.3" x1="58.666819895761336" x2="56.23545636021788" y1="174.27360380694188" y2="178.64263932499728" /><path d="M 58.180547188652646 175.14741091055294 a86.0,86.0 0 0,1 -31.652253787137756,-30.449443065178592" fill="none" id="id8" stroke="none" /><text fill="#e1ed5e" style="font-size:6.75px; font-family:Arial;" text-anchor="middle"><textPath startOffset="22.20632615414155" xlink:href="#id8">August</textPath></text><path d="M 86.79598089348748 116.32954008644616 l -9.264535232842785 11.457541695950862 a35.734546983027265,35.734546983027265 0 0,0 -0.47497997647077045,-0.39087618416327474 l 9.460385337858243 -11.296370392930406" fill="red" stroke="none" /><path d="M 84.19399662182784 113.82643327865904 l -20.184664711442633 17.65670379839806 a47.81752931456815,47.81752931456815 0 0,0 -0.5365980455617547,-0.6241847546018087 l 20.485605266575167 -17.30664194463472" fill="red" stroke="none" /><path d="M 83.72743513129214 113.27417163493432 l -26.282434095164668 21.439615941181913 a54.917893119591845,54.917893119591845 0 0,0 -0.59123580676311,-0.7376575755981363 l 26.64758781398264 -20.984030532005516" fill="red" stroke="none" /><path d="M 83.50135304334701 112.99209946851258 l -17.260555252691606 13.592075235860403 a42.96978099227458,42.96978099227458 0 0,0 -0.4526010771963695,-0.5850479035154941 l 17.491963147106045 -13.292949338231654" fill="red" stroke="none" /><path d="M 83.06392112726016 112.41649034213515 l -27.750886932466912 20.345241786590545 a55.40989085849289,55.40989085849289 0 0,0 -0.5573185072178952,-0.7740666620715237 l 28.096985232060415 -19.86454151906788" fill="red" stroke="none" /><line stroke="#e1ed5e" stroke-width="0.3" x1="26.63291911575756" x2="22.317208475507996" y1="142.92168965132927" y2="145.44649492493687" /><path d="M 25.769776987707644 143.4266507060508 a86.0,86.0 0 0,1 -11.730757126820373,-40.83630448921669" fill="none" id="id9" stroke="none" /><text fill="#e1ed5e" style="font-size:6.75px; font-family:Arial;" text-anchor="middle"><textPath startOffset="21.46611528233685" xlink:href="#id9">September</textPath></text><path d="M 79.67330655649465 105.27499134158121 l -29.12598065234967 7.558499181542792 a51.09075703332222,51.09075703332222 0 0,0 -0.21358049579170726,-0.8531479121760953 l 29.25177246243644 -7.056023429969305" fill="red" stroke="none" /><line stroke="#e1ed5e" stroke-width="0.3" x1="15.007084014347285" x2="10.007500721073583" y1="101.09737516637583" y2="101.16192664675087" /><path d="M 14.007167355692545 101.11028546245083 a86.0,86.0 0 0,1 10.666146001902534,-42.60595125391555" fill="none" id="id10" stroke="none" /><text fill="#e1ed5e" style="font-size:6.75px; font-family:Arial;" text-anchor="middle"><textPath startOffset="22.20632615414155" xlink:href="#id10">October</textPath></text><path d="M 79.00175016825051 100.2711162175752 l -62.994749495248485 0.8133486527256131 a84.0,84.0 0 0,0 -0.006222810841987947,-1.4459620871852985 l 62.99941660337998 0.27112291266336075" fill="red" stroke="none" /><line stroke="#e1ed5e" stroke-width="0.3" x1="26.266209847984243" x2="21.928928074336255" y1="57.711370442889674" y2="55.22380399835377" /><path d="M 25.398753493254645 57.213857153982495 a86.0,86.0 0 0,1 29.58750427330803,-30.492523968695096" fill="none" id="id11" stroke="none" /><text fill="#e1ed5e" style="font-size:6.75px; font-family:Arial;" text-anchor="middle"><textPath startOffset="21.46611528233685" xlink:href="#id11">November</textPath></text><path d="M 81.78341655067845 89.55222093294921 l -7.998445988558872 -4.587358370502459 a30.22057455104141,30.22057455104141 0 0,0 0.26268921505909104,-0.44902102049614107 l 7.9182970990294566 4.724358803352492" fill="red" stroke="none" /><path d="M 83.17141714833178 87.43820079747576 l -13.235559795756771 -9.879765037423674 a37.51634948473034,37.51634948473034 0 0,0 0.3907489651081611,-0.5141798350034951 l 13.063534890424503 10.106129648308196" fill="red" stroke="none" /><path d="M 84.31358615837235 86.03803664274999 l -12.20329013154717 -10.861748987037636 a37.337009551693654,37.337009551693654 0 0,0 0.43143156229037793,-0.4763975067174418 l 12.014514928640748 11.070199281024633" fill="red" stroke="none" /><path d="M 84.80347519578584 85.50635884689758 l -6.679682444089677 -6.370727624151714 a30.23061904830925,30.23061904830925 0 0,0 0.362387006896984,-0.37347166532456505 l 6.5690311734895745 6.484763485026402" fill="red" stroke="none" /><line stroke="#e1ed5e" stroke-width="0.3" x1="56.762969772571076" x2="54.21961505331055" y1="26.818313649435495" y2="22.513508569990535" /><path d="M 56.25429882871897 25.957352633546506 a86.0,86.0 0 0,1 42.265352541879196,-11.944610805530505" fill="none" id="id12" stroke="none" /><text fill="#e1ed5e" style="font-size:6.75px; font-family:Arial;" text-anchor="middle"><textPath startOffset="22.20632615414155" xlink:href="#id12">December</textPath></text><path d="M 91.23893434514133 80.91482961587045 l -9.997390140178984 -21.778388810055162 a44.963431072717526,44.963431072717526 0 0,0 0.7061782658509002,-0.31684160328493205 l 9.62102975586131 21.94725074385662" fill="red" stroke="none" /><path d="M 91.56875222667455 80.76684994638697 l -5.043937491410701 -11.506103158332817 a33.56310930094357,33.56310930094357 0 0,0 0.5311222076077486,-0.22739881116070731 l 4.845131526012644 11.59122149745631" fill="red" stroke="none" /></svg>