<?xml version="1.0" encoding="utf-8" ?>
<svg baseProfile="full" height="200mm" version="1.1" viewBox="0,0,200,200" width="200mm" xmlns="http://www.w3.org/2000/svg" xmlns:ev="http://www.w3.org/2001/xml-events" xmlns:xlink="http://www.w3.org/1999/xlink"><defs /><rect fill="#1a1a1a" height="200" width="200" x="0" y="0" /><rect fill="#1a1a1a" height="200" width="180" x="10" y="0" /><text alignment-baseline="middle" fill="#e1ed5e" style="dominant-baseline: central; font-size:9.0px; font-family:Arial;" text-anchor="middle" x="100.0" y="100.0">2024</text><line stroke="#e1ed5e" stroke-width="0.3" x1="100.0" x2="100.0" y1="15.0" y2="10.0" /><path d="M 100.0 14.0 a86.0,86.0 0 0,1 42.35913384403234,11.155469271406648" fill="none" id="id133" stroke="none" /><text fill="#e1ed5e" style="font-size:6.75px; font-family:Arial;" text-anchor="middle"><textPath startOffset="22.145653131862478" xlink:href="#id133">January</textPath></text><line stroke="#e1ed5e" stroke-width="0.3" x1="143.13028292997686" x2="145.6673583964461" y1="26.7553504044142" y2="22.446841604673864" /><path d="M 143.63769802327073 25.89364864446614 a86.0,86.0 0 0,1 29.32050498858742,28.57503671076993" fill="none" id="id134" stroke="none" /><text fill="#e1ed5e" style="font-size:6.75px; font-family:Arial;" text-anchor="middle"><textPath startOffset="20.669276256404974" xlink:href="#id134">February</textPath></text><line stroke="#e1ed5e" stroke-width="0.3" x1="172.87174338648825" x2="177.1583165268699" y1="56.24261187166439" y2="53.66864786411523" /><path d="M 173.72905801456457 55.72781907015455 a86.0,86.0 0 0,1 12.242430191666344,42.057860355516425" fill="none" id="id135" stroke="none" /><text fill="#e1ed5e" style="font-size:6.75px; font-family:Arial;" text-anchor="middle"><textPath startOffset="22.145653131862474" xlink:href="#id135">March</textPath></text><path d="M 118.00360718960297 89.18935116829356 l 10.437249959661887 -6.267268714227883 a33.17435188651953,33.17435188651953 0 0,0 0.2889743385452647,0.4907416026745592 l -10.543298008336919 6.087175943259767" fill="red" stroke="none" /><path d="M 118.70294669586156 90.45014215332178 l 4.716570102150754 -2.4083143010506984 a26.29584849680839,26.29584849680839 0 0,0 0.2018270068041234,0.4037892121602397 l -4.757217022166613 2.326993232726708" fill="red" stroke="none" /><path d="M 119.31412917781788 91.75594674310238 l 9.585195608554885 -4.0913500343293965 a31.42185779780491,31.42185779780491 0 0,0 0.20749521872406265,0.49791298895564556 l -9.654016671815432 3.926204535932473" fill="red" stroke="none" /><line stroke="#e1ed5e" stroke-width="0.3" x1="184.99686870605535" x2="189.99668451229388" y1="99.2704041080226" y2="99.22748670261217" /><path d="M 185.99683186730306 99.26182062694052 a86.0,86.0 0 0,1 -10.086455211305974,41.156179273409016" fill="none" id="id136" stroke="none" /><text fill="#e1ed5e" style="font-size:6.75px; font-family:Arial;" text-anchor="middle"><textPath startOffset="21.40746469413373" xlink:href="#id136">April</textPath></text><line stroke="#e1ed5e" stroke-width="0.3" x1="174.33088141563837" x2="178.70328620479359" y1="141.23008692659167" y2="143.65538615756765" /><path d="M 175.20536237346943 141.71514677278685 a86.0,86.0 0 0,1 -30.301960400862466,31.631185727798858" fill="none" id="id137" stroke="none" /><text fill="#e1ed5e" style="font-size:6.75px; font-family:Arial;" text-anchor="middle"><textPath startOffset="22.145653131862474" xlink:href="#id137">May</textPath></text><path d="M 118.18653347947321 110.5 l 5.575963870728983 3.2192842417570042 a27.43856848351401,27.43856848351401 0 0,0 -0.239011215811408,0.40589329729052676 l -5.519878944787809 -3.3145287073410805" fill="red" stroke="none" /><path d="M 114.91283532996324 114.78537596483092 l 4.660335179149967 4.620503493887217 a27.562604400620742,27.562604400620742 0 0,0 -0.3360118775628713,0.3331399984303333 l -4.58033138145713 -4.699823502546212" fill="red" stroke="none" /><line stroke="#e1ed5e" stroke-width="0.3" x1="143.1302829299769" x2="145.66735839644613" y1="173.24464959558577" y2="177.55315839532614" /><path d="M 143.63769802327073 174.10635135553383 a86.0,86.0 0 0,1 -40.68552437913181,11.842963189579606" fill="none" id="id138" stroke="none" /><text fill="#e1ed5e" style="font-size:6.75px; font-family:Arial;" text-anchor="middle"><textPath startOffset="21.407464694133747" xlink:href="#id138">June</textPath></text><line stroke="#e1ed5e" stroke-width="0.3" x1="101.45913802915013" x2="101.54496967792366" y1="184.9874750549273" y2="189.98673829345242" /><path d="M 101.47630435890484 185.9873277026323 a86.0,86.0 0 0,1 -42.54439059252881,-10.42667462771756" fill="none" id="id139" stroke="none" /><text fill="#e1ed5e" style="font-size:6.75px; font-family:Arial;" text-anchor="middle"><textPath startOffset="22.145653131862474" xlink:href="#id139">July</textPath></text><path d="M 95.35216902796893 120.47920084513623 l -1.5880150575531522 6.997087352021316 a28.175027751502583,28.175027751502583 0 0,0 -0.47074815740421905,-0.11109528336661782 l 1.707895368697259 -6.968795925008471" fill="red" stroke="none" /><path d="M 94.6519064749342 120.30758222061772 l -1.9670870475960942 7.469349921975851 a28.724028722741842,28.724028722741842 0 0,0 -0.4757500680883641,-0.12966779662406333 l 2.0950185166191533 -7.434481631207643" fill="red" stroke="none" /><path d="M 93.27111125876986 119.89276391827306 l -2.296345823598496 6.788738393556223 a28.166601224967284,28.166601224967284 0 0,0 -0.45669357801004656,-0.15886173325240882 l 2.4125451736535646 -6.748318227735223" fill="red" stroke="none" /><line stroke="#e1ed5e" stroke-width="0.3" x1="58.13341422392154" x2="55.67067388415222" y1="173.97424548756322" y2="178.32567169271397" /><path d="M 57.64086615596768 174.84453072859336 a86.0,86.0 0 0,1 -31.369924170532247,-30.572349798747897" fill="none" id="id140" stroke="none" /><text fill="#e1ed5e" style="font-size:6.75px; font-family:Arial;" text-anchor="middle"><textPath startOffset="22.145653131862474" xlink:href="#id140">August</textPath></text><path d="M 89.65649057296885 118.27599006163327 l -2.058522754479901 3.6372124633253176 a25.1793337308811,25.1793337308811 0 0,0 -0.3743417926208468,-0.2161263347385746 l 2.120657014961148 -3.6013392313105714" fill="red" stroke="none" /><path d="M 88.72937992617639 117.7192867562869 l -2.8866300481968663 4.538261892272447 a26.378517829105462,26.378517829105462 0 0,0 -0.3799943163366208,-0.24630772488831476 l 2.964109996790497 -4.488040325680237" fill="red" stroke="none" /><path d="M 86.68645165197938 116.24036423190432 l -4.152516455871844 5.06539488643248 a27.549932692156673,27.549932692156673 0 0,0 -0.3631680219667291,-0.3029676804429349 l 4.2388588120004655 -4.993365022077675" fill="red" stroke="none" /><path d="M 85.08716467003676 114.78537596483092 l -44.73850598988974 44.35612789449277 a84.0,84.0 0 0,0 -1.0064527953967621,-1.0327092317290507 l 45.493345586437314 -43.581595970695986" fill="red" stroke="none" /><path d="M 84.83555147118756 114.52719865689866 l -11.590071858234571 11.10302666215649 a37.05013915016312,37.05013915016312 0 0,0 -0.4360345595344227,-0.4630535919145381 l 11.778962251505249 -10.90243161029746" fill="red" stroke="none" /><line stroke="#e1ed5e" stroke-width="0.3" x1="26.387840678322732" x2="22.057713659400548" y1="142.50000000000003" y2="145.00000000000006" /><path d="M 25.521815274538298 143.00000000000003 a86.0,86.0 0 0,1 -11.493303480769221,-40.785679425670985" fill="none" id="id141" stroke="none" /><text fill="#e1ed5e" style="font-size:6.75px; font-family:Arial;" text-anchor="middle"><textPath startOffset="21.40746469413373" xlink:href="#id141">September</textPath></text><path d="M 79.03789590574601 101.26102812881392 l -14.566558825107496 0.8762880069619695 a35.59289267679518,35.59289267679518 0 0,0 -0.0314546435582911,-0.6102116818552886 l 14.579455058122358 -0.6261045317299501" fill="red" stroke="none" /><line stroke="#e1ed5e" stroke-width="0.3" x1="15.003131293944662" x2="10.003315487706104" y1="100.72959589197737" y2="100.7725132973878" /><path d="M 14.003168132696942 100.73817937305945 a86.0,86.0 0 0,1 10.791469493833604,-42.45332614584628" fill="none" id="id142" stroke="none" /><text fill="#e1ed5e" style="font-size:6.75px; font-family:Arial;" text-anchor="middle"><textPath startOffset="22.145653131862435" xlink:href="#id142">October</textPath></text><path d="M 79.00077361379809 99.81974689727619 l -4.36685458285753 -0.03748419457113836 a25.367015458258244,25.367015458258244 0 0,0 0.007475500490529874,-0.43541042640904315 l 4.365567650768335 0.1124415369492339" fill="red" stroke="none" /><path d="M 79.00696218219943 99.45929381324524 l -22.67509347673687 -0.5840299738667686 a43.68261349997239,43.68261349997239 0 0,0 0.025742191183703036,-0.7494558091193354 l 22.661726598556314 0.9731920475502426" fill="red" stroke="none" /><path d="M 79.01933749520258 99.09900007780938 l -12.584653702655743 -0.5404391784242295 a33.596252749184686,33.596252749184686 0 0,0 0.029690145297152228,-0.575980886978651 l 12.573521967902021 0.7563918587795926" fill="red" stroke="none" /><path d="M 81.29705330413844 90.45014215332179 l -14.827331535892084 -7.570941131146479 a37.64839061550832,37.64839061550832 0 0,0 0.29884204436594436,-0.5730690238722393 l 14.6951814225512 7.8243563981232045" fill="red" stroke="none" /><line stroke="#e1ed5e" stroke-width="0.3" x1="26.387840678322718" x2="22.05771365940052" y1="57.49999999999999" y2="54.99999999999999" /><path d="M 25.521815274538284 56.99999999999999 a86.0,86.0 0 0,1 29.574782752854787,-30.34633250058573" fill="none" id="id143" stroke="none" /><text fill="#e1ed5e" style="font-size:6.75px; font-family:Arial;" text-anchor="middle"><textPath startOffset="21.40746469413373" xlink:href="#id143">November</textPath></text><path d="M 82.37810715431573 88.57770195909679 l -8.574598587278274 -5.557951208912652 a31.21834441451296,31.21834441451296 0 0,0 0.295348671072347,-0.447195531658423 l 8.477925477285199 5.704326618910136" fill="red" stroke="none" /><path d="M 83.42222388311158 87.10902102172516 l -4.339127807528958 -3.374132028114429 a26.49661687524414,26.49661687524414 0 0,0 0.2822944128295906,-0.35666976877929396 l 4.2805669640578055 3.4481217408084057" fill="red" stroke="none" /><path d="M 84.10781606972428 86.27271002978789 l -7.383853683934829 -6.377996948795309 a30.757055924027505,30.757055924027505 0 0,0 0.3485637626250178,-0.39660157689989833 l 7.273278857351219 6.503810803506508" fill="red" stroke="none" /><path d="M 88.4268655584334 82.4767994020092 l -3.873675769809084 -5.865238834705228 a28.028967958224047,28.028967958224047 0 0,0 0.4037697866842964,-0.26171869752059324 l 3.7724203508677614 5.930871373929727" fill="red" stroke="none" /><line stroke="#e1ed5e" stroke-width="0.3" x1="56.869717070023135" x2="54.33264160355391" y1="26.7553504044142" y2="22.446841604673864" /><path d="M 56.362301976729285 25.89364864446614 a86.0,86.0 0 0,1 42.16139366436587,-11.88097634709845" fill="none" id="id144" stroke="none" /><text fill="#e1ed5e" style="font-size:6.75px; font-family:Arial;" text-anchor="middle"><textPath startOffset="22.145653131862474" xlink:href="#id144">December</textPath></text><path d="M 94.30408787586887 79.78721728523814 l -0.9828253202832896 -3.4877003388606047 a24.62353408482359,24.62353408482359 0 0,0 0.4078344347343122,-0.11115708874600995 l 0.9228094846142998 3.5040579217507544" fill="red" stroke="none" /></svg>