<?xml version="1.0" encoding="utf-8" ?>
<svg baseProfile="full" height="200mm" version="1.1" viewBox="0,0,200,200" width="200mm" xmlns="http://www.w3.org/2000/svg" xmlns:ev="http://www.w3.org/2001/xml-events" xmlns:xlink="http://www.w3.org/1999/xlink"><defs /><rect fill="#1a1a1a" height="200" width="200" x="0" y="0" /><rect fill="#1a1a1a" height="200" width="180" x="10" y="0" /><text alignment-baseline="middle" fill="#e1ed5e" style="dominant-baseline: central; font-size:9.0px; font-family:Arial;" text-anchor="middle" x="100.0" y="100.0">2025</text><line stroke="#e1ed5e" stroke-width="0.3" x1="100.0" x2="100.0" y1="15.0" y2="10.0" /><path d="M 100.0 14.0 a86.0,86.0 0 0,1 42.46469731375804,11.215312516191453" fill="none" id="id145" stroke="none" /><text fill="#e1ed5e" style="font-size:6.75px; font-family:Arial;" text-anchor="middle"><textPath startOffset="22.20632615414155" xlink:href="#id145">January</textPath></text><path d="M 101.80526077348638 79.07773832637324 l 0.4064611095717966 -4.710724245223837 a25.728227315615655,25.728227315615655 0 0,0 0.4409020254952615,0.04186895995718491 l -0.4874882621573023 4.703029740751473" fill="#ff3204" stroke="none" /><path d="M 110.05341064243156 81.56283822128135 l 1.8937437406481108 -3.472976580345901 a24.955734025800396,24.955734025800396 0 0,0 0.37537691515598615,0.2088968468723435 l -1.953244744876132 3.4398643359133776" fill="#ff2603" stroke="none" /><path d="M 110.36928655335952 81.73862282372117 l 1.3563753772116034 -2.388716159826215 a23.746947224851766,23.746947224851766 0 0,0 0.3537201279003351,0.2048975291343353 l -1.3972922375772667 2.36501447330183" fill="#ff1502" stroke="none" /><line stroke="#e1ed5e" stroke-width="0.3" x1="143.23703022742887" x2="145.7803849466894" y1="26.81831364943548" y2="22.513508569990506" /><path d="M 143.74570117128098 25.957352633546492 a86.0,86.0 0 0,1 28.547481713284135,27.462654790039103" fill="none" id="id146" stroke="none" /><text fill="#e1ed5e" style="font-size:6.75px; font-family:Arial;" text-anchor="middle"><textPath startOffset="19.985693538727396" xlink:href="#id146">February</textPath></text><path d="M 110.99172775467656 82.1063720568725 l 15.579483412878647 -25.362116489609136 a50.76503412134218,50.76503412134218 0 0,0 0.7406397230451331,0.46378852662444364 l -16.013742288296044 25.090183621661748" fill="#91ff24" stroke="none" /><path d="M 114.68862486808459 84.99185889309783 l 17.64675285335402 -18.0306161591219 a46.22916973158146,46.22916973158146 0 0,0 0.5639170606295046,0.5614954215589097 l -17.954505714150848 17.724184886912873" fill="#c4ff1e" stroke="none" /><line stroke="#e1ed5e" stroke-width="0.3" x1="172.23445277983987" x2="176.4835382374775" y1="55.19839476539836" y2="52.563006222186495" /><path d="M 173.08426987136738 54.67131705675599 a86.0,86.0 0 0,1 12.851231095245387,41.99856678651699" fill="none" id="id147" stroke="none" /><text fill="#e1ed5e" style="font-size:6.75px; font-family:Arial;" text-anchor="middle"><textPath startOffset="22.20632615414155" xlink:href="#id147">March</textPath></text><line stroke="#e1ed5e" stroke-width="0.3" x1="184.98032266829074" x2="189.97916517819016" y1="98.17113171792111" y2="98.06355123074" /><path d="M 185.9800911702706 98.14961562048488 a86.0,86.0 0 0,1 -9.607161424134198,41.387399972396054" fill="none" id="id148" stroke="none" /><text fill="#e1ed5e" style="font-size:6.75px; font-family:Arial;" text-anchor="middle"><textPath startOffset="21.466115282336823" xlink:href="#id148">April</textPath></text><line stroke="#e1ed5e" stroke-width="0.3" x1="174.80103733775053" x2="179.2010983576182" y1="140.37084112569926" y2="142.7455964860345" /><path d="M 175.68104954172406 140.8457921977663 a86.0,86.0 0 0,1 -30.038265399797805,32.042727171017184" fill="none" id="id149" stroke="none" /><text fill="#e1ed5e" style="font-size:6.75px; font-family:Arial;" text-anchor="middle"><textPath startOffset="22.206326154141568" xlink:href="#id149">May</textPath></text><path d="M 116.71984013943494 112.70617746262583 l 15.763650400035884 11.97952479038581 a40.799032505100335,40.799032505100335 0 0,0 -0.42973656448698216,0.5554924386712806 l -15.555107018330833 -12.249095223170343" fill="#fff917" stroke="none" /><line stroke="#e1ed5e" stroke-width="0.3" x1="143.8653032363475" x2="146.44561519142675" y1="172.8068346515853" y2="177.08958963109032" /><path d="M 144.38136562736335 173.6633856474863 a86.0,86.0 0 0,1 -40.68145358897372,12.25698825130547" fill="none" id="id150" stroke="none" /><text fill="#e1ed5e" style="font-size:6.75px; font-family:Arial;" text-anchor="middle"><textPath startOffset="21.466115282336833" xlink:href="#id150">June</textPath></text><path d="M 105.18746579009965 120.34920634021253 l 1.9370674328318518 7.598659245296706 a28.841674092020842,28.841674092020842 0 0,0 -0.48213214059574977,0.11849634994173339 l -1.805982007492891 -7.630876853552469" fill="#ff5d08" stroke="none" /><line stroke="#e1ed5e" stroke-width="0.3" x1="102.19456741930631" x2="102.32365962044197" y1="184.97166512339345" y2="189.96999836594603" /><path d="M 102.22038585953345 185.97133177190398 a86.0,86.0 0 0,1 -42.740103519485714,-10.115201625700543" fill="none" id="id151" stroke="none" /><text fill="#e1ed5e" style="font-size:6.75px; font-family:Arial;" text-anchor="middle"><textPath startOffset="22.20632615414155" xlink:href="#id151">July</textPath></text><line stroke="#e1ed5e" stroke-width="0.3" x1="58.666819895761336" x2="56.23545636021788" y1="174.27360380694188" y2="178.64263932499728" /><path d="M 58.180547188652646 175.14741091055294 a86.0,86.0 0 0,1 -31.652253787137756,-30.449443065178592" fill="none" id="id152" stroke="none" /><text fill="#e1ed5e" style="font-size:6.75px; font-family:Arial;" text-anchor="middle"><textPath startOffset="22.20632615414155" xlink:href="#id152">August</textPath></text><path d="M 89.4739219176387 118.17145234162733 l -2.081352657495237 3.5930951989774482 a25.15239232175589,25.15239232175589 0 0,0 -0.37277298147759336,-0.22024084811200978 l 2.1428935100012123 -3.5567357785716887" fill="#ff2904" stroke="none" /><path d="M 89.1626897886671 117.98757091392108 l -4.904851535539731 8.140983610999212 a30.504377030623534,30.504377030623534 0 0,0 -0.44742774373996025,-0.2748466641147374 l 5.044258479211999 -8.055348480056097" fill="#ff740a" stroke="none" /><path d="M 87.95078237400918 117.19931262002967 l -24.90835166733398 35.55471736621458 a64.41156424013053,64.41156424013053 0 0,0 -0.9025982441131567,-0.6439798817050045 l 25.516677239296023 -35.12069322266536" fill="#35ff61" stroke="none" /><path d="M 83.28015986056508 112.70617746262583 l -3.935713427608789 2.99093010675919 a25.943228002811388,25.943228002811388 0 0,0 -0.26713956005564443,-0.3578770960175199 l 3.9866142543595187 -2.922740131232362" fill="#ff3505" stroke="none" /><line stroke="#e1ed5e" stroke-width="0.3" x1="26.63291911575756" x2="22.317208475507996" y1="142.92168965132927" y2="145.44649492493687" /><path d="M 25.769776987707644 143.4266507060508 a86.0,86.0 0 0,1 -11.730757126820373,-40.83630448921669" fill="none" id="id153" stroke="none" /><text fill="#e1ed5e" style="font-size:6.75px; font-family:Arial;" text-anchor="middle"><textPath startOffset="21.46611528233685" xlink:href="#id153">September</textPath></text><path d="M 81.35079622478065 109.6543875284942 l -4.568637486585321 2.365108843483673 a26.144529942118844,26.144529942118844 0 0,0 -0.2034558981406591,-0.40143778889758414 l 4.608672054512247 -2.2861168428834038" fill="#ff3705" stroke="none" /><path d="M 81.18737489456691 109.33194174019688 l -7.073447268368182 3.5087606030964413 a28.89588862815497,28.89588862815497 0 0,0 -0.21719628177038278,-0.4474886718606254 l 7.132796806753284 -3.386482975270531" fill="#ff5e08" stroke="none" /><line stroke="#e1ed5e" stroke-width="0.3" x1="15.007084014347285" x2="10.007500721073583" y1="101.09737516637583" y2="101.16192664675087" /><path d="M 14.007167355692545 101.11028546245083 a86.0,86.0 0 0,1 10.666146001902534,-42.60595125391555" fill="none" id="id154" stroke="none" /><text fill="#e1ed5e" style="font-size:6.75px; font-family:Arial;" text-anchor="middle"><textPath startOffset="22.20632615414155" xlink:href="#id154">October</textPath></text><path d="M 79.00019446554 99.90962569577889 l -5.410439578669483 -0.023284249544610804 a26.410489681231272,26.410489681231272 0 0,0 0.005869407969521582,-0.45459211555395945 l 5.4092371635822465 0.11641262315904222" fill="#ff3b05" stroke="none" /><path d="M 79.03285615573316 98.82574320788736 l -1.3337118516410784 -0.07469401708420578 a22.3358018189073,22.3358018189073 0 0,0 0.024802747517117682,-0.3836875261339 l 1.3322285131195475 0.0976406074711176" fill="#ff0000" stroke="none" /><path d="M 79.08570108090925 98.10471618934814 l -62.742896757272284 -5.685851431955563 a84.0,84.0 0 0,0 0.1428914972710853,-1.4388978771822787 l 62.635728134318974 6.7650248398422725" fill="#4dd2ff" stroke="none" /><path d="M 79.12142395522702 97.74499172005258 l -3.8112210785410183 -0.4116341588808574 a24.833386073730757,24.833386073730757 0 0,0 0.04955992590836415,-0.4245991794461526 l 3.8035707996290653 0.47717707665187176" fill="#ff2503" stroke="none" /><path d="M 79.3925641242962 95.95851677861259 l -2.386661966900735 -0.4680666897391653 a23.43212700537901,23.43212700537901 0 0,0 0.08103131244475682,-0.3951374571655075 l 2.3782513585409837 0.5090798030680753" fill="#ff1001" stroke="none" /><path d="M 80.65960295795068 91.81776055985345 l -3.270327371968516 -1.3835600968756645 a24.550954753515327,24.550954753515327 0 0,0 0.16800953715772146,-0.38778917585508244 l 3.246027124968114 1.4396484173173463" fill="#ff2103" stroke="none" /><path d="M 80.803312248108 91.48605970444005 l -3.2968231791564984 -1.462177021116057 a24.606522523942335,24.606522523942335 0 0,0 0.17505511679362312,-0.3857107454196987 l 3.2711657453995238 1.5187097753778265" fill="#ff2103" stroke="none" /><line stroke="#e1ed5e" stroke-width="0.3" x1="26.266209847984243" x2="21.928928074336255" y1="57.711370442889674" y2="55.22380399835377" /><path d="M 25.398753493254645 57.213857153982495 a86.0,86.0 0 0,1 29.58750427330803,-30.492523968695096" fill="none" id="id155" stroke="none" /><text fill="#e1ed5e" style="font-size:6.75px; font-family:Arial;" text-anchor="middle"><textPath startOffset="21.46611528233685" xlink:href="#id155">November</textPath></text><path d="M 81.96595687620814 89.24020034530311 l -1.6838722607733176 -1.0046625732040988 a22.96080918923768,22.96080918923768 0 0,0 0.20542730024868647,-0.3376684681371305 l 1.6663291622384142 1.0334988145483037" fill="#ff0a01" stroke="none" /><path d="M 84.80347519578584 85.50635884689758 l -0.9451667258843985 -0.9014500046104181 a22.306121070395527,22.306121070395527 0 0,0 0.267392752932543,-0.2755717363835429 l 0.9295097092487372 0.9175859365440847" fill="#ff0000" stroke="none" /><path d="M 85.05521093208273 85.24692304244772 l -3.639214869548392 -3.5925309344629173 a26.113723045083212,26.113723045083212 0 0,0 0.3185429032617207,-0.3171749788025136 l 3.576836166119358 3.65464176391554" fill="#ff3705" stroke="none" /><line stroke="#e1ed5e" stroke-width="0.3" x1="56.762969772571076" x2="54.21961505331055" y1="26.818313649435495" y2="22.513508569990535" /><path d="M 56.25429882871897 25.957352633546506 a86.0,86.0 0 0,1 42.265352541879196,-11.944610805530505" fill="none" id="id156" stroke="none" /><text fill="#e1ed5e" style="font-size:6.75px; font-family:Arial;" text-anchor="middle"><textPath startOffset="22.20632615414155" xlink:href="#id156">December</textPath></text><path d="M 91.23893434514133 80.91482961587045 l -0.8276271392889895 -1.8029090969202288 a22.98379633366064,22.98379633366064 0 0,0 0.3609746198266224,-0.16195878975859598 l 0.7964704009955927 1.8168882171953538" fill="#ff0a01" stroke="none" /><path d="M 93.25333710446033 80.11325718540243 l -0.8665686861458571 -2.554333729043964 a23.697324987305052,23.697324987305052 0 0,0 0.38741422547838117,-0.12772437906341222 l 0.8224716384250668 2.56887183236661" fill="#ff1402" stroke="none" /></svg>