<?xml version="1.0" encoding="utf-8" ?>
<svg baseProfile="full" height="200mm" version="1.1" viewBox="0,0,200,200" width="200mm" xmlns="http://www.w3.org/2000/svg" xmlns:ev="http://www.w3.org/2001/xml-events" xmlns:xlink="http://www.w3.org/1999/xlink"><defs /><rect fill="#1a1a1a" height="200" width="200" x="0" y="0" /><rect fill="#1a1a1a" height="200" width="180" x="10" y="0" /><text alignment-baseline="middle" fill="#e1ed5e" style="dominant-baseline: central; font-size:9.0px; font-family:Arial;" text-anchor="middle" x="100.0" y="100.0">2016</text><line stroke="#e1ed5e" stroke-width="0.3" x1="100.0" x2="100.0" y1="15.0" y2="10.0" /><path d="M 100.0 14.0 a86.0,86.0 0 0,1 42.35913384403234,11.155469271406648" fill="none" id="id37" stroke="none" /><text fill="#e1ed5e" style="font-size:6.75px; font-family:Arial;" text-anchor="middle"><textPath startOffset="22.145653131862478" xlink:href="#id37">January</textPath></text><line stroke="#e1ed5e" stroke-width="0.3" x1="143.13028292997686" x2="145.6673583964461" y1="26.7553504044142" y2="22.446841604673864" /><path d="M 143.63769802327073 25.89364864446614 a86.0,86.0 0 0,1 29.32050498858742,28.57503671076993" fill="none" id="id38" stroke="none" /><text fill="#e1ed5e" style="font-size:6.75px; font-family:Arial;" text-anchor="middle"><textPath startOffset="20.669276256404974" xlink:href="#id38">February</textPath></text><path d="M 117.42321728460499 88.27688183743584 l 1.780524475540544 -1.1980163294263022 a23.146045324211723,23.146045324211723 0 0,0 0.21897874007400517,0.3315617223999539 l -1.8008276545352737 1.1672747286872895" fill="#ff1202" stroke="none" /><path d="M 117.81537515405839 88.88188828441811 l 1.9643063768771198 -1.2258724586428182 a23.315440093610523,23.315440093610523 0 0,0 0.2089863213542111,0.34136345000031776 l -1.9850606626867333 1.1919718925179457" fill="#ff1402" stroke="none" /><line stroke="#e1ed5e" stroke-width="0.3" x1="172.87174338648825" x2="177.1583165268699" y1="56.24261187166439" y2="53.66864786411523" /><path d="M 173.72905801456457 55.72781907015455 a86.0,86.0 0 0,1 12.242430191666344,42.057860355516425" fill="none" id="id39" stroke="none" /><text fill="#e1ed5e" style="font-size:6.75px; font-family:Arial;" text-anchor="middle"><textPath startOffset="22.145653131862474" xlink:href="#id39">March</textPath></text><path d="M 118.70294669586156 90.45014215332178 l 10.452584777204564 -5.337164264855866 a32.736347426465485,32.736347426465485 0 0,0 0.251259396158497,0.5026871043138529 l -10.542664086574797 5.156945304378262" fill="#ff960d" stroke="none" /><path d="M 120.93736805541906 98.37931529534042 l 2.342031683350206 -0.1812880643348766 a23.34903762594099,23.34903762594099 0 0,0 0.027502985784457597,0.3998873772303596 l -2.3447986302997297 0.14105726295018284" fill="#ff1502" stroke="none" /><path d="M 120.99303781780057 99.45929381324524 l 2.516868166381311 -0.06482559601996027 a23.51770286667092,23.51770286667092 0 0,0 0.006930519658697191,0.4036680251245077 l -2.5176101176386743 0.021610654926386186" fill="#ff1702" stroke="none" /><line stroke="#e1ed5e" stroke-width="0.3" x1="184.99686870605535" x2="189.99668451229388" y1="99.2704041080226" y2="99.22748670261217" /><path d="M 185.99683186730306 99.26182062694052 a86.0,86.0 0 0,1 -10.086455211305974,41.156179273409016" fill="none" id="id40" stroke="none" /><text fill="#e1ed5e" style="font-size:6.75px; font-family:Arial;" text-anchor="middle"><textPath startOffset="21.40746469413373" xlink:href="#id40">April</textPath></text><line stroke="#e1ed5e" stroke-width="0.3" x1="174.33088141563837" x2="178.70328620479359" y1="141.23008692659167" y2="143.65538615756765" /><path d="M 175.20536237346943 141.71514677278685 a86.0,86.0 0 0,1 -30.301960400862466,31.631185727798858" fill="none" id="id41" stroke="none" /><text fill="#e1ed5e" style="font-size:6.75px; font-family:Arial;" text-anchor="middle"><textPath startOffset="22.145653131862474" xlink:href="#id41">May</textPath></text><path d="M 116.79662413953412 112.60449989151573 l 1.435190162736876 1.0769934541753197 a22.79434826707448,22.79434826707448 0 0,0 -0.23754752598793274,0.3109573368962328 l -1.4164906593946387 -1.1014717043124298" fill="#ff0d01" stroke="none" /><path d="M 116.57777611688842 112.89097897827486 l 1.4543760367922296 1.130931602924453 a22.842339802232136,22.842339802232136 0 0,0 -0.2433618198310343,0.30747970935308816 l -1.4347477863196336 -1.155731256192224" fill="#ff0e01" stroke="none" /><path d="M 116.35404254752997 113.17365903436017 l 2.1949553998911715 1.768100697412043 a23.81851189170817,23.81851189170817 0 0,0 -0.2592284120882131,0.31621651279740726 l -2.1642801685643307 -1.805519491907943" fill="#ff1c02" stroke="none" /><path d="M 115.89218393027572 113.72728997021213 l 11.928280335070514 10.303364454116982 a36.762080789870076,36.762080789870076 0 0,0 -0.41661754732617623,0.47403429142886355 l -11.749651723785753 -10.50661102335714" fill="#ffca12" stroke="none" /><path d="M 114.91283532996324 114.78537596483092 l 1.8151533319110276 1.7996392940916492 a23.55606791912625,23.55606791912625 0 0,0 -0.287168748441126,0.2847143294421702 l -1.7839926633399368 -1.8305336337624811" fill="#ff1802" stroke="none" /><path d="M 114.65682725009322 115.03919595460226 l 2.3770134522846407 2.4390252054998443 a24.40573588309571,24.40573588309571 0 0,0 -0.30254688347971703,0.2898330704861857 l -2.3347940829396117 -2.47947040629161" fill="#ff2403" stroke="none" /><path d="M 113.03279911837588 116.46651593811092 l 1.4009555583959215 1.7700615824259194 a23.25738664880002,23.25738664880002 0 0,0 -0.3151819501915164,0.2450873908299071 l -1.3703636635691745 -1.7938500248766196" fill="#ff1302" stroke="none" /><line stroke="#e1ed5e" stroke-width="0.3" x1="143.1302829299769" x2="145.66735839644613" y1="173.24464959558577" y2="177.55315839532614" /><path d="M 143.63769802327073 174.10635135553383 a86.0,86.0 0 0,1 -40.68552437913181,11.842963189579606" fill="none" id="id42" stroke="none" /><text fill="#e1ed5e" style="font-size:6.75px; font-family:Arial;" text-anchor="middle"><textPath startOffset="21.407464694133747" xlink:href="#id42">June</textPath></text><path d="M 101.44090949804482 120.95050786540614 l 0.08493586119145158 1.2349487808645174 a22.237866144571008,22.237866144571008 0 0,0 -0.38106770136410095,0.022924086639486186 l -0.06372380769488549 -1.2362248453286955" fill="#ff0500" stroke="none" /><line stroke="#e1ed5e" stroke-width="0.3" x1="101.45913802915013" x2="101.54496967792366" y1="184.9874750549273" y2="189.98673829345242" /><path d="M 101.47630435890484 185.9873277026323 a86.0,86.0 0 0,1 -42.54439059252881,-10.42667462771756" fill="none" id="id43" stroke="none" /><text fill="#e1ed5e" style="font-size:6.75px; font-family:Arial;" text-anchor="middle"><textPath startOffset="22.145653131862474" xlink:href="#id43">July</textPath></text><path d="M 98.19965949673042 120.92268563240118 l -0.23340983464326895 2.7125760848477625 a23.72259970744805,23.72259970744805 0 0,0 -0.4054310186974102,-0.03839473899568581 l 0.2799404167256944 -2.708169590346893" fill="#ff1a02" stroke="none" /><path d="M 97.84075906011543 120.88869738790638 l -0.3175637243496567 3.072140962495418 a24.088510452056962,24.088510452056962 0 0,0 -0.41095468947075764,-0.04604833012465288 l 0.3702543154212136 -3.0662368718637945" fill="#ff1f03" stroke="none" /><path d="M 96.05791012581884 120.62667999033965 l -0.376570878109579 1.9703779579761334 a23.006039611652376,23.006039611652376 0 0,0 -0.3872721836539575,-0.07746528292085941 l 0.4103395472944946 -1.9636232783924124" fill="#ff1001" stroke="none" /><path d="M 95.35216902796893 120.47920084513623 l -0.5401563904428245 2.3800287218337486 a23.44055437204128,23.44055437204128 0 0,0 -0.3916446108410085,-0.09242706176549051 l 0.5809331550237209 -2.3704055164220303" fill="#ff1602" stroke="none" /><path d="M 92.25597844496254 119.51999308798841 l -0.9283123068775783 2.3399534318131483 a23.517368825213044,23.517368825213044 0 0,0 -0.37397716208185233,-0.15209325610423013 l 0.9683439301498714 -2.323672919129627" fill="#ff1702" stroke="none" /><line stroke="#e1ed5e" stroke-width="0.3" x1="58.13341422392154" x2="55.67067388415222" y1="173.97424548756322" y2="178.32567169271397" /><path d="M 57.64086615596768 174.84453072859336 a86.0,86.0 0 0,1 -31.369924170532247,-30.572349798747897" fill="none" id="id44" stroke="none" /><text fill="#e1ed5e" style="font-size:6.75px; font-family:Arial;" text-anchor="middle"><textPath startOffset="22.145653131862474" xlink:href="#id44">August</textPath></text><path d="M 86.40962598614128 116.0094264158162 l -1.2168610793083536 1.4334592916715794 a22.880307535275833,22.880307535275833 0 0,0 -0.29724844785522136,-0.25675612960473226 l 1.2412890069264375 -1.412359029602125" fill="#ff0e01" stroke="none" /><path d="M 82.78059297857968 112.02048342749411 l -13.360047843453936 9.326350988335022 a37.293302339826504,37.293302339826504 0 0,0 -0.3619408459478903,-0.5280825109711997 l 13.518178426217151 -9.095633742293773" fill="#ffd113" stroke="none" /><path d="M 82.576782715395 111.72311816256416 l -0.7581624071502354 0.5101255032438625 a21.913804281383953,21.913804281383953 0 0,0 -0.20732082671358756,-0.3139101557133298 l 0.7668076727845496 -0.49703546919147173" fill="#ff0000" stroke="none" /><line stroke="#e1ed5e" stroke-width="0.3" x1="26.387840678322732" x2="22.057713659400548" y1="142.50000000000003" y2="145.00000000000006" /><path d="M 25.521815274538298 143.00000000000003 a86.0,86.0 0 0,1 -11.493303480769221,-40.785679425670985" fill="none" id="id45" stroke="none" /><text fill="#e1ed5e" style="font-size:6.75px; font-family:Arial;" text-anchor="middle"><textPath startOffset="21.40746469413373" xlink:href="#id45">September</textPath></text><path d="M 81.81346652052679 110.50000000000001 l -2.441941033206427 1.4098553128669251 a23.819710625733848,23.819710625733848 0 0,0 -0.20140885057028945,-0.3558701403343815 l 2.4657832487980946 -1.367728402433422" fill="#ff1c02" stroke="none" /><path d="M 81.63589988554817 110.18625677009913 l -1.5791781955218922 0.8759435248705064 a22.805846292455243,22.805846292455243 0 0,0 -0.1869586902478173,-0.3439829324598433 l 1.593982235385039 -0.8487057589360761" fill="#ff0d01" stroke="none" /><path d="M 81.29705330413844 109.54985784667822 l -2.9281544914458335 1.4951365472590272 a24.287783755164572,24.287783755164572 0 0,0 -0.18641462350247573,-0.3729541212106704 l 2.9533890281600463 -1.4446505698846042" fill="#ff2203" stroke="none" /><path d="M 81.1358732173502 109.22738970284198 l -1.7090374689626344 0.8359758670293321 a22.90254164752671,22.90254164752671 0 0,0 -0.16971954884724413,-0.354648581652807 l 1.7231362757697906 -0.8065147833114205" fill="#ff0e01" stroke="none" /><path d="M 80.41425534168474 107.57618678355246 l -30.74350787474588 11.89224929172165 a53.963447478396674,53.963447478396674 0 0,0 -0.326785462611586,-0.8668372640257374 l 30.9431240211719 -11.362743747501767" fill="#6dff28" stroke="none" /><path d="M 79.83685265289637 105.86919833188381 l -12.34296412254532 3.592856967786375 a33.855247353567805,33.855247353567805 0 0,0 -0.15763891130571964,-0.5594048840948621 l 12.402821525925614 -3.3804441597885173" fill="#ffa50f" stroke="none" /><path d="M 79.64726062577567 105.17358676015961 l -13.19297753357331 3.3536032982970037 a34.61254242541483,34.61254242541483 0 0,0 -0.14143751805164642,-0.5771133393220973 l 13.24860257814125 -3.1266341343668067" fill="#ffaf10" stroke="none" /><path d="M 79.00696218219943 100.54070618675478 l -4.688614200698813 0.12076207015044199 a25.69016914413346,25.69016914413346 0 0,0 -0.007570731856681397,-0.44095717606093315 l 4.689996364154161 -0.04025797812045648" fill="#ff3605" stroke="none" /><line stroke="#e1ed5e" stroke-width="0.3" x1="15.003131293944662" x2="10.003315487706104" y1="100.72959589197737" y2="100.7725132973878" /><path d="M 14.003168132696942 100.73817937305945 a86.0,86.0 0 0,1 10.791469493833604,-42.45332614584628" fill="none" id="id46" stroke="none" /><text fill="#e1ed5e" style="font-size:6.75px; font-family:Arial;" text-anchor="middle"><textPath startOffset="22.145653131862435" xlink:href="#id46">October</textPath></text><line stroke="#e1ed5e" stroke-width="0.3" x1="26.387840678322718" x2="22.05771365940052" y1="57.49999999999999" y2="54.99999999999999" /><path d="M 25.521815274538284 56.99999999999999 a86.0,86.0 0 0,1 29.574782752854787,-30.34633250058573" fill="none" id="id47" stroke="none" /><text fill="#e1ed5e" style="font-size:6.75px; font-family:Arial;" text-anchor="middle"><textPath startOffset="21.40746469413373" xlink:href="#id47">November</textPath></text><path d="M 82.37810715431573 88.57770195909679 l -1.506245097560227 -0.9763298743015468 a22.794991453288258,22.794991453288258 0 0,0 0.21565751032282054,-0.32653295724943987 l 1.4892631483166776 1.0020427098900477" fill="#ff0d01" stroke="none" /><line stroke="#e1ed5e" stroke-width="0.3" x1="56.869717070023135" x2="54.33264160355391" y1="26.7553504044142" y2="22.446841604673864" /><path d="M 56.362301976729285 25.89364864446614 a86.0,86.0 0 0,1 42.16139366436587,-11.88097634709845" fill="none" id="id48" stroke="none" /><text fill="#e1ed5e" style="font-size:6.75px; font-family:Arial;" text-anchor="middle"><textPath startOffset="22.145653131862474" xlink:href="#id48">December</textPath></text><path d="M 89.34428304082924 81.90426304109057 l -1.550955530966626 -2.6338615628470947 a24.056581389604947,24.056581389604947 0 0,0 0.3576498051125713,-0.2064892112573591 l 1.505513257993655 2.660097671380628" fill="#ff1f03" stroke="none" /><path d="M 90.28995756902619 81.37971332152246 l -1.0830274079599003 -2.076847857279581 a23.34227355120599,23.34227355120599 0 0,0 0.35688422002891773,-0.18222762564751158 l 1.0472159662174003 2.0951334345999264" fill="#ff1502" stroke="none" /><path d="M 90.61103034731259 81.2157712731953 l -1.099749278030875 -2.200235248897346 a23.4597730840506,23.4597730840506 0 0,0 0.36177176513846393,-0.1769606989435604 l 1.061817263630358 2.2187896979381208" fill="#ff1602" stroke="none" /><path d="M 90.93487009805054 81.0573650232925 l -0.8580781889614194 -1.7930533914880717 a22.987797435127177,22.987797435127177 0 0,0 0.3574178717049662,-0.16728961104424495 l 0.8271716033849307 1.8075192341028596" fill="#ff1001" stroke="none" /><path d="M 91.26138138417902 80.90454125486306 l -1.1810857334139606 -2.58088547954753 a23.838297617976888,23.838297617976888 0 0,0 0.37356496403881057,-0.1670908568600457 l 1.136607366519531 2.600780087317421" fill="#ff1c02" stroke="none" /><path d="M 91.5904679813234 80.7573450057729 l -1.1219597037105142 -2.5672633682800594 a23.801719967959478,23.801719967959478 0 0,0 0.3758007377138539,-0.16040698843686796 l 1.0777238908262292 2.586145006376331" fill="#ff1b02" stroke="none" /><path d="M 91.92203290615298 80.6158196554323 l -1.2686653177282772 -3.0443349211554613 a24.29810351574556,24.29810351574556 0 0,0 0.3863925366960045,-0.1571424808758939 l 1.2162183198418317 3.0656646586106464" fill="#ff2203" stroke="none" /><path d="M 92.25597844496254 80.48000691201159 l -1.063364207880818 -2.6803724447726447 a23.883598425803857,23.883598425803857 0 0,0 0.3823965839152921,-0.14791921347267464 l 1.0171953614719966 2.6982315463833597" fill="#ff1d02" stroke="none" /><path d="M 93.61358852112211 79.99465700312896 l -0.3725115351830007 -1.166887078334059 a22.224904199285557,22.224904199285557 0 0,0 0.3644454259311874,-0.11290612455477493 l 0.3524254763801971 1.173109790695476" fill="#ff0500" stroke="none" /><path d="M 98.9189461498227 79.02784411241856 l -3.24316155053188 -62.91646766274432 a84.0,84.0 0 0,0 1.4406969575967197,-0.061869726296685634 l 2.1626388323343404 62.96286995746683" fill="#4dd2ff" stroke="none" /><path d="M 99.27912038922189 79.0123766808444 l -0.9910151176922996 -28.852323859270022 a49.869338458712505,49.869338458712505 0 0,0 0.8558212198390379,-0.022042918816192174 l 0.4955805837825178 28.86508449543626" fill="#99ff23" stroke="none" /></svg>