<?xml version="1.0" encoding="utf-8" ?>
<svg baseProfile="full" height="200mm" version="1.1" viewBox="0,0,200,200" width="200mm" xmlns="http://www.w3.org/2000/svg" xmlns:ev="http://www.w3.org/2001/xml-events" xmlns:xlink="http://www.w3.org/1999/xlink"><defs /><rect fill="#1a1a1a" height="200" width="200" x="0" y="0" /><rect fill="#1a1a1a" height="200" width="180" x="10" y="0" /><text alignment-baseline="middle" fill="#e1ed5e" style="dominant-baseline: central; font-size:9.0px; font-family:Arial;" text-anchor="middle" x="100.0" y="100.0">2026</text><line stroke="#e1ed5e" stroke-width="0.3" x1="100.0" x2="100.0" y1="15.0" y2="10.0" /><path d="M 100.0 14.0 a86.0,86.0 0 0,1 42.46469731375804,11.215312516191453" fill="none" id="id157" stroke="none" /><text fill="#e1ed5e" style="font-size:6.75px; font-family:Arial;" text-anchor="middle"><textPath startOffset="22.20632615414155" xlink:href="#id157">January</textPath></text><path d="M 100.0 79.0 l 0.0 -11.636109333022638 a32.63610933302264,32.63610933302264 0 0,0 0.561776973490079,0.004835391770149354 l -0.20029649421755066 11.634385317861048" fill="red" stroke="none" /><path d="M 100.36148047927253 79.00311137660856 l 0.14013774755482564 -8.140015425627547 a29.14122163546382,29.14122163546382 0 0,0 0.501469586520937,0.012951479940445243 l -0.2802339692706305 8.136397153544744" fill="red" stroke="none" /><path d="M 103.59715602781102 79.31037775812273 l 2.5267929991743405 -14.533256892987788 a35.751279225147,35.751279225147 0 0,0 0.6053966342511798,0.11063236531150093 l -2.7765847545284212 14.487609046325549" fill="red" stroke="none" /><line stroke="#e1ed5e" stroke-width="0.3" x1="143.23703022742887" x2="145.7803849466894" y1="26.81831364943548" y2="22.513508569990506" /><path d="M 143.74570117128098 25.957352633546492 a86.0,86.0 0 0,1 28.547481713284135,27.462654790039103" fill="none" id="id158" stroke="none" /><text fill="#e1ed5e" style="font-size:6.75px; font-family:Arial;" text-anchor="middle"><textPath startOffset="19.985693538727396" xlink:href="#id158">February</textPath></text><path d="M 116.15771136456269 86.58626213691792 l 6.001755833966221 -4.9825113011743225 a28.800416139981085,28.800416139981085 0 0,0 0.31337802461012426,0.3841644039372884 l -6.086632350652754 4.878462727628933" fill="red" stroke="none" /><line stroke="#e1ed5e" stroke-width="0.3" x1="172.23445277983987" x2="176.4835382374775" y1="55.19839476539836" y2="52.563006222186495" /><path d="M 173.08426987136738 54.67131705675599 a86.0,86.0 0 0,1 12.851231095245387,41.99856678651699" fill="none" id="id159" stroke="none" /><text fill="#e1ed5e" style="font-size:6.75px; font-family:Arial;" text-anchor="middle"><textPath startOffset="22.20632615414155" xlink:href="#id159">March</textPath></text><path d="M 119.85752413597 93.16781622104841 l 13.324262404047687 -4.584348423302684 a35.09085586748216,35.09085586748216 0 0,0 0.19160059512525077,0.5728613920404391 l -13.401200292944708 4.354313928339931" fill="red" stroke="none" /><path d="M 120.6074358757038 95.95851677861258 l 16.64124224512273 -3.263642392113485 a37.95825182984548,37.95825182984548 0 0,0 0.12022693533854434,0.6422570960162328 l -16.69495490437113 2.9767072186346892" fill="red" stroke="none" /><path d="M 120.91429891909075 98.10471618934814 l 24.59743518853302 -2.229054910075459 a45.69822875524101,45.69822875524101 0 0,0 0.06425065678729995,0.7840207537509088 l -24.632160329139815 1.8053202391167815" fill="red" stroke="none" /><path d="M 120.96714384426684 98.82574320788733 l 42.77845497339925 -2.3957908469414853 a63.845490120821765,63.845490120821765 0 0,0 0.05200790316815274,1.0978046368971301 l -42.8133564848009 1.6590751034213556" fill="red" stroke="none" /><line stroke="#e1ed5e" stroke-width="0.3" x1="184.98032266829074" x2="189.97916517819016" y1="98.17113171792111" y2="98.06355123074" /><path d="M 185.9800911702706 98.14961562048488 a86.0,86.0 0 0,1 -9.607161424134198,41.387399972396054" fill="none" id="id160" stroke="none" /><text fill="#e1ed5e" style="font-size:6.75px; font-family:Arial;" text-anchor="middle"><textPath startOffset="21.466115282336823" xlink:href="#id160">April</textPath></text><path d="M 120.99513854157772 99.54816195383933 l 60.48133103228312 -1.301623534834258 a81.49533558269636,81.49533558269636 0 0,0 0.01811134052875364,1.4027432833495117 l -60.49477537992959 0.26034399342428355" fill="red" stroke="none" /><path d="M 120.99980553446 99.90962569577887 l 40.37827877329729 -0.17377107820333945 a61.37865269027349,61.37865269027349 0 0,0 -0.004546996969376745,1.0565619613410369 l -40.37528747903841 -0.5213003613413821" fill="red" stroke="none" /><path d="M 120.9904718944345 100.63252640178507 l 62.97141568330351 1.8975792053552112 a84.0,84.0 0 0,0 -0.05599146859518722,1.4448910119439753 l -62.92942208185712 -2.9812474643131925" fill="red" stroke="none" /><path d="M 120.9764740272857 100.99374915477107 l 19.374779315201252 0.9178697307904283 a40.39650892185116,40.39650892185116 0 0,0 -0.03888385031976625,0.6942972681525951 l -19.356109113993956 -1.2512387152784468" fill="red" stroke="none" /><path d="M 120.89721153311464 102.0752229133903 l 28.09083802816307 2.789594709322971 a49.2290102512783,49.2290102512783 0 0,0 -0.09099794653979748,0.8425279692514632 l -28.03865778012222 -3.272719000459226" fill="red" stroke="none" /><path d="M 119.41010516605496 108.01547362559984 l 9.21852790472313 3.8068246748290253 a30.973623756441093,30.973623756441093 0 0,0 -0.20774307214349136,0.49104325623575895 l -9.15163385138733 -3.9649424567309475" fill="red" stroke="none" /><line stroke="#e1ed5e" stroke-width="0.3" x1="174.80103733775053" x2="179.2010983576182" y1="140.37084112569926" y2="142.7455964860345" /><path d="M 175.68104954172406 140.8457921977663 a86.0,86.0 0 0,1 -30.038265399797805,32.042727171017184" fill="none" id="id161" stroke="none" /><text fill="#e1ed5e" style="font-size:6.75px; font-family:Arial;" text-anchor="middle"><textPath startOffset="22.206326154141568" xlink:href="#id161">May</textPath></text><line stroke="#e1ed5e" stroke-width="0.3" x1="143.8653032363475" x2="146.44561519142675" y1="172.8068346515853" y2="177.08958963109032" /><path d="M 144.38136562736335 173.6633856474863 a86.0,86.0 0 0,1 -40.68145358897372,12.25698825130547" fill="none" id="id162" stroke="none" /><text fill="#e1ed5e" style="font-size:6.75px; font-family:Arial;" text-anchor="middle"><textPath startOffset="21.466115282336833" xlink:href="#id162">June</textPath></text><line stroke="#e1ed5e" stroke-width="0.3" x1="102.19456741930631" x2="102.32365962044197" y1="184.97166512339345" y2="189.96999836594603" /><path d="M 102.22038585953345 185.97133177190398 a86.0,86.0 0 0,1 -42.740103519485714,-10.115201625700543" fill="none" id="id163" stroke="none" /><text fill="#e1ed5e" style="font-size:6.75px; font-family:Arial;" text-anchor="middle"><textPath startOffset="22.20632615414155" xlink:href="#id163">July</textPath></text><line stroke="#e1ed5e" stroke-width="0.3" x1="58.666819895761336" x2="56.23545636021788" y1="174.27360380694188" y2="178.64263932499728" /><path d="M 58.180547188652646 175.14741091055294 a86.0,86.0 0 0,1 -31.652253787137756,-30.449443065178592" fill="none" id="id164" stroke="none" /><text fill="#e1ed5e" style="font-size:6.75px; font-family:Arial;" text-anchor="middle"><textPath startOffset="22.20632615414155" xlink:href="#id164">August</textPath></text><line stroke="#e1ed5e" stroke-width="0.3" x1="26.63291911575756" x2="22.317208475507996" y1="142.92168965132927" y2="145.44649492493687" /><path d="M 25.769776987707644 143.4266507060508 a86.0,86.0 0 0,1 -11.730757126820373,-40.83630448921669" fill="none" id="id165" stroke="none" /><text fill="#e1ed5e" style="font-size:6.75px; font-family:Arial;" text-anchor="middle"><textPath startOffset="21.46611528233685" xlink:href="#id165">September</textPath></text><line stroke="#e1ed5e" stroke-width="0.3" x1="15.007084014347285" x2="10.007500721073583" y1="101.09737516637583" y2="101.16192664675087" /><path d="M 14.007167355692545 101.11028546245083 a86.0,86.0 0 0,1 10.666146001902534,-42.60595125391555" fill="none" id="id166" stroke="none" /><text fill="#e1ed5e" style="font-size:6.75px; font-family:Arial;" text-anchor="middle"><textPath startOffset="22.20632615414155" xlink:href="#id166">October</textPath></text><line stroke="#e1ed5e" stroke-width="0.3" x1="26.266209847984243" x2="21.928928074336255" y1="57.711370442889674" y2="55.22380399835377" /><path d="M 25.398753493254645 57.213857153982495 a86.0,86.0 0 0,1 29.58750427330803,-30.492523968695096" fill="none" id="id167" stroke="none" /><text fill="#e1ed5e" style="font-size:6.75px; font-family:Arial;" text-anchor="middle"><textPath startOffset="21.46611528233685" xlink:href="#id167">November</textPath></text><line stroke="#e1ed5e" stroke-width="0.3" x1="56.762969772571076" x2="54.21961505331055" y1="26.818313649435495" y2="22.513508569990535" /><path d="M 56.25429882871897 25.957352633546506 a86.0,86.0 0 0,1 42.265352541879196,-11.944610805530505" fill="none" id="id168" stroke="none" /><text fill="#e1ed5e" style="font-size:6.75px; font-family:Arial;" text-anchor="middle"><textPath startOffset="22.20632615414155" xlink:href="#id168">December</textPath></text></svg>