<?xml version="1.0" encoding="utf-8" ?>
<svg baseProfile="full" height="200mm" version="1.1" viewBox="0,0,200,200" width="200mm" xmlns="http://www.w3.org/2000/svg" xmlns:ev="http://www.w3.org/2001/xml-events" xmlns:xlink="http://www.w3.org/1999/xlink"><defs /><rect fill="#1a1a1a" height="200" width="200" x="0" y="0" /><rect fill="#1a1a1a" height="200" width="180" x="10" y="0" /><text alignment-baseline="middle" fill="#e1ed5e" style="dominant-baseline: central; font-size:9.0px; font-family:Arial;" text-anchor="middle" x="100.0" y="100.0">2023</text><line stroke="#e1ed5e" stroke-width="0.3" x1="100.0" x2="100.0" y1="15.0" y2="10.0" /><path d="M 100.0 14.0 a86.0,86.0 0 0,1 42.46469731375804,11.215312516191453" fill="none" id="id13" stroke="none" /><text fill="#e1ed5e" style="font-size:6.75px; font-family:Arial;" text-anchor="middle"><textPath startOffset="22.20632615414155" xlink:href="#id13">January</textPath></text><path d="M 103.2404852339499 79.25152402106235 l 0.05285242240907472 -0.33840833628693073 a21.342510701472225,21.342510701472225 0 0,0 0.362488106423031,0.059813643477747286 l -0.05866973497098088 0.3374484298695588" fill="#ff0100" stroke="none" /><path d="M 109.08828744355905 81.06846463323043 l 0.11351757869468772 -0.23646501820665738 a21.262301249536062,21.262301249536062 0 0,0 0.3285822707121167,0.16123389322130152 l -0.11757111641723622 0.23447596485052388" fill="#ff0000" stroke="none" /><path d="M 110.36928655335952 81.73862282372117 l 0.2667329950201187 -0.4697441624701533 a21.540190770753433,21.540190770753433 0 0,0 0.32084962173389775,0.1858568103183689 l -0.27477934921934477 0.46508319476173493" fill="#ff0400" stroke="none" /><line stroke="#e1ed5e" stroke-width="0.3" x1="143.23703022742887" x2="145.7803849466894" y1="26.81831364943548" y2="22.513508569990506" /><path d="M 143.74570117128098 25.957352633546492 a86.0,86.0 0 0,1 28.547481713284135,27.462654790039103" fill="none" id="id14" stroke="none" /><text fill="#e1ed5e" style="font-size:6.75px; font-family:Arial;" text-anchor="middle"><textPath startOffset="19.985693538727396" xlink:href="#id14">February</textPath></text><path d="M 110.68208982089419 81.91981866633111 l 0.30933920705754964 -0.5235781622313359 a21.60813225287641,21.60813225287641 0 0,0 0.3186046392226989,0.19195573024003615 l -0.31830591249788603 0.5181758225326852" fill="#ff0500" stroke="none" /><path d="M 111.60114157652 82.49532879139004 l 1.7622253180646414 -2.6589775311976567 a24.189921563775826,24.189921563775826 0 0,0 0.34510414015148577,0.23301585594197025 l -1.807734152622669 2.628249762957016" fill="#ff2a04" stroke="none" /><path d="M 111.90073688211348 82.69761687909136 l 0.14834622615750442 -0.21567935371933605 a21.2617712482989,21.2617712482989 0 0,0 0.2997594468531881,0.21000064888491188 l -0.15203681259434348 0.21309386207048858" fill="#ff0000" stroke="none" /><line stroke="#e1ed5e" stroke-width="0.3" x1="172.23445277983987" x2="176.4835382374775" y1="55.19839476539836" y2="52.563006222186495" /><path d="M 173.08426987136738 54.67131705675599 a86.0,86.0 0 0,1 12.851231095245387,41.99856678651699" fill="none" id="id15" stroke="none" /><text fill="#e1ed5e" style="font-size:6.75px; font-family:Arial;" text-anchor="middle"><textPath startOffset="22.20632615414155" xlink:href="#id15">March</textPath></text><path d="M 118.3937258080291 89.86733742301442 l 8.159498184476563 -4.494871934251501 a30.315647284424102,30.315647284424102 0 0,0 0.24785481455644567,0.4592373287505245 l -8.235661098251473 4.353753622168518" fill="#ff7e0b" stroke="none" /><path d="M 119.47837535516314 92.15188598940014 l 0.2575565111449326 -0.10377317547184281 a21.277676481504393,21.277676481504393 0 0,0 0.13395457497072982,0.34089978217655803 l -0.25930463599736286 0.09932438839950042" fill="#ff0000" stroke="none" /><path d="M 119.61058180528143 92.48833698450437 l 0.8618199281768986 -0.3301126373904953 a21.922880242484226,21.922880242484226 0 0,0 0.1319500699751611,0.353560586086008 l -0.8673745866536849 0.3152289142751541" fill="#ff0a01" stroke="none" /><line stroke="#e1ed5e" stroke-width="0.3" x1="184.98032266829074" x2="189.97916517819016" y1="98.17113171792111" y2="98.06355123074" /><path d="M 185.9800911702706 98.14961562048488 a86.0,86.0 0 0,1 -9.607161424134198,41.387399972396054" fill="none" id="id16" stroke="none" /><text fill="#e1ed5e" style="font-size:6.75px; font-family:Arial;" text-anchor="middle"><textPath startOffset="21.466115282336823" xlink:href="#id16">April</textPath></text><path d="M 120.89721153311464 102.0752229133903 l 4.707144080082063 0.46744864673147446 a25.730297414326365,25.730297414326365 0 0,0 -0.04756147272940882,0.44036016808129225 l -4.698400305851602 -0.5484051366975581" fill="#ff3f05" stroke="none" /><path d="M 120.8583938346157 102.4346265915055 l 0.8078956812295521 0.09429893424582395 a21.81338042805889,21.81338042805889 0 0,0 -0.04674139035652343,0.3725748704056928 l -0.8061527816261806 -0.10819155893891166" fill="#ff0801" stroke="none" /><path d="M 120.81339534386255 102.79330883721812 l 3.2979562648165635 0.4426096860735144 a24.32752443399728,24.32752443399728 0 0,0 -0.05927337495629948,0.41455784639110266 l -3.2898488388436626 -0.4993130044450264" fill="#ff2c04" stroke="none" /><path d="M 120.49622156327973 104.57218783832717 l 0.6995720745303169 0.15605680887697218 a21.71676691822343,21.71676691822343 0 0,0 -0.08452934465303218,0.3641502044267755 l -0.6967821639467319 -0.16807567065231258" fill="#ff0701" stroke="none" /><path d="M 120.41448212921028 104.9243191809786 l 2.3209723034978555 0.5598578675812192 a23.38754125943338,23.38754125943338 0 0,0 -0.09776959566836636,0.39054093450609767 l -2.310991393534428 -0.5997266414847128" fill="#ff1e03" stroke="none" /><path d="M 120.32669344350535 105.2749913415812 l 4.805903779074007 1.2471827202760224 a25.965095756526043,25.965095756526043 0 0,0 -0.1159921705185555,0.4316500166461114 l -4.783723532213674 -1.329723670097682" fill="#ff4306" stroke="none" /><path d="M 118.64920377521936 109.65438752849418 l 55.94761132565807 28.96316258548255 a84.0,84.0 0 0,0 -0.6757899671004277,1.2783399396554627 l -55.44076885033275 -29.921917540224147" fill="#4dd2ff" stroke="none" /><line stroke="#e1ed5e" stroke-width="0.3" x1="174.80103733775053" x2="179.2010983576182" y1="140.37084112569926" y2="142.7455964860345" /><path d="M 175.68104954172406 140.8457921977663 a86.0,86.0 0 0,1 -30.038265399797805,32.042727171017184" fill="none" id="id17" stroke="none" /><text fill="#e1ed5e" style="font-size:6.75px; font-family:Arial;" text-anchor="middle"><textPath startOffset="22.206326154141568" xlink:href="#id17">May</textPath></text><path d="M 118.12598468904814 110.60418214915192 l 0.37049620343566436 0.2167501128462748 a21.429241247061736,21.429241247061736 0 0,0 -0.18900501420153354,0.31678327534987505 l -0.3667103135359036 -0.22309548208225397" fill="#ff0200" stroke="none" /><line stroke="#e1ed5e" stroke-width="0.3" x1="143.8653032363475" x2="146.44561519142675" y1="172.8068346515853" y2="177.08958963109032" /><path d="M 144.38136562736335 173.6633856474863 a86.0,86.0 0 0,1 -40.68145358897372,12.25698825130547" fill="none" id="id18" stroke="none" /><text fill="#e1ed5e" style="font-size:6.75px; font-family:Arial;" text-anchor="middle"><textPath startOffset="21.466115282336833" xlink:href="#id18">June</textPath></text><path d="M 103.7750983002368 120.6578951692458 l 0.14406462599129635 0.7883428998757772 a21.801398243226526,21.801398243226526 0 0,0 -0.3697424003653605,0.06428445568810597 l -0.13047325415388591 -0.7907059340848894" fill="#ff0801" stroke="none" /><path d="M 101.98527174616119 120.90594882070398 l 0.054253451262283404 0.571317190016446 a21.573887418037856,21.573887418037856 0 0,0 -0.36999800676240924,0.03192498489387914 l -0.044411126758332496 -0.5721664271889886" fill="#ff0500" stroke="none" /><line stroke="#e1ed5e" stroke-width="0.3" x1="102.19456741930631" x2="102.32365962044197" y1="184.97166512339345" y2="189.96999836594603" /><path d="M 102.22038585953345 185.97133177190398 a86.0,86.0 0 0,1 -42.740103519485714,-10.115201625700543" fill="none" id="id19" stroke="none" /><text fill="#e1ed5e" style="font-size:6.75px; font-family:Arial;" text-anchor="middle"><textPath startOffset="22.20632615414155" xlink:href="#id19">July</textPath></text><path d="M 99.09653310690486 120.98055641714683 l -0.0350183678344708 0.8132061590774288 a21.81395979215638,21.81395979215638 0 0,0 -0.3750047504817553,-0.019383462143009345 l 0.04901118672971505 -0.8124828901722175" fill="#ff0801" stroke="none" /><path d="M 98.37488393609728 120.93702456842531 l -0.06502937214609503 0.8377995840016305 a21.840319559569465,21.840319559569465 0 0,0 -0.3745673900818806,-0.03231925051364542 l 0.07944107996951731 -0.8365560812093217" fill="#ff0801" stroke="none" /><path d="M 98.01472825383883 120.90594882070398 l -0.0884746435998289 0.9316842264060923 a21.935875664975875,21.935875664975875 0 0,0 -0.37559170733513947,-0.038931616167121916 l 0.1044989475405617 -0.9300232417832097" fill="#ff0a01" stroke="none" /><path d="M 97.65516085044442 120.86867818915974 l -0.11131821438314553 0.9907135817798193 a21.996947915377955,21.996947915377955 0 0,0 -0.37590958968552646,-0.045517416253275926 l 0.12835522712006134 -0.9886506368011948" fill="#ff0b01" stroke="none" /><path d="M 97.2962882734958 120.8252237178851 l -0.16778499757763732 1.2923567541636305 a22.30320289496474,22.30320289496474 0 0,0 -0.38029234674504636,-0.05270505402710559 l 0.19000593550951472 -1.28927713464392" fill="#ff0f01" stroke="none" /><path d="M 96.93821686468263 120.77559828337769 l -0.19146542461261729 1.2991804354215837 a22.31321316342942,22.31321316342942 0 0,0 -0.37949902426834936,-0.05926994279909208 l 0.21380031248948378 -1.2956921852753858" fill="#ff0f01" stroke="none" /><path d="M 96.58105272829116 120.7198165907248 l -0.21224459208055824 1.2862640663318394 a22.30365755288878,22.30365755288878 0 0,0 -0.3782605036855486,-0.06576543713597953 l 0.23435406723815677 -1.2824200506748538" fill="#ff0f01" stroke="none" /><path d="M 96.22490169976321 120.6578951692458 l -0.23732491968004782 1.2986769937865161 a22.320183718916244,22.320183718916244 0 0,0 -0.3773518128059452,-0.07232037302914138 l 0.2596443470576881 -1.2943994224089066" fill="#ff0f01" stroke="none" /><path d="M 95.86986931433489 120.58985236759428 l -0.08927479563751493 0.44505973350999967 a21.453925275269082,21.453925275269082 0 0,0 -0.36145628324981405,-0.0757466785286141 l 0.09692254031671575 -0.4434570742548444" fill="#ff0300" stroke="none" /><path d="M 95.16358092515715 120.4354850818985 l -0.3028383368913758 1.27959306668886 a22.314940863540766,22.314940863540766 0 0,0 -0.37302793768073766,-0.09168119135729197 l 0.32481955931532397 -1.2741906170175379" fill="#ff0f01" stroke="none" /><path d="M 94.46302465271185 120.25689768951611 l -0.4132831827942455 1.5119870733686573 a22.567452678460967,22.567452678460967 0 0,0 -0.3738339715290771,-0.10564921448072932 l 0.43924832242793643 -1.5046490655494067" fill="#ff1302" stroke="none" /><path d="M 93.08242187328487 119.8279376855182 l -0.8156066807934288 2.3377832742083906 a23.47597352468143,23.47597352468143 0 0,0 -0.38040069455350006,-0.13639815505843952 l 0.8557269359766555 -2.323397578109993" fill="#ff2003" stroke="none" /><path d="M 92.7421414339146 119.70592522655815 l -0.6009269842779147 1.6315862469594362 a22.7387314116046,22.7387314116046 0 0,0 -0.36612582059033727,-0.1384374572061388 l 0.628923025628535 -1.6210005396466642" fill="#ff1502" stroke="none" /><path d="M 91.7346041902142 119.30500536409082 l -0.5325326110622371 1.243805517569788 a22.353012619077077,22.353012619077077 0 0,0 -0.35241049225195187,-0.15448640341354755 l 0.5538637779719323 -1.2344545608617883" fill="#ff1001" stroke="none" /><path d="M 91.40352486487194 119.15986991738527 l -0.5539403517947361 1.2346252290090156 a22.35319967833725,22.35319967833725 0 0,0 -0.34970197577786727,-0.16053102528083177 l 0.5751103233400229 -1.2249071333941095" fill="#ff1001" stroke="none" /><path d="M 90.7491055286396 118.85261126421891 l -0.7816576645393828 1.5929581876520065 a22.77440257330199,22.77440257330199 0 0,0 -0.35045043792486774,-0.17572312480727942 l 0.8089620101470111 -1.579267221935425" fill="#ff1602" stroke="none" /><path d="M 90.42595943632237 118.69057910512821 l -0.6169209463451137 1.2043619068232472 a22.35317369788445,22.35317369788445 0 0,0 -0.34094880442084974,-0.1783683002373415 l 0.6375606532924591 -1.1935641876411889" fill="#ff1001" stroke="none" /><path d="M 90.10565033884886 118.52300852407294 l -0.6381396496291809 1.1946481147761487 a22.354402573301993,22.354402573301993 0 0,0 -0.3378465443367149,-0.18422087331597412 l 0.6586090058345363 -1.1834865897004088" fill="#ff1001" stroke="none" /><line stroke="#e1ed5e" stroke-width="0.3" x1="58.666819895761336" x2="56.23545636021788" y1="174.27360380694188" y2="178.64263932499728" /><path d="M 58.180547188652646 175.14741091055294 a86.0,86.0 0 0,1 -31.652253787137756,-30.449443065178592" fill="none" id="id20" stroke="none" /><text fill="#e1ed5e" style="font-size:6.75px; font-family:Arial;" text-anchor="middle"><textPath startOffset="22.20632615414155" xlink:href="#id20">August</textPath></text><path d="M 89.4739219176387 118.17145234162733 l -0.6780771098912871 1.1705827935083908 a22.352794383273537,22.352794383273537 0 0,0 -0.3312813230652879,-0.19572684497240928 l 0.6981263039849571 -1.158737376242232" fill="#ff1001" stroke="none" /><path d="M 88.8546689885994 117.79835938074946 l -1.130727820022763 1.8056978372370005 a23.130514041816156,23.130514041816156 0 0,0 -0.33563278840716915,-0.2142167254772206 l 1.1616424104768557 -1.7859666829359757" fill="#ff1b02" stroke="none" /><path d="M 88.24862548938628 117.40417183066458 l -1.1049286946755545 1.6364357076184248 a22.974535197327725,22.974535197327725 0 0,0 -0.3258479589291976,-0.22412119739182182 l 1.1329335382276424 -1.6171737208615018" fill="#ff1902" stroke="none" /><path d="M 87.95078237400918 117.19931262002967 l -0.8364732938420283 1.1939999861951163 a22.457848942224423,22.457848942224423 0 0,0 -0.31470148661878233,-0.22453115485979752 l 0.8569021083096975 -1.1794245694910994" fill="#ff1101" stroke="none" /><path d="M 87.07902340077011 116.55440617244103 l -0.44478339884648205 0.5698582445929329 a21.722890510948904,21.722890510948904 0 0,0 -0.2927857807450137,-0.23260673169962703 l 0.45452667230885385 -0.5621175988881751" fill="#ff0701" stroke="none" /><path d="M 85.70375840098266 115.38237550388516 l -0.5383172571221728 0.579215042773475 a21.790743659532353,21.790743659532353 0 0,0 -0.27255464292069814,-0.2577174268845742 l 0.5482077344336879 -0.56986297914297" fill="#ff0801" stroke="none" /><path d="M 85.44109423537348 115.13401014063109 l -0.19271682819327224 0.20032950822675105 a21.277977854756898,21.277977854756898 0 0,0 -0.2617698377201543,-0.25619688145672015 l 0.19613661828922074 -0.1969825238474612" fill="#ff0000" stroke="none" /><path d="M 84.67929136418377 114.36230785411682 l -0.41760350959548453 0.39147994445561357 a21.572406532228133,21.572406532228133 0 0,0 -0.25163040324979435,-0.2730951051194351 l 0.42428032084100786 -0.38423358453483436" fill="#ff0400" stroke="none" /><path d="M 84.19399662182784 113.82643327865904 l -0.3025608905964455 0.2646676624364468 a21.40198515402697,21.40198515402697 0 0,0 -0.24016848150483075,-0.27937020257732076 l 0.307071881672055 -0.2594203606975958" fill="#ff0200" stroke="none" /><path d="M 83.72743513129214 113.27417163493432 l -1.04759644137075 0.8545656495518382 a22.351939626376346,22.351939626376346 0 0,0 -0.240636818112136,-0.30023143019713916 l 1.062151171537747 -0.8364063857764394" fill="#ff1001" stroke="none" /><path d="M 83.50135304334701 112.99209946851258 l -1.0626532953966263 0.8368017905109739 a22.352578745515277,22.352578745515277 0 0,0 -0.23543990648115615,-0.3043378167456763 l 1.0769000190958509 -0.818385979652045" fill="#ff1001" stroke="none" /><path d="M 83.28015986056508 112.70617746262583 l -0.49868272924597973 0.3789719998818218 a21.626341952245454,21.626341952245454 0 0,0 -0.2226882280844047,-0.2983272727091922 l 0.5051322240254695 -0.37033184766332156" fill="#ff0500" stroke="none" /><path d="M 82.44556493220864 111.52570212397912 l -0.6662888663396083 0.4374647758414171 a21.797067301744402,21.797067301744402 0 0,0 -0.20322665572975124,-0.3154122827646954 l 0.6737203854464052 -0.42593089315527344" fill="#ff0801" stroke="none" /><line stroke="#e1ed5e" stroke-width="0.3" x1="26.63291911575756" x2="22.317208475507996" y1="142.92168965132927" y2="145.44649492493687" /><path d="M 25.769776987707644 143.4266507060508 a86.0,86.0 0 0,1 -11.730757126820373,-40.83630448921669" fill="none" id="id21" stroke="none" /><text fill="#e1ed5e" style="font-size:6.75px; font-family:Arial;" text-anchor="middle"><textPath startOffset="21.46611528233685" xlink:href="#id21">September</textPath></text><path d="M 81.69416730710424 110.29060199501025 l -3.0068083221633213 1.6902737088095101 a24.449336385005566,24.449336385005566 0 0,0 -0.20307338280001663,-0.368637176433408 l 3.0354581144148547 -1.6382660139782794" fill="#ff2d04" stroke="none" /><path d="M 81.51974371655577 109.97397251340807 l -0.47095274419325933 0.2541777372376473 a21.535166151181492,21.535166151181492 0 0,0 -0.17325296696202128,-0.32772932140681443 l 0.47525821938016666 -0.24603340074470667" fill="#ff0400" stroke="none" /><path d="M 81.18737489456691 109.33194174019688 l -0.7101155026652708 0.3522504946834412 a21.792681801311396,21.792681801311396 0 0,0 -0.1638049453318421,-0.3374867048057532 l 0.7160737046118318 -0.33997483391240324" fill="#ff0801" stroke="none" /><path d="M 80.58989483394504 108.01547362559985 l -0.4166244718408847 0.1720465931148177 a21.450750463936657,21.450750463936657 0 0,0 -0.1379971576140461,-0.3424976281335332 l 0.4195242437123186 -0.16484959713847913" fill="#ff0300" stroke="none" /><path d="M 80.45479744820244 107.68017299344265 l -1.0787728268756633 0.42389747095602615 a22.15906853890882,22.15906853890882 0 0,0 -0.13644258671240062,-0.3562085390316394 l 1.085909693181573 -0.4052653650912289" fill="#ff0d01" stroke="none" /><path d="M 80.20201598880116 107.00284435728193 l -0.5024151768315167 0.17771179550893787 a21.532918842014105,21.532918842014105 0 0,0 -0.1205937472560085,-0.35050187820777284 l 0.5053997550307536 -0.16903721421186818" fill="#ff0400" stroke="none" /><path d="M 79.67330655649465 105.27499134158121 l -0.8345562439229129 0.21657614766470984 a21.86220029691946,21.86220029691946 0 0,0 -0.09139303955641623,-0.36506976255465373 l 0.8381605977743877 -0.20217854571266422" fill="#ff0901" stroke="none" /><path d="M 79.50377843672027 104.57218783832718 l -0.7702882228609815 0.17183179024964013 a21.789221204998146,21.789221204998146 0 0,0 -0.07850963656771352,-0.3667708848405299 l 0.7731318981531359 -0.15854708599294645" fill="#ff0801" stroke="none" /><path d="M 79.10278846688536 102.07522291339032 l -0.6886126290599067 0.06838351155179569 a21.691999752567117,21.691999752567117 0 0,0 -0.033700488070718286,-0.37188207764400283 l 0.6896877134077003 -0.056520045359226674" fill="#ff0601" stroke="none" /><line stroke="#e1ed5e" stroke-width="0.3" x1="15.007084014347285" x2="10.007500721073583" y1="101.09737516637583" y2="101.16192664675087" /><path d="M 14.007167355692545 101.11028546245083 a86.0,86.0 0 0,1 10.666146001902534,-42.60595125391555" fill="none" id="id22" stroke="none" /><text fill="#e1ed5e" style="font-size:6.75px; font-family:Arial;" text-anchor="middle"><textPath startOffset="22.20632615414155" xlink:href="#id22">October</textPath></text><path d="M 79.81627453868168 94.20196356495316 l -0.5155327506918129 -0.1480934566663403 a21.536382036372633,21.536382036372633 0 0,0 0.10541967004230832,-0.35542272045745144 l 0.5129071835377976 0.15694556387033093" fill="#ff0400" stroke="none" /><path d="M 81.10775173730289 90.83032412892265 l -0.5937910992991117 -0.2882066676232756 a21.660038599529877,21.660038599529877 0 0,0 0.1656889676217647,-0.33401884824762534 l 0.5887421187239341 0.2983851043698625" fill="#ff0600" stroke="none" /><line stroke="#e1ed5e" stroke-width="0.3" x1="26.266209847984243" x2="21.928928074336255" y1="57.711370442889674" y2="55.22380399835377" /><path d="M 25.398753493254645 57.213857153982495 a86.0,86.0 0 0,1 29.58750427330803,-30.492523968695096" fill="none" id="id23" stroke="none" /><text fill="#e1ed5e" style="font-size:6.75px; font-family:Arial;" text-anchor="middle"><textPath startOffset="21.46611528233685" xlink:href="#id23">November</textPath></text><line stroke="#e1ed5e" stroke-width="0.3" x1="56.762969772571076" x2="54.21961505331055" y1="26.818313649435495" y2="22.513508569990535" /><path d="M 56.25429882871897 25.957352633546506 a86.0,86.0 0 0,1 42.265352541879196,-11.944610805530505" fill="none" id="id24" stroke="none" /><text fill="#e1ed5e" style="font-size:6.75px; font-family:Arial;" text-anchor="middle"><textPath startOffset="22.20632615414155" xlink:href="#id24">December</textPath></text><path d="M 99.27714615592234 79.0124445844662 l -0.02261299307354663 -0.6565524263728655 a21.656941729555857,21.656941729555857 0 0,0 0.3726781859141922,-0.00962517803441667 l 0.011308171964475392 0.6568443965496418" fill="#ff0600" stroke="none" /><path d="M 99.63851952072746 79.00311137660856 l -0.025380240756920712 -1.4742319958199892 a22.474450451565012,22.474450451565012 0 0,0 0.3868607200294561,-0.003329832353581652 l 3.6113620520209234e-16 1.474450451565012" fill="#ff1101" stroke="none" /></svg>