<?xml version="1.0" encoding="utf-8" ?>
<svg baseProfile="full" height="200mm" version="1.1" viewBox="0,0,200,200" width="200mm" xmlns="http://www.w3.org/2000/svg" xmlns:ev="http://www.w3.org/2001/xml-events" xmlns:xlink="http://www.w3.org/1999/xlink"><defs /><rect fill="#1a1a1a" height="200" width="200" x="0" y="0" /><rect fill="#1a1a1a" height="200" width="180" x="10" y="0" /><text alignment-baseline="middle" fill="#e1ed5e" style="dominant-baseline: central; font-size:9.0px; font-family:Arial;" text-anchor="middle" x="100.0" y="100.0">2026</text><line stroke="#e1ed5e" stroke-width="0.3" x1="100.0" x2="100.0" y1="15.0" y2="10.0" /><path d="M 100.0 14.0 a86.0,86.0 0 0,1 42.46469731375804,11.215312516191453" fill="none" id="id157" stroke="none" /><text fill="#e1ed5e" style="font-size:6.75px; font-family:Arial;" text-anchor="middle"><textPath startOffset="22.20632615414155" xlink:href="#id157">January</textPath></text><path d="M 100.0 79.0 l 0.0 -8.630652090379911 a29.63065209037991,29.63065209037991 0 0,0 0.5100429675613369,0.004390100848112095 l -0.14856248828880853 8.629373366140358" fill="red" stroke="none" /><path d="M 100.36148047927253 79.00311137660856 l 0.10394197143221659 -6.037554232112716 a27.038448893476485,27.038448893476485 0 0,0 0.46528453598796193,0.012016926841476283 l -0.20785314261504634 6.0348705131288805" fill="red" stroke="none" /><path d="M 103.59715602781102 79.31037775812273 l 1.874154896292681 -10.779503732190419 a31.941213702675082,31.941213702675082 0 0,0 0.5408786395507684,0.09884211416864451 l -2.0594286569463502 10.745646136671034" fill="red" stroke="none" /><line stroke="#e1ed5e" stroke-width="0.3" x1="143.23703022742887" x2="145.7803849466894" y1="26.81831364943548" y2="22.513508569990506" /><path d="M 143.74570117128098 25.957352633546492 a86.0,86.0 0 0,1 28.547481713284135,27.462654790039103" fill="none" id="id158" stroke="none" /><text fill="#e1ed5e" style="font-size:6.75px; font-family:Arial;" text-anchor="middle"><textPath startOffset="19.985693538727396" xlink:href="#id158">February</textPath></text><path d="M 116.15771136456269 86.58626213691792 l 4.4515795659780775 -3.6955927747072175 a26.785669070099132,26.785669070099132 0 0,0 0.29145551301237843,0.3572899968654013 l -4.514533571066864 3.618418608233715" fill="red" stroke="none" /><line stroke="#e1ed5e" stroke-width="0.3" x1="172.23445277983987" x2="176.4835382374775" y1="55.19839476539836" y2="52.563006222186495" /><path d="M 173.08426987136738 54.67131705675599 a86.0,86.0 0 0,1 12.851231095245387,41.99856678651699" fill="none" id="id159" stroke="none" /><text fill="#e1ed5e" style="font-size:6.75px; font-family:Arial;" text-anchor="middle"><textPath startOffset="22.20632615414155" xlink:href="#id159">March</textPath></text><path d="M 119.85752413597 93.16781622104841 l 9.882776955688206 -3.400270242418679 a31.451369196299584,31.451369196299584 0 0,0 0.1717285288871857,0.5134464433529572 l -9.939842778347161 3.2296506961434077" fill="red" stroke="none" /><path d="M 120.6074358757038 95.95851677861258 l 12.343023605131284 -2.420685576905788 a33.578153695160026,33.578153695160026 0 0,0 0.10635364692747869,0.5681454345819911 l -12.382862975968623 2.207862064861234" fill="red" stroke="none" /><path d="M 120.91429891909075 98.10471618934814 l 18.24423433573489 -1.6533187226607964 a39.31899422173359,39.31899422173359 0 0,0 0.055281600004523215,0.6745755432132747 l -18.26999041955891 1.3390292622397528" fill="red" stroke="none" /><path d="M 120.96714384426684 98.82574320788733 l 31.729330764502595 -1.7769889135183459 a52.77905159632644,52.77905159632644 0 0,0 0.042993292079583974,0.9075204444954815 l -31.755217664815678 1.2305573623998645" fill="red" stroke="none" /><line stroke="#e1ed5e" stroke-width="0.3" x1="184.98032266829074" x2="189.97916517819016" y1="98.17113171792111" y2="98.06355123074" /><path d="M 185.9800911702706 98.14961562048488 a86.0,86.0 0 0,1 -9.607161424134198,41.387399972396054" fill="none" id="id160" stroke="none" /><text fill="#e1ed5e" style="font-size:6.75px; font-family:Arial;" text-anchor="middle"><textPath startOffset="21.466115282336823" xlink:href="#id160">April</textPath></text><path d="M 120.99513854157772 99.54816195383933 l 44.859781836300314 -0.965430932306892 a65.87016919163014,65.87016919163014 0 0,0 0.014638838608200488,1.1337941827712883 l -44.86975368202623 0.19310049147514094" fill="red" stroke="none" /><path d="M 120.99980553446 99.90962569577887 l 29.949089178090055 -0.12888824575470362 a50.94936651712494,50.94936651712494 0 0,0 -0.003774384170895033,0.8770339565460576 l -29.946870496629657 -0.38665518899503876" fill="red" stroke="none" /><path d="M 120.9904718944345 100.63252640178507 l 46.70670967820032 1.4074589251995415 a67.72791103387584,67.72791103387584 0 0,0 -0.04514506194846302,1.1649934513165285 l -46.675562483400654 -2.2112296235300763" fill="red" stroke="none" /><path d="M 120.9764740272857 100.99374915477107 l 14.370523240344477 0.6807957955724239 a35.38664036933397,35.38664036933397 0 0,0 -0.0340615776997575,0.6081923511028252 l -14.35667531175719 -0.9280598630106724" fill="red" stroke="none" /><path d="M 120.89721153311464 102.0752229133903 l 20.835336194397147 2.069078307901818 a41.93782031104923,41.93782031104923 0 0,0 -0.0775204602160653,0.7177431843774188 l -20.79663343268003 -2.4274178141640284" fill="red" stroke="none" /><path d="M 119.41010516605496 108.01547362559984 l 6.837500822146097 2.8235708686821264 a28.39756513613222,28.39756513613222 0 0,0 -0.19046519933103426,0.45020346870823036 l -6.787884641622754 -2.94084886305652" fill="red" stroke="none" /><line stroke="#e1ed5e" stroke-width="0.3" x1="174.80103733775053" x2="179.2010983576182" y1="140.37084112569926" y2="142.7455964860345" /><path d="M 175.68104954172406 140.8457921977663 a86.0,86.0 0 0,1 -30.038265399797805,32.042727171017184" fill="none" id="id161" stroke="none" /><text fill="#e1ed5e" style="font-size:6.75px; font-family:Arial;" text-anchor="middle"><textPath startOffset="22.206326154141568" xlink:href="#id161">May</textPath></text><path d="M 118.30583269289576 110.29060199501025 l 54.91749807868728 30.871805985030733 a84.0,84.0 0 0,0 -0.7193920153904818,1.2543206165667395 l -54.37795406714442 -31.812546447455787" fill="red" stroke="none" /><line stroke="#e1ed5e" stroke-width="0.3" x1="143.8653032363475" x2="146.44561519142675" y1="172.8068346515853" y2="177.08958963109032" /><path d="M 144.38136562736335 173.6633856474863 a86.0,86.0 0 0,1 -40.68145358897372,12.25698825130547" fill="none" id="id162" stroke="none" /><text fill="#e1ed5e" style="font-size:6.75px; font-family:Arial;" text-anchor="middle"><textPath startOffset="21.466115282336833" xlink:href="#id162">June</textPath></text><line stroke="#e1ed5e" stroke-width="0.3" x1="102.19456741930631" x2="102.32365962044197" y1="184.97166512339345" y2="189.96999836594603" /><path d="M 102.22038585953345 185.97133177190398 a86.0,86.0 0 0,1 -42.740103519485714,-10.115201625700543" fill="none" id="id163" stroke="none" /><text fill="#e1ed5e" style="font-size:6.75px; font-family:Arial;" text-anchor="middle"><textPath startOffset="22.20632615414155" xlink:href="#id163">July</textPath></text><line stroke="#e1ed5e" stroke-width="0.3" x1="58.666819895761336" x2="56.23545636021788" y1="174.27360380694188" y2="178.64263932499728" /><path d="M 58.180547188652646 175.14741091055294 a86.0,86.0 0 0,1 -31.652253787137756,-30.449443065178592" fill="none" id="id164" stroke="none" /><text fill="#e1ed5e" style="font-size:6.75px; font-family:Arial;" text-anchor="middle"><textPath startOffset="22.20632615414155" xlink:href="#id164">August</textPath></text><line stroke="#e1ed5e" stroke-width="0.3" x1="26.63291911575756" x2="22.317208475507996" y1="142.92168965132927" y2="145.44649492493687" /><path d="M 25.769776987707644 143.4266507060508 a86.0,86.0 0 0,1 -11.730757126820373,-40.83630448921669" fill="none" id="id165" stroke="none" /><text fill="#e1ed5e" style="font-size:6.75px; font-family:Arial;" text-anchor="middle"><textPath startOffset="21.46611528233685" xlink:href="#id165">September</textPath></text><line stroke="#e1ed5e" stroke-width="0.3" x1="15.007084014347285" x2="10.007500721073583" y1="101.09737516637583" y2="101.16192664675087" /><path d="M 14.007167355692545 101.11028546245083 a86.0,86.0 0 0,1 10.666146001902534,-42.60595125391555" fill="none" id="id166" stroke="none" /><text fill="#e1ed5e" style="font-size:6.75px; font-family:Arial;" text-anchor="middle"><textPath startOffset="22.20632615414155" xlink:href="#id166">October</textPath></text><line stroke="#e1ed5e" stroke-width="0.3" x1="26.266209847984243" x2="21.928928074336255" y1="57.711370442889674" y2="55.22380399835377" /><path d="M 25.398753493254645 57.213857153982495 a86.0,86.0 0 0,1 29.58750427330803,-30.492523968695096" fill="none" id="id167" stroke="none" /><text fill="#e1ed5e" style="font-size:6.75px; font-family:Arial;" text-anchor="middle"><textPath startOffset="21.46611528233685" xlink:href="#id167">November</textPath></text><line stroke="#e1ed5e" stroke-width="0.3" x1="56.762969772571076" x2="54.21961505331055" y1="26.818313649435495" y2="22.513508569990535" /><path d="M 56.25429882871897 25.957352633546506 a86.0,86.0 0 0,1 42.265352541879196,-11.944610805530505" fill="none" id="id168" stroke="none" /><text fill="#e1ed5e" style="font-size:6.75px; font-family:Arial;" text-anchor="middle"><textPath startOffset="22.20632615414155" xlink:href="#id168">December</textPath></text></svg>