<?xml version="1.0" encoding="utf-8" ?>
<svg baseProfile="full" height="200mm" version="1.1" viewBox="0,0,200,200" width="200mm" xmlns="http://www.w3.org/2000/svg" xmlns:ev="http://www.w3.org/2001/xml-events" xmlns:xlink="http://www.w3.org/1999/xlink"><defs /><rect fill="#1a1a1a" height="200" width="200" x="0" y="0" /><text alignment-baseline="middle" fill="#e1ed5e" style="dominant-baseline: central; font-size:9.0px; font-family:Arial;" text-anchor="middle" x="100.0" y="100.0">2013</text><line stroke="#e1ed5e" stroke-width="0.3" x1="100.0" x2="100.0" y1="15.0" y2="10.0" /><path d="M 100.0 14.0 a86.0,86.0 0 0,1 42.46469731375804,11.215312516191453" fill="none" id="id1" stroke="none" /><text fill="#e1ed5e" style="font-size:6.75px; font-family:Arial;" text-anchor="middle"><textPath startOffset="22.20632615414155" xlink:href="#id1">January</textPath></text><line stroke="#e1ed5e" stroke-width="0.3" x1="143.23703022742887" x2="145.7803849466894" y1="26.81831364943548" y2="22.513508569990506" /><path d="M 143.74570117128098 25.957352633546492 a86.0,86.0 0 0,1 28.547481713284135,27.462654790039103" fill="none" id="id2" stroke="none" /><text fill="#e1ed5e" style="font-size:6.75px; font-family:Arial;" text-anchor="middle"><textPath startOffset="19.985693538727396" xlink:href="#id2">February</textPath></text><line stroke="#e1ed5e" stroke-width="0.3" x1="172.23445277983987" x2="176.4835382374775" y1="55.19839476539836" y2="52.563006222186495" /><path d="M 173.08426987136738 54.67131705675599 a86.0,86.0 0 0,1 12.851231095245387,41.99856678651699" fill="none" id="id3" stroke="none" /><text fill="#e1ed5e" style="font-size:6.75px; font-family:Arial;" text-anchor="middle"><textPath startOffset="22.20632615414155" xlink:href="#id3">March</textPath></text><line stroke="#e1ed5e" stroke-width="0.3" x1="184.98032266829074" x2="189.97916517819016" y1="98.17113171792111" y2="98.06355123074" /><path d="M 185.9800911702706 98.14961562048488 a86.0,86.0 0 0,1 -9.607161424134198,41.387399972396054" fill="none" id="id4" stroke="none" /><text fill="#e1ed5e" style="font-size:6.75px; font-family:Arial;" text-anchor="middle"><textPath startOffset="21.466115282336823" xlink:href="#id4">April</textPath></text><path d="M 119.26925614724726 108.34839909993367 l 8.747574814589706 3.789884007492198 a30.53327257173995,30.53327257173995 0 0,0 -0.21309158608183737,0.4804652720787456 l -8.681042143776596 -3.939897616063631" fill="#ff2904" stroke="none" /><path d="M 119.12269723197855 108.67885076344098 l 8.733337527027322 3.9636319157465767 a30.590701868190283,30.590701868190283 0 0,0 -0.22174672919160726,0.4776227271635991 l -8.663816180995884 -4.113374710189007" fill="#ff2a04" stroke="none" /><line stroke="#e1ed5e" stroke-width="0.3" x1="174.80103733775053" x2="179.2010983576182" y1="140.37084112569926" y2="142.7455964860345" /><path d="M 175.68104954172406 140.8457921977663 a86.0,86.0 0 0,1 -30.038265399797805,32.042727171017184" fill="none" id="id5" stroke="none" /><text fill="#e1ed5e" style="font-size:6.75px; font-family:Arial;" text-anchor="middle"><textPath startOffset="22.206326154141568" xlink:href="#id5">May</textPath></text><path d="M 118.12598468904814 110.60418214915192 l 12.64027190581383 7.3948945673029005 a35.64448495217337,35.64448495217337 0 0,0 -0.3143828709061557,0.5269237749076653 l -12.511108159209446 -7.6113804360966695" fill="#ff780b" stroke="none" /><path d="M 117.75023020441432 111.22182372390056 l 9.951131739685623 6.291177350944584 a32.77301725818903,32.77301725818903 0 0,0 -0.30556178055301947,0.4742386690554806 l -9.841365095755553 -6.4615376199215175" fill="#ff4c07" stroke="none" /><path d="M 117.35343817320211 111.8261652097733 l 15.043865483244204 10.252218426270696 a39.20510563929555,39.20510563929555 0 0,0 -0.3848430910046192,0.5543951755461795 l -14.865161485077449 -10.509654864003895" fill="#ffac0f" stroke="none" /><path d="M 116.93607887273984 112.41649034213515 l 12.458902658876417 9.13410038415314 a36.44849653821188,36.44849653821188 0 0,0 -0.3753131772519647,0.5027933337318714 l -12.29982821492936 -9.347206597394326" fill="#ff840c" stroke="none" /><path d="M 115.32070863581623 114.36230785411682 l 8.882379556358895 8.326734271762586 a33.17502239077071,33.17502239077071 0 0,0 -0.39414051163587877,0.4132547506972189 l -8.737732493344053 -8.478396139042312" fill="#ff5207" stroke="none" /><path d="M 114.81725581225074 114.88116024355365 l 12.075320910334943 12.127399819233656 a38.113947571005376,38.113947571005376 0 0,0 -0.4688923890531296,0.4589098914544379 l -11.864778568906019 -12.333459813610666" fill="#ff9c0e" stroke="none" /><path d="M 114.29624159901734 115.38237550388516 l 13.840117317451215 14.891597915461341 a41.32999104369172,41.32999104369172 0 0,0 -0.5252853919091333,0.4798357511125611 l -13.581732376075218 -15.127626433160485" fill="#ffca12" stroke="none" /><path d="M 113.75828350139079 115.86535959552629 l 6.509160762501273 7.506036356332784 a30.935278336044526,30.935278336044526 0 0,0 -0.40530300294971455,0.3454080119746144 l -6.378992282974512 -7.616968758530344" fill="#ff3004" stroke="none" /><path d="M 113.20401910651253 116.32954008644616 l 7.980186867502243 9.869175460821305 a33.6918874371282,33.6918874371282 0 0,0 -0.45410649025188315,0.3607696598936612 l -7.809122884533009 -10.005079034720092" fill="#ff5a08" stroke="none" /><path d="M 111.7513745106137 117.40417183066458 l 11.055076516531173 16.37293161928214 a40.75569807918839,40.75569807918839 0 0,0 -0.5847963334178337,0.38757112181993686 l -10.771605484373374 -16.560800762193395" fill="#ffc212" stroke="none" /><line stroke="#e1ed5e" stroke-width="0.3" x1="143.8653032363475" x2="146.44561519142675" y1="172.8068346515853" y2="177.08958963109032" /><path d="M 144.38136562736335 173.6633856474863 a86.0,86.0 0 0,1 -40.68145358897372,12.25698825130547" fill="none" id="id6" stroke="none" /><text fill="#e1ed5e" style="font-size:6.75px; font-family:Arial;" text-anchor="middle"><textPath startOffset="21.466115282336833" xlink:href="#id6">June</textPath></text><path d="M 110.8373102113329 117.98757091392108 l 7.764927649535013 12.888086066911514 a36.04649008475505,36.04649008475505 0 0,0 -0.5342298024301252,0.31563238383733144 l -7.5419299760765055 -13.019837023042594" fill="#ff7e0b" stroke="none" /><path d="M 108.59647513512805 119.15986991738527 l 12.577340563455255 28.032444148850132 a51.72470375133891,51.72470375133891 0 0,0 -0.8154752391200398,0.3574803802220274 l -12.092944649677461 -28.244789082366616" fill="#abff21" stroke="none" /><path d="M 104.83641907484287 120.43548508189849 l 6.666058088525618 28.166320683771595 a49.944394125644735,49.944394125644735 0 0,0 -0.8383044085748226,0.1907953541067967 l -6.180233530557934 -28.276892771456076" fill="#c1ff1e" stroke="none" /><path d="M 103.06178313531738 120.77559828337769 l 3.7176802820657517 25.22616027089264 a46.49863346715707,46.49863346715707 0 0,0 -0.7928491044510536,0.10988166141942292 l -3.2829025864278676 -25.286416497804662" fill="#edff19" stroke="none" /><path d="M 101.98527174616119 120.90594882070398 l 2.6331544087535304 27.728491786001964 a48.853236057354565,48.853236057354565 0 0,0 -0.8378462172747643,0.07229289709948832 l -2.1554638737372245 -27.769708935380116" fill="#cfff1d" stroke="none" /><line stroke="#e1ed5e" stroke-width="0.3" x1="102.19456741930631" x2="102.32365962044197" y1="184.97166512339345" y2="189.96999836594603" /><path d="M 102.22038585953345 185.97133177190398 a86.0,86.0 0 0,1 -42.740103519485714,-10.115201625700543" fill="none" id="id7" stroke="none" /><text fill="#e1ed5e" style="font-size:6.75px; font-family:Arial;" text-anchor="middle"><textPath startOffset="22.20632615414155" xlink:href="#id7">July</textPath></text><path d="M 100.18074693466247 120.99922214144158 l 0.3183255129500077 36.98313430437279 a57.984504243094435,57.984504243094435 0 0,0 -0.9981448952249009,0.0 l 0.3183255129499823 -36.98313430437279" fill="#60ff29" stroke="none" /><path d="M 99.45781275523022 120.99299961872073 l -0.7917812280282769 30.65705285111551 a51.66727583319307,51.66727583319307 0 0,0 -0.8888731068069146,-0.030614587046049264 l 1.3193746865098346 -30.638881465643365" fill="#abff21" stroke="none" /><path d="M 98.37488393609728 120.93702456842531 l -2.3243456361215316 29.945480676696967 a51.03555219393492,51.03555219393492 0 0,0 -0.8752735295163709,-0.07552228308561083 l 2.8394634833794443 -29.901034141332694" fill="#b3ff20" stroke="none" /><path d="M 96.93821686468263 120.77559828337769 l -5.735610183839107 38.9187371616834 a60.33910683329193,60.33910683329193 0 0,0 -1.026236427749816,-0.16027702439642097 l 6.404682475197441 -38.81424182993988" fill="#46ff2c" stroke="none" /><path d="M 95.51606077576429 120.51570834832081 l -4.353140654483044 19.917255698713223 a41.38742034014204,41.38742034014204 0 0,0 -0.6946777018337174,-0.1581063832609277 l 4.695338505709624 -19.83937258187461" fill="#ffcb12" stroke="none" /><path d="M 95.16358092515715 120.4354850818985 l -7.234789014633808 30.569398700015732 a52.41385536617226,52.41385536617226 0 0,0 -0.8761767504875818,-0.21534292799541768 l 7.7599190498646005 -30.440334513706283" fill="#a2ff22" stroke="none" /><path d="M 94.46302465271185 120.25689768951611 l -10.478360231452301 38.33484128954664 a60.7411133441781,60.7411133441781 0 0,0 -1.0061876260506897,-0.28435867365846623 l 11.136679025607606 -38.14879382254965" fill="#41ff2d" stroke="none" /><path d="M 93.76903079525671 120.05430185196036 l -2.658243875556551 8.555526969376556 a29.95897886065502,29.95897886065502 0 0,0 -0.491154140218822,-0.15725204556152525 l 2.805119360866313 -8.508502077155324" fill="#ff2003" stroke="none" /><path d="M 93.42475214034765 119.94407469862007 l -13.630003428690582 41.34259457994414 a64.53144978136777,64.53144978136777 0 0,0 -1.0519556398858871,-0.35688046803532497 l 14.339628801513696 -41.1018511250107" fill="#32ff4b" stroke="none" /><path d="M 92.7421414339146 119.70592522655815 l -13.91365301500141 37.777176758870866 a61.25797839053559,61.25797839053559 0 0,0 -0.9863403195172932,-0.3729495110552392 l 14.561863555278986 -37.53207899770899" fill="#3cff2e" stroke="none" /><path d="M 92.06813273071674 119.44442032107085 l -2.624674538787963 6.434206877848775 a27.94895204915952,27.94895204915952 0 0,0 -0.4438939612157898,-0.18554771178906698 l 2.7350399595012145 -6.388074123039734" fill="#ff0000" stroke="none" /><path d="M 91.40352486487194 119.15986991738527 l -23.53255781051052 52.449491144374036 a78.48678455444164,78.48678455444164 0 0,0 -1.2278771731162599,-0.5636581866054127 l 24.4319029793942 -52.03664588743455" fill="#45fff3" stroke="none" /><path d="M 91.07499286063937 119.00905698771935 l -26.7750214180819 57.02717096315804 a84.0,84.0 0 0,0 -1.3035493279990318,-0.6257828940017505 l 27.752683414081172 -56.55783379265673" fill="#4dd2ff" stroke="none" /><path d="M 90.42595943632237 118.69057910512821 l -11.494085041341513 22.43891743276074 a46.2114856066009,46.2114856066009 0 0,0 -0.7048552022647702,-0.3687469283107605 l 11.87863114613278 -22.23774108550526" fill="#f1ff19" stroke="none" /><line stroke="#e1ed5e" stroke-width="0.3" x1="58.666819895761336" x2="56.23545636021788" y1="174.27360380694188" y2="178.64263932499728" /><path d="M 58.180547188652646 175.14741091055294 a86.0,86.0 0 0,1 -31.652253787137756,-30.449443065178592" fill="none" id="id8" stroke="none" /><text fill="#e1ed5e" style="font-size:6.75px; font-family:Arial;" text-anchor="middle"><textPath startOffset="22.20632615414155" xlink:href="#id8">August</textPath></text><path d="M 89.7882731507175 118.34994917583269 l -12.51099472145572 22.48161556475184 a46.728350652958405,46.728350652958405 0 0,0 -0.6994816498807469,-0.3971839361519697 l 12.896125138257675 -22.262928462805238" fill="#eaff1a" stroke="none" /><path d="M 89.4739219176387 118.17145234162733 l -13.068840926443752 22.561092383793923 a47.0729264316604,47.0729264316604 0 0,0 -0.6976479576309529,-0.4121827104078576 l 13.455256755103088 -22.33279110109232" fill="#e6ff1a" stroke="none" /><path d="M 87.65650970185807 116.9893568818739 l -15.25776945363052 21.00051802269439 a46.95806783875973,46.95806783875973 0 0,0 -0.649843822573725,-0.4807389243684032 l 15.616998246622808 -20.73476914958622" fill="#e7ff1a" stroke="none" /><path d="M 83.95833913139862 113.55231037782056 l -10.660320267959904 9.006048075803752 a34.95533339476937,34.95533339476937 0 0,0 -0.3843488717098713,-0.46297297559954836 l 10.81376513956331 -8.821213843090442" fill="#ff6d0a" stroke="none" /><path d="M 83.06392112726016 112.41649034213515 l -21.490448114536182 15.755473475728298 a47.64721945359308,47.64721945359308 0 0,0 -0.47924074217680596,-0.6656234753037615 l 21.758468649088595 -15.383216394973399" fill="#deff1b" stroke="none" /><line stroke="#e1ed5e" stroke-width="0.3" x1="26.63291911575756" x2="22.317208475507996" y1="142.92168965132927" y2="145.44649492493687" /><path d="M 25.769776987707644 143.4266507060508 a86.0,86.0 0 0,1 -11.730757126820373,-40.83630448921669" fill="none" id="id9" stroke="none" /><text fill="#e1ed5e" style="font-size:6.75px; font-family:Arial;" text-anchor="middle"><textPath startOffset="21.46611528233685" xlink:href="#id9">September</textPath></text><path d="M 79.10278846688536 102.07522291339032 l -18.001700914991257 1.7876807228366727 a39.090247046394886,39.090247046394886 0 0,0 -0.060730242453214116,-0.6701531649017428 l 18.029805753721547 -1.4775461693863636" fill="#ffaa0f" stroke="none" /><line stroke="#e1ed5e" stroke-width="0.3" x1="15.007084014347285" x2="10.007500721073583" y1="101.09737516637583" y2="101.16192664675087" /><path d="M 14.007167355692545 101.11028546245083 a86.0,86.0 0 0,1 10.666146001902534,-42.60595125391555" fill="none" id="id10" stroke="none" /><text fill="#e1ed5e" style="font-size:6.75px; font-family:Arial;" text-anchor="middle"><textPath startOffset="22.20632615414155" xlink:href="#id10">October</textPath></text><path d="M 79.00019446554 99.90962569577889 l -20.329802782611402 -0.08749089501882121 a41.32999104369172,41.32999104369172 0 0,0 0.009185084477418537,-0.7113949150942852 l 20.325284691016268 0.4374220681735783" fill="#ffca12" stroke="none" /><path d="M 79.26566170972629 96.67025291283419 l -19.222263506751194 -3.0869215609529594 a40.468551539507374,40.468551539507374 0 0,0 0.11637240449732204,-0.6868365188073241 l 19.166279240733648 3.4173438680761112" fill="#ffbe11" stroke="none" /><line stroke="#e1ed5e" stroke-width="0.3" x1="26.266209847984243" x2="21.928928074336255" y1="57.711370442889674" y2="55.22380399835377" /><path d="M 25.398753493254645 57.213857153982495 a86.0,86.0 0 0,1 29.58750427330803,-30.492523968695096" fill="none" id="id11" stroke="none" /><text fill="#e1ed5e" style="font-size:6.75px; font-family:Arial;" text-anchor="middle"><textPath startOffset="21.46611528233685" xlink:href="#id11">November</textPath></text><line stroke="#e1ed5e" stroke-width="0.3" x1="56.762969772571076" x2="54.21961505331055" y1="26.818313649435495" y2="22.513508569990535" /><path d="M 56.25429882871897 25.957352633546506 a86.0,86.0 0 0,1 42.265352541879196,-11.944610805530505" fill="none" id="id12" stroke="none" /><text fill="#e1ed5e" style="font-size:6.75px; font-family:Arial;" text-anchor="middle"><textPath startOffset="22.20632615414155" xlink:href="#id12">December</textPath></text></svg>