<?xml version="1.0" encoding="utf-8" ?>
<svg baseProfile="full" height="200mm" version="1.1" viewBox="0,0,200,200" width="200mm" xmlns="http://www.w3.org/2000/svg" xmlns:ev="http://www.w3.org/2001/xml-events" xmlns:xlink="http://www.w3.org/1999/xlink"><defs /><rect fill="#1a1a1a" height="200" width="200" x="0" y="0" /><text alignment-baseline="middle" fill="#e1ed5e" style="dominant-baseline: central; font-size:9.0px; font-family:Arial;" text-anchor="middle" x="100.0" y="100.0">2024</text><line stroke="#e1ed5e" stroke-width="0.3" x1="100.0" x2="100.0" y1="15.0" y2="10.0" /><path d="M 100.0 14.0 a86.0,86.0 0 0,1 42.35913384403234,11.155469271406648" fill="none" id="id133" stroke="none" /><text fill="#e1ed5e" style="font-size:6.75px; font-family:Arial;" text-anchor="middle"><textPath startOffset="22.145653131862478" xlink:href="#id133">January</textPath></text><line stroke="#e1ed5e" stroke-width="0.3" x1="143.13028292997686" x2="145.6673583964461" y1="26.7553504044142" y2="22.446841604673864" /><path d="M 143.63769802327073 25.89364864446614 a86.0,86.0 0 0,1 29.32050498858742,28.57503671076993" fill="none" id="id134" stroke="none" /><text fill="#e1ed5e" style="font-size:6.75px; font-family:Arial;" text-anchor="middle"><textPath startOffset="20.669276256404974" xlink:href="#id134">February</textPath></text><line stroke="#e1ed5e" stroke-width="0.3" x1="172.87174338648825" x2="177.1583165268699" y1="56.24261187166439" y2="53.66864786411523" /><path d="M 173.72905801456457 55.72781907015455 a86.0,86.0 0 0,1 12.242430191666344,42.057860355516425" fill="none" id="id135" stroke="none" /><text fill="#e1ed5e" style="font-size:6.75px; font-family:Arial;" text-anchor="middle"><textPath startOffset="22.145653131862474" xlink:href="#id135">March</textPath></text><path d="M 118.00360718960297 89.18935116829356 l 8.209629639682792 -4.929646716810897 a30.575982224989907,30.575982224989907 0 0,0 0.2663405232169321,0.4523044360223856 l -8.293043873029491 4.787991112494955" fill="#ff5b08" stroke="none" /><path d="M 118.70294669586156 90.45014215332178 l 4.903307724886063 -2.5036638617775884 a26.505520808942457,26.505520808942457 0 0,0 0.20343629258825982,0.407008861746322 l -4.94556393068606 2.4191231438675156" fill="#ff2003" stroke="none" /><path d="M 119.31412917781788 91.75594674310238 l 7.738969924379184 -3.303306073120045 a29.414480762540094,29.414480762540094 0 0,0 0.19423944181633854,0.4661039499732512 l -7.794535210732006 3.1699696137055158" fill="#ff4b06" stroke="none" /><line stroke="#e1ed5e" stroke-width="0.3" x1="184.99686870605535" x2="189.99668451229388" y1="99.2704041080226" y2="99.22748670261217" /><path d="M 185.99683186730306 99.26182062694052 a86.0,86.0 0 0,1 -10.086455211305974,41.156179273409016" fill="none" id="id136" stroke="none" /><text fill="#e1ed5e" style="font-size:6.75px; font-family:Arial;" text-anchor="middle"><textPath startOffset="21.40746469413373" xlink:href="#id136">April</textPath></text><line stroke="#e1ed5e" stroke-width="0.3" x1="174.33088141563837" x2="178.70328620479359" y1="141.23008692659167" y2="143.65538615756765" /><path d="M 175.20536237346943 141.71514677278685 a86.0,86.0 0 0,1 -30.301960400862466,31.631185727798858" fill="none" id="id137" stroke="none" /><text fill="#e1ed5e" style="font-size:6.75px; font-family:Arial;" text-anchor="middle"><textPath startOffset="22.145653131862474" xlink:href="#id137">May</textPath></text><path d="M 118.18653347947321 110.5 l 2.943757612189836 1.699579249826811 a24.399158499653623,24.399158499653623 0 0,0 -0.21253559715702083,0.3609319086922814 l -2.91414830490305 -1.7498623268126419" fill="#ff0000" stroke="none" /><path d="M 114.91283532996324 114.78537596483092 l 4.649980150655671 4.610236969378154 a27.54802262635926,27.54802262635926 0 0,0 -0.3358341131805008,0.33296375339252865 l -4.570154117345206 -4.689380732999345" fill="#ff2f04" stroke="none" /><line stroke="#e1ed5e" stroke-width="0.3" x1="143.1302829299769" x2="145.66735839644613" y1="173.24464959558577" y2="177.55315839532614" /><path d="M 143.63769802327073 174.10635135553383 a86.0,86.0 0 0,1 -40.68552437913181,11.842963189579606" fill="none" id="id138" stroke="none" /><text fill="#e1ed5e" style="font-size:6.75px; font-family:Arial;" text-anchor="middle"><textPath startOffset="21.407464694133747" xlink:href="#id138">June</textPath></text><line stroke="#e1ed5e" stroke-width="0.3" x1="101.45913802915013" x2="101.54496967792366" y1="184.9874750549273" y2="189.98673829345242" /><path d="M 101.47630435890484 185.9873277026323 a86.0,86.0 0 0,1 -42.54439059252881,-10.42667462771756" fill="none" id="id139" stroke="none" /><text fill="#e1ed5e" style="font-size:6.75px; font-family:Arial;" text-anchor="middle"><textPath startOffset="22.145653131862474" xlink:href="#id139">July</textPath></text><path d="M 95.35216902796893 120.47920084513623 l -1.6656670010839494 7.339236142963136 a28.525877604683483,28.525877604683483 0 0,0 -0.4766101541826124,-0.11247869864492893 l 1.7914093090064496 -7.309561300671979" fill="#ff3e05" stroke="none" /><path d="M 94.6519064749342 120.30758222061772 l -2.040499873623983 7.7481103800011075 a29.01229394087239,29.01229394087239 0 0,0 -0.4805245444850032,-0.13096910139712079 l 2.173205819043681 -7.711940784459843" fill="#ff4506" stroke="none" /><path d="M 93.27111125876986 119.89276391827306 l -2.3722951272889836 7.013269014610286 a28.403629275041517,28.403629275041517 0 0,0 -0.46053675338688943,-0.1601985891465042 l 2.4923376527208947 -6.971511992895191" fill="#ff3c05" stroke="none" /><line stroke="#e1ed5e" stroke-width="0.3" x1="58.13341422392154" x2="55.67067388415222" y1="173.97424548756322" y2="178.32567169271397" /><path d="M 57.64086615596768 174.84453072859336 a86.0,86.0 0 0,1 -31.369924170532247,-30.572349798747897" fill="none" id="id140" stroke="none" /><text fill="#e1ed5e" style="font-size:6.75px; font-family:Arial;" text-anchor="middle"><textPath startOffset="22.145653131862474" xlink:href="#id140">August</textPath></text><path d="M 89.65649057296885 118.27599006163327 l -2.145821660058986 3.79146126466399 a25.356573093410205,25.356573093410205 0 0,0 -0.37697681471480904,-0.21764766545384434 l 2.2105909426341945 -3.754066701933974" fill="#ff0e01" stroke="none" /><path d="M 88.72937992617639 117.7192867562869 l -2.8581045674461665 4.493415098575929 a26.325367683697227,26.325367683697227 0 0,0 -0.3792286647826389,-0.24581143880136333 l 2.934818864485815 -4.443689818070672" fill="#ff1d02" stroke="none" /><path d="M 86.68645165197938 116.24036423190432 l -4.287057658550419 5.22951327760679 a27.762149990084627,27.762149990084627 0 0,0 -0.36596550743345624,-0.30530144231529704 l 4.376197500145769 -5.155149651379623" fill="#ff3204" stroke="none" /><path d="M 85.08716467003676 114.78537596483092 l -44.73850598988974 44.35612789449277 a84.0,84.0 0 0,0 -1.0064527953967621,-1.0327092317290507 l 45.493345586437314 -43.581595970695986" fill="#4dd2ff" stroke="none" /><path d="M 84.83555147118756 114.52719865689866 l -11.823750267400339 11.326885292117824 a37.37374119762019,37.37374119762019 0 0,0 -0.4398429575448998,-0.46709797862570746 l 12.016449058681491 -11.122245853547627" fill="#ffb911" stroke="none" /><line stroke="#e1ed5e" stroke-width="0.3" x1="26.387840678322732" x2="22.057713659400548" y1="142.50000000000003" y2="145.00000000000006" /><path d="M 25.521815274538298 143.00000000000003 a86.0,86.0 0 0,1 -11.493303480769221,-40.785679425670985" fill="none" id="id141" stroke="none" /><text fill="#e1ed5e" style="font-size:6.75px; font-family:Arial;" text-anchor="middle"><textPath startOffset="21.40746469413373" xlink:href="#id141">September</textPath></text><path d="M 79.03789590574601 101.26102812881392 l -13.898410729670486 0.8360938766985637 a34.92353668366168,34.92353668366168 0 0,0 -0.03086311101923038,-0.5987361086266986 l 13.910715430146288 -0.5973859746951344" fill="#ff980e" stroke="none" /><line stroke="#e1ed5e" stroke-width="0.3" x1="15.003131293944662" x2="10.003315487706104" y1="100.72959589197737" y2="100.7725132973878" /><path d="M 14.003168132696942 100.73817937305945 a86.0,86.0 0 0,1 10.791469493833604,-42.45332614584628" fill="none" id="id142" stroke="none" /><text fill="#e1ed5e" style="font-size:6.75px; font-family:Arial;" text-anchor="middle"><textPath startOffset="22.145653131862435" xlink:href="#id142">October</textPath></text><line stroke="#e1ed5e" stroke-width="0.3" x1="26.387840678322718" x2="22.05771365940052" y1="57.49999999999999" y2="54.99999999999999" /><path d="M 25.521815274538284 56.99999999999999 a86.0,86.0 0 0,1 29.574782752854787,-30.34633250058573" fill="none" id="id143" stroke="none" /><text fill="#e1ed5e" style="font-size:6.75px; font-family:Arial;" text-anchor="middle"><textPath startOffset="21.40746469413373" xlink:href="#id143">November</textPath></text><line stroke="#e1ed5e" stroke-width="0.3" x1="56.869717070023135" x2="54.33264160355391" y1="26.7553504044142" y2="22.446841604673864" /><path d="M 56.362301976729285 25.89364864446614 a86.0,86.0 0 0,1 42.16139366436587,-11.88097634709845" fill="none" id="id144" stroke="none" /><text fill="#e1ed5e" style="font-size:6.75px; font-family:Arial;" text-anchor="middle"><textPath startOffset="22.145653131862474" xlink:href="#id144">December</textPath></text></svg>