<?xml version="1.0" encoding="utf-8" ?>
<svg baseProfile="full" height="200mm" version="1.1" viewBox="0,0,200,200" width="200mm" xmlns="http://www.w3.org/2000/svg" xmlns:ev="http://www.w3.org/2001/xml-events" xmlns:xlink="http://www.w3.org/1999/xlink"><defs /><rect fill="#1a1a1a" height="200" width="200" x="0" y="0" /><rect fill="#1a1a1a" height="200" width="180" x="10" y="0" /><text alignment-baseline="middle" fill="#e1ed5e" style="dominant-baseline: central; font-size:9.0px; font-family:Arial;" text-anchor="middle" x="100.0" y="100.0">2015</text><line stroke="#e1ed5e" stroke-width="0.3" x1="100.0" x2="100.0" y1="15.0" y2="10.0" /><path d="M 100.0 14.0 a86.0,86.0 0 0,1 42.46469731375804,11.215312516191453" fill="none" id="id25" stroke="none" /><text fill="#e1ed5e" style="font-size:6.75px; font-family:Arial;" text-anchor="middle"><textPath startOffset="22.20632615414155" xlink:href="#id25">January</textPath></text><line stroke="#e1ed5e" stroke-width="0.3" x1="143.23703022742887" x2="145.7803849466894" y1="26.81831364943548" y2="22.513508569990506" /><path d="M 143.74570117128098 25.957352633546492 a86.0,86.0 0 0,1 28.547481713284135,27.462654790039103" fill="none" id="id26" stroke="none" /><text fill="#e1ed5e" style="font-size:6.75px; font-family:Arial;" text-anchor="middle"><textPath startOffset="19.985693538727396" xlink:href="#id26">February</textPath></text><line stroke="#e1ed5e" stroke-width="0.3" x1="172.23445277983987" x2="176.4835382374775" y1="55.19839476539836" y2="52.563006222186495" /><path d="M 173.08426987136738 54.67131705675599 a86.0,86.0 0 0,1 12.851231095245387,41.99856678651699" fill="none" id="id27" stroke="none" /><text fill="#e1ed5e" style="font-size:6.75px; font-family:Arial;" text-anchor="middle"><textPath startOffset="22.20632615414155" xlink:href="#id27">March</textPath></text><line stroke="#e1ed5e" stroke-width="0.3" x1="184.98032266829074" x2="189.97916517819016" y1="98.17113171792111" y2="98.06355123074" /><path d="M 185.9800911702706 98.14961562048488 a86.0,86.0 0 0,1 -9.607161424134198,41.387399972396054" fill="none" id="id28" stroke="none" /><text fill="#e1ed5e" style="font-size:6.75px; font-family:Arial;" text-anchor="middle"><textPath startOffset="21.466115282336823" xlink:href="#id28">April</textPath></text><path d="M 119.54520255179757 107.68017299344265 l 6.580036786295576 2.585586958643141 a28.06980509135213,28.06980509135213 0 0,0 -0.18057891838791465,0.4481820662694943 l -6.534555253650269 -2.698468392755449" fill="#ff3905" stroke="none" /><path d="M 119.26925614724726 108.34839909993367 l 7.604127935445836 3.2944860106146514 a29.28712252430018,29.28712252430018 0 0,0 -0.2043947099287495,0.4608561122617843 l -7.546292140785814 -3.424890459369123" fill="#ff4a06" stroke="none" /><path d="M 118.97047184881838 109.00673069616215 l 8.564743891440044 4.0663375337501275 a30.481030474813622,30.481030474813622 0 0,0 -0.22911101883223708,0.4720365592365902 l -8.493479615993092 -4.213163048951993" fill="#ff5b08" stroke="none" /><line stroke="#e1ed5e" stroke-width="0.3" x1="174.80103733775053" x2="179.2010983576182" y1="140.37084112569926" y2="142.7455964860345" /><path d="M 175.68104954172406 140.8457921977663 a86.0,86.0 0 0,1 -30.038265399797805,32.042727171017184" fill="none" id="id29" stroke="none" /><text fill="#e1ed5e" style="font-size:6.75px; font-family:Arial;" text-anchor="middle"><textPath startOffset="22.206326154141568" xlink:href="#id29">May</textPath></text><path d="M 118.48025628344425 109.97397251340804 l 8.590634619084156 4.636448339747154 a30.76194941421801,30.76194941421801 0 0,0 -0.2555052223380446,0.4638161950522282 l -8.509552987294603 -4.7836350531971865" fill="#ff5f08" stroke="none" /><path d="M 114.55890576462653 115.13401014063108 l 3.278395217920696 3.4078980436536255 a25.728810027990498,25.728810027990498 0 0,0 -0.32181125800569266,0.3042926308903352 l -3.2192481255241954 -3.4638253112898822" fill="#ff1602" stroke="none" /><line stroke="#e1ed5e" stroke-width="0.3" x1="143.8653032363475" x2="146.44561519142675" y1="172.8068346515853" y2="177.08958963109032" /><path d="M 144.38136562736335 173.6633856474863 a86.0,86.0 0 0,1 -40.68145358897372,12.25698825130547" fill="none" id="id30" stroke="none" /><text fill="#e1ed5e" style="font-size:6.75px; font-family:Arial;" text-anchor="middle"><textPath startOffset="21.466115282336833" xlink:href="#id30">June</textPath></text><line stroke="#e1ed5e" stroke-width="0.3" x1="102.19456741930631" x2="102.32365962044197" y1="184.97166512339345" y2="189.96999836594603" /><path d="M 102.22038585953345 185.97133177190398 a86.0,86.0 0 0,1 -42.740103519485714,-10.115201625700543" fill="none" id="id31" stroke="none" /><text fill="#e1ed5e" style="font-size:6.75px; font-family:Arial;" text-anchor="middle"><textPath startOffset="22.20632615414155" xlink:href="#id31">July</textPath></text><path d="M 95.86986931433489 120.58985236759428 l -1.404251305516676 7.000584065763961 a28.140034943252978,28.140034943252978 0 0,0 -0.47410403040944404,-0.0993531091994454 l 1.524546797355507 -6.975374975837974" fill="#ff3a05" stroke="none" /><path d="M 94.11515582081647 120.15858648285463 l -3.1292088519532197 10.719132970104404 a32.16654645223498,32.16654645223498 0 0,0 -0.5301736529975645,-0.15973697256737418 l 3.31325747939103 -10.663680628431305" fill="#ff730a" stroke="none" /><path d="M 93.42475214034765 119.94407469862007 l -5.387417972938853 16.341143144474827 a38.206313715708,38.206313715708 0 0,0 -0.6228179798944025,-0.21129367412264768 l 5.6679056857704815 -16.245986483454054" fill="#ffc612" stroke="none" /><path d="M 92.7421414339146 119.70592522655815 l -2.7589516076952165 7.490872629977151 a28.982793166063168,28.982793166063168 0 0,0 -0.4666640692853009,-0.1764524201466042 l 2.8874858977408002 -7.4422719597239135" fill="#ff4606" stroke="none" /><path d="M 92.40401165467489 119.57807347666478 l -6.283033830274701 16.194034586847923 a38.37018337014331,38.37018337014331 0 0,0 -0.6137017096400155,-0.24420457562559622 l 6.560856615956574 -16.08348316681626" fill="#ffc812" stroke="none" /><path d="M 91.07499286063937 119.00905698771935 l -2.4077153486656933 5.128107749196879 a26.66520805333515,26.66520805333515 0 0,0 -0.41380254808189765,-0.19865036981874826 l 2.495630564747833 -5.085903102878568" fill="#ff2403" stroke="none" /><line stroke="#e1ed5e" stroke-width="0.3" x1="58.666819895761336" x2="56.23545636021788" y1="174.27360380694188" y2="178.64263932499728" /><path d="M 58.180547188652646 175.14741091055294 a86.0,86.0 0 0,1 -31.652253787137756,-30.449443065178592" fill="none" id="id32" stroke="none" /><text fill="#e1ed5e" style="font-size:6.75px; font-family:Arial;" text-anchor="middle"><textPath startOffset="22.20632615414155" xlink:href="#id32">August</textPath></text><path d="M 88.54995079064634 117.60387380957326 l -6.17780104684897 9.4980578738943 a32.3304161066703,32.3304161066703 0 0,0 -0.4639034463430866,-0.3074499083544367 l 6.340379191932018 -9.390309944448544" fill="#ff760a" stroke="none" /><path d="M 87.95078237400918 117.19931262002967 l -12.048486478520754 17.198268964391666 a41.99872571835384,41.99872571835384 0 0,0 -0.5885274878134124,-0.419898736180912 l 12.342741294183053 -16.988325966366535" fill="#fff717" stroke="none" /><path d="M 86.79598089348748 116.32954008644616 l -5.460862692928533 6.753502515516088 a29.685091685071654,29.685091685071654 0 0,0 -0.3945712298187228,-0.3247052598682418 l 5.576304051291944 -6.6585021367906645" fill="#ff5007" stroke="none" /><path d="M 85.18274418774928 114.88116024355367 l -6.045469957862197 6.071543093435435 a29.568041931903572,29.568041931903572 0 0,0 -0.35757530701704826,-0.36222189816002415 l 6.149085889934779 -5.966580701294746" fill="#ff4e07" stroke="none" /><path d="M 84.9287848128048 114.62390073753433 l -5.5274569884932845 5.3634017779398135 a28.70187375845977,28.70187375845977 0 0,0 -0.3409966412325681,-0.3575336150457412 l 5.618960181104811 -5.267461046311571" fill="#ff4206" stroke="none" /><path d="M 84.67929136418377 114.36230785411682 l -10.281501607979017 9.638332978357345 a35.092790281437026,35.092790281437026 0 0,0 -0.40933833489955107,-0.44425591723045804 l 10.445886350874297 -9.459925806325543" fill="#ff9c0e" stroke="none" /><path d="M 82.44556493220864 111.52570212397912 l -2.7396563889201286 1.7987741182674537 a24.277393088706287,24.277393088706287 0 0,0 -0.22635216650725784,-0.35130358904162645 l 2.770213418804432 -1.751348929304379" fill="#ff0000" stroke="none" /><line stroke="#e1ed5e" stroke-width="0.3" x1="26.63291911575756" x2="22.317208475507996" y1="142.92168965132927" y2="145.44649492493687" /><path d="M 25.769776987707644 143.4266507060508 a86.0,86.0 0 0,1 -11.730757126820373,-40.83630448921669" fill="none" id="id33" stroke="none" /><text fill="#e1ed5e" style="font-size:6.75px; font-family:Arial;" text-anchor="middle"><textPath startOffset="21.46611528233685" xlink:href="#id33">September</textPath></text><path d="M 81.51974371655577 109.97397251340807 l -17.1194661114123 9.239540936042909 a40.45366897653517,40.45366897653517 0 0,0 -0.3254545669850646,-0.6156373899798494 l 17.275973186622252 -8.943488530976934" fill="#ffe315" stroke="none" /><path d="M 79.29508885075956 103.50808413554451 l -16.895290183145697 2.862610664189624 a38.136083863807144,38.136083863807144 0 0,0 -0.10409016298114827,-0.6481695442454405 l 16.942062100488137 -2.57136189025097" fill="#ffc512" stroke="none" /><line stroke="#e1ed5e" stroke-width="0.3" x1="15.007084014347285" x2="10.007500721073583" y1="101.09737516637583" y2="101.16192664675087" /><path d="M 14.007167355692545 101.11028546245083 a86.0,86.0 0 0,1 10.666146001902534,-42.60595125391555" fill="none" id="id34" stroke="none" /><text fill="#e1ed5e" style="font-size:6.75px; font-family:Arial;" text-anchor="middle"><textPath startOffset="22.20632615414155" xlink:href="#id34">October</textPath></text><path d="M 79.62865764111835 94.90015583598534 l -22.95894915573798 -5.747636105715487 a44.667460090586104,44.667460090586104 0 0,0 0.1931413915362796,-0.7442525689214071 l 22.856611432331395 6.141985100185758" fill="#e6ff1a" stroke="none" /><line stroke="#e1ed5e" stroke-width="0.3" x1="26.266209847984243" x2="21.928928074336255" y1="57.711370442889674" y2="55.22380399835377" /><path d="M 25.398753493254645 57.213857153982495 a86.0,86.0 0 0,1 29.58750427330803,-30.492523968695096" fill="none" id="id35" stroke="none" /><text fill="#e1ed5e" style="font-size:6.75px; font-family:Arial;" text-anchor="middle"><textPath startOffset="21.46611528233685" xlink:href="#id35">November</textPath></text><line stroke="#e1ed5e" stroke-width="0.3" x1="56.762969772571076" x2="54.21961505331055" y1="26.818313649435495" y2="22.513508569990535" /><path d="M 56.25429882871897 25.957352633546506 a86.0,86.0 0 0,1 42.265352541879196,-11.944610805530505" fill="none" id="id36" stroke="none" /><text fill="#e1ed5e" style="font-size:6.75px; font-family:Arial;" text-anchor="middle"><textPath startOffset="22.20632615414155" xlink:href="#id36">December</textPath></text><path d="M 97.47563105711357 79.15227682838746 l -7.00383482727769 -57.841786570162746 a79.26427701358739,79.26427701358739 0 0,0 1.3559222631195182,-0.15235366502361009 l 6.007145860648454 57.95377618865696" fill="#47fffe" stroke="none" /><path d="M 98.19473922651362 79.07773832637324 l -5.415782320459142 -62.766785020880285 a84.0,84.0 0 0,0 1.4416392425506632,-0.11189895124615123 l 4.334552888546145 62.8507092343149" fill="#4dd2ff" stroke="none" /></svg>